<svg width="40" height="36" viewBox="0 0 40 36" fill="none" xmlns="http://www.w3.org/2000/svg">
<path d="M2.40422 15.1922C2.56789 15.1656 2.73353 15.1534 2.89926 15.1555H31.1185L30.5031 14.8693C29.9017 14.5847 29.3545 14.1972 28.8861 13.7245L20.9727 5.81117C19.9305 4.81627 19.7554 3.2158 20.5578 2.01904C21.4916 0.743765 23.2824 0.466868 24.5577 1.40068C24.6608 1.47616 24.7587 1.55844 24.8507 1.64699L39.1606 15.9569C40.2789 17.0739 40.2799 18.886 39.1628 20.0043C39.1621 20.0051 39.1613 20.0059 39.1606 20.0066L24.8507 34.3165C23.7315 35.4326 21.9194 35.4301 20.8033 34.3108C20.7154 34.2227 20.6334 34.129 20.5578 34.0303C19.7554 32.8335 19.9305 31.2331 20.9727 30.2382L28.8718 22.3105C29.2917 21.8901 29.7745 21.5377 30.3028 21.2659L31.1614 20.8795H3.05676C1.59473 20.9338 0.312027 19.9125 0.037365 18.4754C-0.215652 16.9152 0.843998 15.4453 2.40422 15.1922Z" fill="#393939"/>
</svg>
