<svg width="50" height="50" viewBox="0 0 50 50" fill="none" xmlns="http://www.w3.org/2000/svg">
<path d="M25.6527 27.288C25.5602 27.268 25.4653 27.2644 25.3716 27.2784C24.4325 27.1691 23.7241 26.3745 23.7225 25.4295C23.7225 24.9765 23.3553 24.6093 22.9024 24.6093C22.4495 24.6093 22.0822 24.9765 22.0822 25.4295C22.0846 27.0077 23.1403 28.3901 24.662 28.8077V29.6279C24.662 30.0808 25.0292 30.448 25.4822 30.448C25.9351 30.448 26.3023 30.0808 26.3023 29.6279V28.8574C28.0587 28.4898 29.2525 26.8539 29.0679 25.069C28.8829 23.2842 27.3791 21.9278 25.5847 21.9274C24.5563 21.9274 23.7225 21.0937 23.7225 20.0653C23.7225 19.0369 24.5563 18.2031 25.5847 18.2031C26.6131 18.2031 27.4468 19.0369 27.4468 20.0653C27.4468 20.5182 27.814 20.8854 28.267 20.8854C28.7199 20.8854 29.0871 20.5182 29.0871 20.0653C29.0847 18.4082 27.9238 16.9789 26.3023 16.6369V15.8905C26.3023 15.4375 25.9351 15.0703 25.4822 15.0703C25.0292 15.0703 24.662 15.4375 24.662 15.8905V16.687C22.9697 17.1491 21.8804 18.7922 22.1135 20.531C22.3465 22.2698 23.8303 23.5677 25.5847 23.5673C26.5994 23.5673 27.4272 24.3798 27.4456 25.3942C27.4644 26.4086 26.6667 27.2511 25.6527 27.288Z" fill="#C62929"/>
<path d="M13.6918 22.8101C13.6918 29.3785 19.0163 34.703 25.5847 34.703C32.153 34.703 37.4775 29.3785 37.4775 22.8101C37.4775 16.2418 32.153 10.9172 25.5847 10.9172C19.0195 10.9244 13.6994 16.245 13.6918 22.8101ZM25.5847 12.5575C31.2472 12.5575 35.8373 17.1476 35.8373 22.8101C35.8373 28.4727 31.2472 33.0627 25.5847 33.0627C19.9221 33.0627 15.3321 28.4727 15.3321 22.8101C15.3385 17.1504 19.9249 12.5639 25.5847 12.5575Z" fill="#C62929"/>
<path d="M41.5206 36.725L35.096 39.7604C34.209 38.1105 32.5074 37.0605 30.6349 37.0077L24.7041 36.8447C23.765 36.8179 22.8435 36.58 22.0086 36.1487L21.4051 35.8359C18.3151 34.2253 14.6321 34.2293 11.5453 35.8463L11.583 34.4792C11.5954 34.0262 11.2386 33.649 10.7856 33.6366L4.28215 33.4576C3.82923 33.4452 3.45239 33.802 3.43998 34.2549L3.04713 48.5265C3.03471 48.9795 3.39152 49.3567 3.84445 49.3691L10.3479 49.5481H10.3704C10.8149 49.5481 11.1785 49.1945 11.1905 48.7504L11.2093 48.0676L12.8989 47.163C13.562 46.8062 14.3373 46.7213 15.0618 46.9263L25.151 49.758C25.1686 49.7632 25.1862 49.7672 25.2042 49.7712C25.9335 49.9238 26.6767 50.0002 27.4216 49.9998C28.9994 50.0006 30.5588 49.6606 31.9929 49.0023C32.0281 48.9863 32.0621 48.9675 32.0946 48.9462L46.723 39.4841C47.0874 39.2483 47.2052 38.7697 46.9917 38.3917C45.9057 36.4647 43.4969 35.7306 41.5206 36.725ZM4.70944 47.7521L5.05704 35.1199L9.92064 35.2537L9.57304 47.8862L4.70944 47.7521ZM31.254 47.5374C29.4724 48.3415 27.4825 48.5634 25.5675 48.1721L15.5055 45.3477C14.373 45.0277 13.1608 45.1603 12.1248 45.7173L11.2614 46.1798L11.4925 37.781C14.2284 35.9613 17.7372 35.7743 20.651 37.2924L21.2545 37.6052C22.3093 38.1498 23.4726 38.4501 24.6592 38.4846L30.5904 38.6476C32.2564 38.6956 33.6712 39.8818 34.0092 41.5141L25.1746 41.2702C24.7217 41.2578 24.3449 41.615 24.332 42.0675C24.3196 42.5204 24.6768 42.8977 25.1294 42.9101L34.879 43.1784H34.9018C35.3459 43.178 35.7091 42.8244 35.7211 42.3807C35.7312 42.0243 35.7047 41.6674 35.6419 41.3166L42.2314 38.2031C42.2379 38.2003 42.2443 38.197 42.2507 38.1938C43.1853 37.7209 44.3154 37.8791 45.0843 38.5907L31.254 47.5374Z" fill="#C62929"/>
<path d="M26.4048 8.61152V0.820144C26.4048 0.367223 26.0376 0 25.5847 0C25.1317 0 24.7645 0.367223 24.7645 0.820144V8.61152C24.7645 9.06444 25.1317 9.43166 25.5847 9.43166C26.0376 9.43166 26.4048 9.06444 26.4048 8.61152Z" fill="#C62929"/>
<path d="M32.5559 8.61163V4.92097C32.5559 4.46805 32.1887 4.10083 31.7357 4.10083C31.2828 4.10083 30.9156 4.46805 30.9156 4.92097V8.61163C30.9156 9.06455 31.2828 9.43177 31.7357 9.43177C32.1887 9.43177 32.5559 9.06455 32.5559 8.61163Z" fill="#C62929"/>
<path d="M20.2538 8.61163V4.92097C20.2538 4.46805 19.8865 4.10083 19.4336 4.10083C18.9807 4.10083 18.6135 4.46805 18.6135 4.92097V8.61163C18.6135 9.06455 18.9807 9.43177 19.4336 9.43177C19.8865 9.43177 20.2538 9.06455 20.2538 8.61163Z" fill="#C62929"/>
</svg>
