<svg width="50" height="50" viewBox="0 0 50 50" fill="none" xmlns="http://www.w3.org/2000/svg">
<g clip-path="url(#clip0)">
<path d="M49.1787 23.8445C48.7942 23.4463 48.3185 23.1712 47.797 23.0392C48.1064 22.5475 48.2616 21.9746 48.2403 21.3783C48.185 19.8215 46.8479 18.5547 45.2599 18.5547H39.4588L39.4531 9.86328C39.4531 7.97882 37.92 6.44531 36.0352 6.44531C34.1503 6.44531 32.6172 7.97882 32.6172 9.86328V12.1635C32.6172 12.7537 32.4924 13.3232 32.2628 13.8432C27.9617 13.6818 24.5117 10.1341 24.5117 5.79414V4.73633C24.5117 4.06303 23.9643 3.51562 23.291 3.51562H10.6934C10.0201 3.51562 9.47266 4.06303 9.47266 4.73633V5.56641C9.47266 10.009 5.85861 13.623 1.41602 13.623H1.2207C0.547409 13.623 0 14.1705 0 14.8438V29.4922C0 38.8618 7.62253 46.4844 16.9922 46.4844C23.6385 46.4844 29.6432 42.6285 32.4203 36.6211H42.6308C43.2972 36.6211 43.9487 36.3464 44.4183 35.8681C44.8807 35.397 45.129 34.7809 45.1168 34.1331C45.1107 33.8036 45.0378 33.4892 44.9112 33.2031H45.2599C46.8479 33.2031 48.185 31.9363 48.2403 30.3795C48.2616 29.7783 48.1041 29.2011 47.7894 28.7067C49.0177 28.3764 49.9523 27.2812 49.9981 25.985C50.0267 25.182 49.7356 24.4217 49.1787 23.8445ZM16.9922 45.0195C8.43048 45.0195 1.46484 38.0539 1.46484 29.4922V15.0879C6.6925 15.0612 10.9375 10.8002 10.9375 5.56641V4.98047H23.0469V5.79414C23.0469 10.603 26.63 14.5897 31.2664 15.2264C31.0905 15.3866 30.9006 15.5342 30.695 15.6651L26.6937 18.211C26.3405 18.4361 25.9327 18.5547 25.5142 18.5547H24.6132C24.3401 17.6517 23.5008 16.9922 22.5098 16.9922H18.4082C17.4534 16.9922 16.6393 17.6044 16.3368 18.457H12.7441C11.694 18.457 10.8398 19.3115 10.8398 20.3613V32.959C10.8398 34.0092 11.694 34.8633 12.7441 34.8633H16.2109V42.0689C9.63097 41.6882 4.39453 36.2148 4.39453 29.541V17.4053C9.42535 17.0391 13.4346 12.933 13.6467 7.86133H16.2109V14.3066C16.2109 14.7114 16.539 15.0391 16.9434 15.0391C17.3477 15.0391 17.6758 14.7114 17.6758 14.3066V7.12891C17.6758 6.72417 17.3477 6.39648 16.9434 6.39648H12.923C12.5187 6.39648 12.1906 6.72417 12.1906 7.12891V7.43828C12.1906 12.141 8.36487 15.9668 3.66211 15.9668C3.25775 15.9668 2.92969 16.2945 2.92969 16.6992V29.541C2.92969 37.2681 9.21631 43.5547 16.9434 43.5547C17.3477 43.5547 17.6758 43.227 17.6758 42.8223V36.253C17.8471 36.3007 18.0267 36.3281 18.2129 36.3281H22.5098C23.2277 36.3281 23.8663 35.9821 24.2672 35.4481L25.0484 35.8906C25.8915 36.3686 26.849 36.6211 27.8175 36.6211H30.7899C28.1364 41.7576 22.8359 45.0195 16.9922 45.0195ZM16.2109 33.3984H12.7441C12.5019 33.3984 12.3047 33.2012 12.3047 32.959V20.3613C12.3047 20.1191 12.5019 19.9219 12.7441 19.9219H16.2109V33.3984ZM47.0177 27.3438H41.3086C40.9042 27.3438 40.5762 27.6714 40.5762 28.0762C40.5762 28.4809 40.9042 28.8086 41.3086 28.8086H45.3125C45.7134 28.8086 46.088 28.9677 46.3669 29.2564C46.6454 29.5448 46.7907 29.9255 46.7762 30.3276C46.7487 31.1054 46.0682 31.7383 45.2599 31.7383H42.6758C42.6594 31.7383 42.643 31.7398 42.627 31.7406C42.6109 31.7398 42.5945 31.7383 42.5781 31.7383H41.3086C40.9042 31.7383 40.5762 32.066 40.5762 32.4707C40.5762 32.8754 40.9042 33.2031 41.3086 33.2031H42.5781C42.5945 33.2031 42.6109 33.2016 42.627 33.2008C42.643 33.2016 42.6594 33.2031 42.6758 33.2031C43.2041 33.2031 43.6424 33.6327 43.6523 34.161C43.6569 34.412 43.5577 34.6539 43.3731 34.8423C43.177 35.0418 42.9066 35.1562 42.6311 35.1562H27.8175C27.1015 35.1562 26.3939 34.9697 25.771 34.6165L24.707 34.0134V32.3566C24.707 31.9523 24.379 31.6242 23.9746 31.6242C23.5703 31.6242 23.2422 31.9523 23.2422 32.3566V34.1309C23.2422 34.5348 22.9137 34.8633 22.5098 34.8633H18.2129C17.9169 34.8633 17.6758 34.6222 17.6758 34.3262V19.1895C17.6758 18.7855 18.0042 18.457 18.4082 18.457H22.5098C22.9137 18.457 23.2422 18.7855 23.2422 19.1895V28.9387C23.2422 29.3434 23.5703 29.6711 23.9746 29.6711C24.379 29.6711 24.707 29.3434 24.707 28.9387V20.0195H25.5142C26.2115 20.0195 26.8917 19.8215 27.4799 19.4469L31.4816 16.9006C33.11 15.8646 34.082 14.0934 34.082 12.1635V9.86328C34.082 8.78639 34.9583 7.91016 36.0352 7.91016C37.112 7.91016 37.9883 8.78639 37.9883 9.86366L37.994 18.7996C37.9944 19.4721 38.5422 20.0195 39.2147 20.0195H45.2599C46.0682 20.0195 46.7487 20.6524 46.7762 21.4302C46.7907 21.8323 46.645 22.213 46.3669 22.5014C46.088 22.7901 45.7134 22.9492 45.3125 22.9492H41.3086C40.9042 22.9492 40.5762 23.2769 40.5762 23.6816C40.5762 24.0864 40.9042 24.4141 41.3086 24.4141H47.0703C47.4712 24.4141 47.8458 24.5731 48.1247 24.8619C48.4032 25.1503 48.5485 25.531 48.534 25.9331C48.5065 26.7109 47.826 27.3438 47.0177 27.3438Z" fill="#C62929"/>
</g>
<defs>
<clipPath id="clip0">
<rect width="50" height="50" fill="white"/>
</clipPath>
</defs>
</svg>
