<svg width="50" height="50" viewBox="0 0 50 50" fill="none" xmlns="http://www.w3.org/2000/svg">
<path d="M24.9999 29.978C27.3872 29.978 29.7209 29.2701 31.7058 27.9438C33.6908 26.6175 35.2379 24.7324 36.1514 22.5268C37.065 20.3213 37.304 17.8943 36.8383 15.5529C36.3726 13.2115 35.223 11.0608 33.5349 9.37272C31.8469 7.68466 29.6961 6.53507 27.3547 6.06934C25.0133 5.6036 22.5864 5.84263 20.3808 6.75621C18.1753 7.66978 16.2901 9.21686 14.9638 11.2018C13.6375 13.1868 12.9296 15.5204 12.9296 17.9077C12.9328 21.108 14.2056 24.1763 16.4685 26.4392C18.7314 28.7021 21.7997 29.9748 24.9999 29.978ZM24.9999 7.20811C27.1168 7.20811 29.1861 7.83584 30.9463 9.01191C32.7064 10.188 34.0782 11.8596 34.8883 13.8153C35.6984 15.7711 35.9104 17.9231 35.4974 19.9993C35.0844 22.0755 34.065 23.9826 32.5682 25.4795C31.0713 26.9763 29.1642 27.9957 27.088 28.4087C25.0118 28.8217 22.8598 28.6097 20.904 27.7996C18.9483 26.9895 17.2767 25.6177 16.1006 23.8576C14.9245 22.0975 14.2968 20.0281 14.2968 17.9112C14.2995 15.0734 15.428 12.3526 17.4347 10.346C19.4413 8.33931 22.1621 7.2108 24.9999 7.20811Z" fill="#C62929"/>
<path d="M20.9328 19.7366L19.4239 24.2636C19.3789 24.3987 19.3772 24.5445 19.4191 24.6806C19.461 24.8168 19.5444 24.9364 19.6576 25.0228C19.7708 25.1093 19.9081 25.1582 20.0505 25.1628C20.1929 25.1673 20.3331 25.1273 20.4516 25.0483L25 22.0159L29.5485 25.0483C29.667 25.1273 29.8072 25.1673 29.9496 25.1628C30.0919 25.1582 30.2293 25.1093 30.3425 25.0228C30.4557 24.9364 30.5391 24.8168 30.581 24.6806C30.6229 24.5445 30.6212 24.3987 30.5762 24.2636L29.0672 19.7366L32.0536 16.7503C32.1493 16.6548 32.2145 16.533 32.241 16.4004C32.2674 16.2677 32.2539 16.1302 32.2022 16.0053C32.1504 15.8804 32.0628 15.7736 31.9503 15.6985C31.8378 15.6234 31.7056 15.5834 31.5704 15.5835H27.1352L25.6485 11.123C25.6031 10.9869 25.516 10.8686 25.3996 10.7847C25.2833 10.7009 25.1435 10.6558 25 10.6558C24.8566 10.6558 24.7168 10.7009 24.6004 10.7847C24.4841 10.8686 24.397 10.9869 24.3516 11.123L22.8649 15.5835H18.4297C18.2945 15.5834 18.1623 15.6234 18.0498 15.6985C17.9373 15.7736 17.8496 15.8804 17.7979 16.0053C17.7462 16.1302 17.7327 16.2677 17.7591 16.4004C17.7856 16.533 17.8508 16.6548 17.9465 16.7503L20.9328 19.7366ZM23.3594 16.9507C23.503 16.9506 23.643 16.9052 23.7594 16.8211C23.8758 16.737 23.9627 16.6183 24.0078 16.4819L25 13.5011L25.9942 16.4843C26.0393 16.6206 26.1263 16.7393 26.2427 16.8234C26.359 16.9076 26.499 16.9529 26.6426 16.953H29.9219L27.8036 19.071C27.7139 19.1607 27.6509 19.2737 27.6218 19.3972C27.5927 19.5207 27.5985 19.6499 27.6387 19.7702L28.6512 22.8081L25.3793 20.6249C25.267 20.55 25.135 20.51 25 20.51C24.865 20.51 24.7331 20.55 24.6207 20.6249L21.3508 22.805L22.3633 19.7671C22.4035 19.6467 22.4093 19.5176 22.3802 19.3941C22.3511 19.2706 22.2882 19.1576 22.1985 19.0679L20.0801 16.9499L23.3594 16.9507Z" fill="#C62929"/>
<path d="M41.6273 42.7882L35.2887 29.9093C35.7821 29.8118 36.2264 29.5462 36.546 29.1579C36.8656 28.7696 37.0406 28.2825 37.0414 27.7796V26.4905C37.0411 26.3315 37.0881 26.176 37.1764 26.0439C37.2648 25.9117 37.3905 25.8088 37.5375 25.7483L38.7297 25.2538C38.9931 25.1446 39.2324 24.9846 39.4339 24.7829C39.6355 24.5813 39.7953 24.3419 39.9043 24.0784C40.0133 23.8149 40.0694 23.5326 40.0692 23.2475C40.0691 22.9623 40.0128 22.68 39.9035 22.4167L39.4141 21.2288C39.3528 21.082 39.3367 20.9203 39.3676 20.7642C39.3986 20.6082 39.4753 20.4649 39.5879 20.3526L40.4961 19.4448C40.9025 19.0372 41.1307 18.4851 41.1307 17.9095C41.1307 17.3338 40.9025 16.7817 40.4961 16.3741L39.5836 15.462C39.4709 15.3497 39.3941 15.2065 39.363 15.0505C39.3319 14.8945 39.3479 14.7327 39.409 14.5858L39.9027 13.3932C40.0117 13.1298 40.0678 12.8474 40.0676 12.5622C40.0675 12.2771 40.0112 11.9948 39.902 11.7314C39.7927 11.468 39.6326 11.2287 39.4309 11.0272C39.2291 10.8257 38.9897 10.6659 38.7262 10.5569L37.5391 10.0659C37.3921 10.0053 37.2664 9.90245 37.178 9.7703C37.0896 9.63815 37.0424 9.4827 37.0426 9.32371V8.03933C37.042 7.46368 36.813 6.91177 36.406 6.50469C35.999 6.0976 35.4471 5.86857 34.8715 5.86785H33.5793C33.4203 5.86812 33.2649 5.8211 33.1327 5.73275C33.0005 5.64441 32.8976 5.51875 32.8371 5.37176L32.3438 4.17957C32.2344 3.91616 32.0742 3.67688 31.8723 3.47541C31.6705 3.27394 31.4309 3.11423 31.1673 3.00539C30.9036 2.89656 30.6211 2.84075 30.3359 2.84115C30.0507 2.84154 29.7684 2.89813 29.5051 3.00769L28.3203 3.49754C28.1733 3.55858 28.0115 3.5746 27.8554 3.54359C27.6993 3.51257 27.5559 3.43591 27.4434 3.32332L26.5352 2.4159C26.1277 2.00933 25.5756 1.78101 25 1.78101C24.4244 1.78101 23.8723 2.00933 23.4648 2.4159L22.552 3.3284C22.4398 3.44107 22.2966 3.5178 22.1406 3.54883C21.9846 3.57985 21.823 3.56377 21.6762 3.50262L20.4832 3.00769C19.9511 2.78773 19.3534 2.78806 18.8216 3.00862C18.2897 3.22917 17.8672 3.6519 17.6469 4.18387L17.1563 5.37137C17.0958 5.51843 16.9929 5.64418 16.8607 5.73259C16.7286 5.82101 16.5731 5.86809 16.4141 5.86785H15.1297C14.554 5.86857 14.0022 6.0976 13.5952 6.50469C13.1881 6.91177 12.9592 7.46368 12.9586 8.03933V9.3284C12.9589 9.48737 12.9118 9.64283 12.8235 9.77499C12.7352 9.90716 12.6095 10.0101 12.4625 10.0706L11.2703 10.5651C10.7387 10.786 10.3166 11.2089 10.0969 11.741C9.87709 12.273 9.87766 12.8706 10.0984 13.4022L10.5898 14.5882C10.651 14.735 10.6672 14.8967 10.6362 15.0527C10.6053 15.2087 10.5286 15.352 10.416 15.4643L9.50782 16.3721C9.10133 16.7797 8.87305 17.3319 8.87305 17.9075C8.87305 18.4831 9.10133 19.0353 9.50782 19.4429L10.4203 20.3554C10.533 20.4676 10.6098 20.6109 10.6409 20.7669C10.672 20.9229 10.656 21.0846 10.5949 21.2315L10.1012 22.4241C9.99217 22.6876 9.93613 22.97 9.93626 23.2551C9.9364 23.5403 9.9927 23.8226 10.102 24.086C10.2112 24.3494 10.3713 24.5886 10.573 24.7902C10.7748 24.9917 11.0142 25.1515 11.2777 25.2604L12.4609 25.753C12.6079 25.8136 12.7336 25.9165 12.822 26.0486C12.9104 26.1808 12.9576 26.3362 12.9574 26.4952V27.7788C12.9582 28.2817 13.1333 28.7688 13.4529 29.1571C13.7725 29.5455 14.2168 29.811 14.7102 29.9085L8.37149 42.7874C8.31184 42.9087 8.28949 43.0449 8.30727 43.179C8.32505 43.313 8.38216 43.4387 8.47137 43.5402C8.56059 43.6418 8.67791 43.7146 8.80851 43.7495C8.9391 43.7844 9.07711 43.7797 9.20508 43.7362L15.2988 41.6628L17.3723 47.7565C17.4159 47.8846 17.4964 47.9968 17.6038 48.079C17.7111 48.1613 17.8404 48.2099 17.9754 48.2186H18.0195C18.1472 48.2186 18.2723 48.1828 18.3807 48.1154C18.489 48.0479 18.5764 47.9515 18.6328 47.837L25 34.9038L31.3672 47.8382C31.4236 47.9527 31.511 48.0491 31.6193 48.1165C31.7277 48.184 31.8528 48.2198 31.9805 48.2198H32.0246C32.1596 48.211 32.2889 48.1624 32.3962 48.0801C32.5035 47.9979 32.5841 47.8857 32.6277 47.7577L34.7012 41.6639L40.7949 43.7374C40.9229 43.7809 41.0609 43.7855 41.1915 43.7507C41.3221 43.7158 41.4394 43.6429 41.5286 43.5414C41.6179 43.4398 41.675 43.3141 41.6927 43.1801C41.7105 43.0461 41.6882 42.9099 41.6285 42.7886L41.6273 42.7882ZM14.3258 27.7796V26.496C14.3267 26.0662 14.1996 25.6459 13.9608 25.2886C13.722 24.9313 13.3822 24.6532 12.9848 24.4897L11.7988 23.9991C11.7012 23.9588 11.6125 23.8996 11.5378 23.825C11.463 23.7504 11.4038 23.6618 11.3633 23.5642C11.3229 23.4666 11.302 23.3621 11.302 23.2565C11.302 23.1508 11.3228 23.0463 11.3633 22.9487L11.8566 21.7577C12.0216 21.3611 12.0649 20.9244 11.981 20.5032C11.8971 20.082 11.6899 19.6952 11.3856 19.3921L10.4731 18.4764C10.3224 18.3256 10.2378 18.1211 10.2378 17.9079C10.2378 17.6947 10.3224 17.4902 10.4731 17.3393L11.3805 16.4315C11.6848 16.1281 11.8918 15.741 11.9753 15.3195C12.0588 14.898 12.0149 14.4612 11.8492 14.0647L11.3594 12.8807C11.3189 12.7832 11.2979 12.6786 11.2979 12.573C11.2978 12.4674 11.3185 12.3628 11.3589 12.2652C11.3993 12.1676 11.4585 12.0789 11.5332 12.0043C11.6079 11.9296 11.6966 11.8703 11.7941 11.83L12.9863 11.3358C13.3833 11.1719 13.7226 10.8937 13.9611 10.5366C14.1996 10.1794 14.3265 9.75943 14.3258 9.32996V8.0409C14.3261 7.82775 14.4109 7.62341 14.5616 7.47265C14.7122 7.3219 14.9165 7.23701 15.1297 7.2366H16.4137C16.8434 7.23745 17.2637 7.11038 17.621 6.87156C17.9783 6.63275 18.2564 6.293 18.4199 5.89559L18.9106 4.70965C18.9508 4.61196 19.0099 4.52316 19.0845 4.44832C19.1591 4.37348 19.2476 4.31407 19.3452 4.27348C19.4427 4.23289 19.5473 4.21191 19.653 4.21175C19.7586 4.21159 19.8633 4.23224 19.9609 4.27254L21.1535 4.76551C21.5498 4.93057 21.9863 4.97414 22.4074 4.89068C22.8285 4.80722 23.2153 4.6005 23.5188 4.29676L24.4313 3.38387C24.5845 3.23772 24.7882 3.15619 25 3.15619C25.2118 3.15619 25.4155 3.23772 25.5688 3.38387L26.4762 4.29129C26.7794 4.59589 27.1664 4.80333 27.5879 4.88716C28.0094 4.97099 28.4463 4.92742 28.843 4.76199L30.0289 4.27019C30.1264 4.22968 30.231 4.20881 30.3366 4.20876C30.4422 4.20871 30.5468 4.22949 30.6444 4.26991C30.7419 4.31033 30.8306 4.3696 30.9052 4.44431C30.9798 4.51903 31.039 4.60774 31.0793 4.70535L31.5738 5.89715C31.7376 6.29415 32.0157 6.63348 32.3728 6.87199C32.7299 7.11051 33.1499 7.23742 33.5793 7.2366H34.8703C35.0835 7.23701 35.2878 7.3219 35.4384 7.47265C35.5891 7.62341 35.6739 7.82775 35.6742 8.0409V9.32449C35.6739 9.75378 35.8012 10.1735 36.04 10.5302C36.2787 10.887 36.6182 11.1647 37.0152 11.328L38.2031 11.8198C38.3007 11.8601 38.3895 11.9193 38.4642 11.9939C38.5389 12.0685 38.5982 12.1572 38.6387 12.2547C38.6791 12.3523 38.6999 12.4568 38.6999 12.5624C38.6999 12.6681 38.6791 12.7726 38.6387 12.8702L38.1434 14.0624C37.9784 14.459 37.9351 14.8957 38.019 15.317C38.1029 15.7383 38.3102 16.1252 38.6145 16.4284L39.527 17.3409C39.6776 17.4918 39.7622 17.6963 39.7622 17.9095C39.7622 18.1227 39.6776 18.3271 39.527 18.478L38.6195 19.3854C38.3153 19.6888 38.1082 20.0759 38.0247 20.4974C37.9412 20.9189 37.9851 21.3558 38.1508 21.7522L38.6422 22.9382C38.6827 23.0357 38.7035 23.1403 38.7036 23.2459C38.7036 23.3515 38.6829 23.456 38.6425 23.5536C38.6021 23.6512 38.5429 23.7399 38.4683 23.8146C38.3936 23.8893 38.305 23.9485 38.2074 23.9889L37.0152 24.4831C36.6183 24.647 36.279 24.9252 36.0405 25.2823C35.802 25.6395 35.675 26.0595 35.6758 26.4889V27.778C35.6755 27.9911 35.5907 28.1954 35.44 28.3461C35.2893 28.4968 35.085 28.5816 34.8719 28.5819H33.5863C33.1566 28.5811 32.7363 28.7082 32.3791 28.947C32.0218 29.1858 31.7437 29.5255 31.5801 29.9229L31.0895 31.1093C31.0493 31.207 30.9902 31.2958 30.9156 31.3707C30.841 31.4455 30.7524 31.5049 30.6548 31.5455C30.5573 31.5861 30.4527 31.607 30.347 31.6071C30.2413 31.6071 30.1367 31.5864 30.0391 31.546L28.8465 31.0546C28.4502 30.8894 28.0137 30.8458 27.5926 30.9292C27.1714 31.0127 26.7846 31.2195 26.4813 31.5233L25.5688 32.4362C25.4155 32.5824 25.2118 32.6639 25 32.6639C24.7882 32.6639 24.5845 32.5824 24.4313 32.4362L23.5238 31.5284C23.2204 31.2242 22.8333 31.0171 22.4118 30.9337C21.9903 30.8502 21.5535 30.894 21.157 31.0597L19.9711 31.5514C19.8736 31.5919 19.7691 31.6128 19.6635 31.6128C19.5579 31.6129 19.4534 31.5921 19.3558 31.5517C19.2583 31.5114 19.1696 31.4522 19.095 31.3775C19.0203 31.3029 18.9611 31.2142 18.9207 31.1167L18.4262 29.9218C18.2625 29.5247 17.9844 29.1853 17.6273 28.9468C17.2702 28.7082 16.8502 28.5812 16.4207 28.5819H15.1316C14.9185 28.5821 14.7139 28.4978 14.5628 28.3474C14.4118 28.1969 14.3265 27.9928 14.3258 27.7796ZM18.1356 45.7538L16.3738 40.5761C16.345 40.491 16.2996 40.4125 16.2404 40.345C16.1811 40.2775 16.1091 40.2224 16.0286 40.1827C15.948 40.143 15.8604 40.1197 15.7708 40.1139C15.6811 40.1081 15.5913 40.1201 15.5063 40.1491L10.3281 41.9112L16.2152 29.9507H16.4207C16.5797 29.9505 16.7351 29.9976 16.8672 30.0859C16.9994 30.1742 17.1023 30.2998 17.1629 30.4468L17.6563 31.6405C17.8773 32.172 18.3003 32.5939 18.8323 32.8137C19.3642 33.0334 19.9617 33.0329 20.4934 32.8124L21.6797 32.3214C21.8267 32.2602 21.9885 32.2441 22.1447 32.2751C22.3008 32.3061 22.4442 32.3829 22.5566 32.4956L23.4641 33.403C23.6277 33.5621 23.8158 33.694 24.0211 33.7936L18.1356 45.7538ZM34.4922 40.1491C34.4072 40.1201 34.3173 40.1081 34.2277 40.1139C34.1381 40.1197 34.0505 40.143 33.9699 40.1827C33.8893 40.2224 33.8173 40.2775 33.7581 40.345C33.6988 40.4125 33.6535 40.491 33.6246 40.5761L31.8629 45.7538L25.9766 33.7948C26.1819 33.6952 26.37 33.5633 26.5336 33.4042L27.4465 32.4917C27.5586 32.3789 27.7018 32.3021 27.8578 32.271C28.0138 32.2399 28.1755 32.2559 28.3223 32.3171L29.5148 32.8108C30.0471 33.0309 30.6449 33.0306 31.1768 32.8099C31.7088 32.5893 32.1313 32.1664 32.3516 31.6343L32.8422 30.4487C32.9026 30.3016 33.0055 30.1757 33.1376 30.0873C33.2698 29.9988 33.4253 29.9516 33.5844 29.9518H33.7828L39.6699 41.9124L34.4922 40.1491Z" fill="#C62929"/>
</svg>
