<svg width="50" height="51" viewBox="0 0 50 51" fill="none" xmlns="http://www.w3.org/2000/svg">
<path d="M30.2724 22.8715C33.163 21.0137 35.5556 18.6067 37.1922 15.9105C38.7865 13.2838 39.6531 10.4662 39.7773 7.52547H39.8438C40.4522 7.52477 41.0355 7.2815 41.4657 6.84902C41.896 6.41654 42.138 5.83018 42.1387 5.21857V2.86259C42.1387 2.66732 42.0615 2.48006 41.9242 2.34198C41.7868 2.20391 41.6005 2.12634 41.4062 2.12634H8.59375C8.3995 2.12634 8.21321 2.20391 8.07585 2.34198C7.93849 2.48006 7.86133 2.66732 7.86133 2.86259V5.21857C7.86203 5.83018 8.10404 6.41654 8.53427 6.84902C8.9645 7.2815 9.54781 7.52477 10.1562 7.52547H10.2224C10.3464 10.4662 11.2134 13.2838 12.8078 15.9105C14.4443 18.6067 16.8371 21.0137 19.7276 22.8715C20.189 23.1686 20.5687 23.5777 20.8316 24.061C21.0946 24.5443 21.2324 25.0862 21.2324 25.6371C21.2324 26.1879 21.0946 26.7299 20.8316 27.2132C20.5687 27.6965 20.189 28.1055 19.7276 28.4027C16.837 30.2605 14.4444 32.6674 12.8078 35.3637C11.2133 37.9907 10.3462 40.8084 10.2225 43.7495C9.5937 43.7584 8.99366 44.0156 8.55189 44.4654C8.11013 44.9152 7.86209 45.5217 7.86133 46.1538V48.4116C7.86133 48.6069 7.93849 48.7941 8.07585 48.9322C8.21321 49.0703 8.3995 49.1478 8.59375 49.1478H41.4062C41.6005 49.1478 41.7868 49.0703 41.9242 48.9322C42.0615 48.7941 42.1387 48.6069 42.1387 48.4116V46.0556C42.138 45.444 41.896 44.8576 41.4657 44.4252C41.0355 43.9927 40.4522 43.7494 39.8438 43.7487H39.7776C39.6535 40.808 38.7866 37.9904 37.1922 35.3637C35.5557 32.6674 33.1628 30.2605 30.2724 28.4027C29.811 28.1055 29.4313 27.6965 29.1684 27.2132C28.9054 26.7299 28.7676 26.1879 28.7676 25.6371C28.7676 25.0862 28.9054 24.5443 29.1684 24.061C29.4313 23.5777 29.811 23.1686 30.2724 22.8715ZM9.32617 5.21857V3.59883H40.6738V5.21857C40.6736 5.43979 40.586 5.65188 40.4304 5.8083C40.2748 5.96473 40.0638 6.05272 39.8438 6.05298H10.1562C9.93618 6.05272 9.7252 5.96473 9.56958 5.8083C9.41397 5.65188 9.32643 5.43979 9.32617 5.21857ZM40.6738 46.0556V47.6754H9.32617V46.1538C9.32646 45.9065 9.42429 45.6695 9.59821 45.4947C9.77214 45.3198 10.0079 45.2215 10.2539 45.2212H39.8438C40.0638 45.2215 40.2748 45.3095 40.4304 45.4659C40.586 45.6223 40.6736 45.8344 40.6738 46.0556ZM15.2662 43.7487C16.2265 42.2173 18.6088 40.7828 22.0231 39.7148C23.3333 39.3049 24.3491 38.7192 25 38.0123C25.6508 38.7191 26.6667 39.3049 27.9769 39.7148C31.3912 40.7828 33.7735 42.2173 34.7338 43.7487H15.2662ZM27.3027 25.6371C27.3006 26.4355 27.4993 27.2216 27.8806 27.9221C28.2618 28.6225 28.8131 29.2147 29.4832 29.6434C34.8676 33.1038 38.0507 38.2122 38.3105 43.7487H36.3708C35.4942 41.5673 32.7036 39.6512 28.4118 38.3088C26.9515 37.852 25.936 37.1392 25.6956 36.4023C25.6475 36.2549 25.5543 36.1265 25.4293 36.0355C25.3044 35.9445 25.154 35.8955 24.9997 35.8955C24.8453 35.8955 24.6949 35.9445 24.57 36.0355C24.445 36.1265 24.3518 36.2549 24.3037 36.4023C24.0633 37.1392 23.0479 37.852 21.5876 38.3088C17.296 39.6513 14.5048 41.5673 13.6286 43.7487H11.6895C11.9495 38.2122 15.1326 33.1038 20.5169 29.6434C21.1855 29.2131 21.7356 28.6206 22.1167 27.9205C22.4977 27.2204 22.6974 26.4351 22.6974 25.6371C22.6974 24.839 22.4977 24.0538 22.1167 23.3537C21.7356 22.6536 21.1855 22.0611 20.5169 21.6307C15.1324 18.1704 11.9493 13.062 11.6895 7.52547H38.3105C38.0506 13.062 34.8681 18.1704 29.4837 21.6307C28.8135 22.0594 28.2621 22.6516 27.8808 23.352C27.4995 24.0525 27.3006 24.8386 27.3027 25.6371Z" fill="#C62929"/>
<path d="M34.992 12.691C34.9268 12.5825 34.8348 12.4929 34.725 12.4306C34.6152 12.3684 34.4913 12.3356 34.3652 12.3356H15.6347C15.5087 12.3356 15.3847 12.3683 15.2749 12.4306C15.1651 12.4928 15.0731 12.5825 15.0079 12.691C14.9427 12.7995 14.9064 12.923 14.9026 13.0497C14.8988 13.1764 14.9276 13.3019 14.9862 13.4141C16.3654 16.0547 18.5871 18.4099 21.4111 20.2251C22.1694 20.7116 22.8167 21.3538 23.3106 22.1096C23.8045 22.8653 24.1337 23.7176 24.2767 24.6103C24.3042 24.7832 24.3922 24.9407 24.5247 25.0543C24.6573 25.1679 24.8258 25.2304 25 25.2304C25.1742 25.2304 25.3427 25.1679 25.4753 25.0543C25.6078 24.9407 25.6957 24.7832 25.7232 24.6103C25.8662 23.7176 26.1955 22.8653 26.6894 22.1095C27.1832 21.3537 27.8306 20.7115 28.5889 20.225C31.4128 18.4099 33.6345 16.0547 35.0137 13.4141C35.0723 13.3019 35.1011 13.1764 35.0973 13.0497C35.0935 12.923 35.0572 12.7995 34.992 12.691ZM27.7998 18.9844C26.6023 19.7539 25.6347 20.8353 25 22.1136C24.3653 20.8353 23.3977 19.7539 22.2002 18.9845C19.9854 17.5611 18.1767 15.7879 16.9092 13.8081H33.0908C31.8232 15.7879 30.0145 17.5609 27.7998 18.9844Z" fill="#C62929"/>
<path d="M25 26.4715C24.8057 26.4715 24.6195 26.5491 24.4821 26.6871C24.3447 26.8252 24.2676 27.0125 24.2676 27.2077V27.9918C24.2676 28.1871 24.3447 28.3743 24.4821 28.5124C24.6195 28.6505 24.8057 28.728 25 28.728C25.1943 28.728 25.3805 28.6505 25.5179 28.5124C25.6553 28.3743 25.7324 28.1871 25.7324 27.9918V27.2077C25.7324 27.0125 25.6553 26.8252 25.5179 26.6871C25.3805 26.5491 25.1943 26.4715 25 26.4715Z" fill="#C62929"/>
<path d="M25 30.3981C24.8057 30.3981 24.6195 30.4757 24.4821 30.6138C24.3447 30.7518 24.2676 30.9391 24.2676 31.1344V31.9184C24.2676 32.1137 24.3447 32.301 24.4821 32.439C24.6195 32.5771 24.8057 32.6547 25 32.6547C25.1943 32.6547 25.3805 32.5771 25.5179 32.439C25.6553 32.301 25.7324 32.1137 25.7324 31.9184V31.1344C25.7324 30.9391 25.6553 30.7518 25.5179 30.6138C25.3805 30.4757 25.1943 30.3981 25 30.3981Z" fill="#C62929"/>
</svg>
