<svg width="50" height="50" viewBox="0 0 50 50" fill="none" xmlns="http://www.w3.org/2000/svg">
<g clip-path="url(#clip0)">
<path d="M50 26.6667V21.6667C50 20.7462 49.2538 20 48.3333 20V19.1667C48.3333 17.786 47.2141 16.6667 45.8333 16.6667H29.1667V13.5676L30.2025 13.3084C30.6459 13.1939 30.9139 12.7432 30.8026 12.299C30.6914 11.8549 30.2425 11.5837 29.7976 11.6917L29.1667 11.8492V10.2342L30.2025 9.975C30.6459 9.86055 30.9139 9.40977 30.8026 8.96562C30.6914 8.52148 30.2425 8.25029 29.7976 8.3584L29.1667 8.51592V6.90088L30.2025 6.6417C30.4933 6.57109 30.7237 6.3501 30.8065 6.0626C30.8894 5.7751 30.8117 5.46533 30.6032 5.25088C30.3946 5.03643 30.0872 4.9502 29.7976 5.025L29.1667 5.18252V3.56748L30.2025 3.3083C30.6459 3.19385 30.9139 2.74307 30.8026 2.29893C30.6914 1.85479 30.2425 1.58359 29.7976 1.6917L29.1667 1.84922V0.833301C29.1667 0.373047 28.7937 0 28.3334 0H21.6667C21.2064 0 20.8334 0.373047 20.8334 0.833301V3.93242L19.7976 4.1916C19.3895 4.29385 19.1216 4.68437 19.173 5.10195C19.2245 5.51953 19.5793 5.8332 20 5.8333C20.0686 5.83359 20.1369 5.8252 20.2033 5.8083L20.8333 5.65078V7.26582L19.7975 7.525C19.3894 7.62725 19.1215 8.01777 19.1729 8.43535C19.2244 8.85293 19.5792 9.1666 19.9999 9.1667C20.0685 9.16699 20.1368 9.15859 20.2032 9.1417L20.8332 8.98418V10.5992L19.7974 10.8584C19.3893 10.9606 19.1214 11.3512 19.1729 11.7688C19.2243 12.1863 19.5791 12.5 19.9998 12.5001C20.0684 12.5004 20.1367 12.492 20.2031 12.4751L20.8331 12.3176V13.9326L19.7973 14.1918C19.3892 14.294 19.1213 14.6846 19.1728 15.1021C19.2242 15.5197 19.579 15.8334 19.9997 15.8335C20.0683 15.8338 20.1366 15.8254 20.203 15.8085L20.833 15.651V16.6668H4.1667C2.78604 16.6668 1.6667 17.786 1.6667 19.1668V20.0001C0.746191 20 0 20.7462 0 21.6667V26.6667C0 27.5872 0.746191 28.3334 1.6667 28.3334H13.9384C12.4949 29.594 11.6667 31.417 11.6667 33.3334C11.6667 35.2498 12.4949 37.0728 13.9384 38.3334H1.6667C0.746191 38.3333 0 39.0795 0 40V45C0 45.9205 0.746191 46.6667 1.6667 46.6667V47.5C1.6667 48.8807 2.78604 50 4.1667 50H45.8334C47.2141 50 48.3334 48.8808 48.3334 47.5V46.6667C49.2539 46.6667 50.0001 45.9205 50.0001 45V40C50.0001 39.0795 49.2539 38.3333 48.3334 38.3333H36.0616C37.5051 37.0727 38.3333 35.2497 38.3333 33.3333C38.3333 31.4169 37.5051 29.5939 36.0616 28.3333H48.3333C49.2538 28.3333 50 27.5871 50 26.6667ZM22.5 1.6667H27.5V2.26582L22.5 3.51582V1.6667ZM22.5 5.23418L27.5 3.98418V5.59922L22.5 6.84922V5.23418ZM22.5 8.56748L27.5 7.31748V8.93252L22.5 10.1825V8.56748ZM22.5 11.9009L27.5 10.6509V12.2659L22.5 13.5159V11.9009ZM22.5 15.2342L27.5 13.9842V16.6667H22.5V15.2342ZM3.3333 19.1667C3.3333 18.7064 3.70635 18.3334 4.1666 18.3334H45.8333C46.2936 18.3334 46.6666 18.7064 46.6666 19.1667V20H3.3333V19.1667ZM46.6667 47.5C46.6667 47.9603 46.2937 48.3333 45.8334 48.3333H4.1667C3.70645 48.3333 3.3334 47.9603 3.3334 47.5V46.6667H46.6667V47.5ZM48.3333 40V45H1.6667V40H48.3333ZM36.6667 33.3333C36.664 36.0936 34.427 38.3306 31.6667 38.3333H18.3333C15.5719 38.3333 13.3333 36.0947 13.3333 33.3333C13.3333 30.5719 15.5719 28.3333 18.3333 28.3333H31.6666C34.427 28.3361 36.6639 30.573 36.6667 33.3333ZM31.6667 26.6667H1.6667V21.6667H48.3334V26.6667H31.6667Z" fill="#C62929"/>
<path d="M4.16668 43.3334H6.66668C7.12693 43.3334 7.49998 42.9603 7.49998 42.5001C7.49998 42.0398 7.12693 41.6667 6.66668 41.6667H4.16668C3.70642 41.6667 3.33337 42.0398 3.33337 42.5001C3.33337 42.9603 3.70642 43.3334 4.16668 43.3334Z" fill="#C62929"/>
<path d="M31.6667 30H18.3333C16.4924 30 15 31.4924 15 33.3333C15 35.1742 16.4924 36.6666 18.3333 36.6666C18.7936 36.6666 19.1666 36.2936 19.1666 35.8333C19.1666 35.373 18.7936 35 18.3333 35C17.4128 35 16.6666 34.2538 16.6666 33.3333C16.6666 32.4128 17.4128 31.6666 18.3333 31.6666H31.6666C32.5871 31.6666 33.3333 32.4128 33.3333 33.3333C33.3333 34.2538 32.5871 35 31.6666 35C31.2063 35 30.8333 35.373 30.8333 35.8333C30.8333 36.2936 31.2063 36.6666 31.6666 36.6666C33.5075 36.6666 34.9999 35.1742 34.9999 33.3333C35 31.4924 33.5076 30 31.6667 30Z" fill="#C62929"/>
</g>
<defs>
<clipPath id="clip0">
<rect width="50" height="50" fill="white"/>
</clipPath>
</defs>
</svg>
