<svg width="50" height="50" viewBox="0 0 50 50" fill="none" xmlns="http://www.w3.org/2000/svg">
<path d="M47.5 0.108337H2.5C1.11929 0.108337 0 1.22763 0 2.60834V24.275C0 25.6557 1.11929 26.775 2.5 26.775H47.5C48.8807 26.775 50 25.6557 50 24.275V2.60834C50 1.22763 48.8807 0.108337 47.5 0.108337ZM48.3333 24.275C48.3333 24.7352 47.9602 25.1083 47.5 25.1083H2.5C2.03976 25.1083 1.66667 24.7352 1.66667 24.275V2.60834C1.66667 2.1481 2.03976 1.775 2.5 1.775H47.5C47.9602 1.775 48.3333 2.1481 48.3333 2.60834V24.275Z" fill="white"/>
<path d="M45.8333 7.60832C43.9924 7.60832 42.5 6.11593 42.5 4.27498C42.5 3.81475 42.1269 3.44165 41.6667 3.44165H8.33331C7.87308 3.44165 7.49998 3.81475 7.49998 4.27498C7.49998 5.15904 7.14879 6.00688 6.52367 6.63201C5.89855 7.25713 5.0507 7.60832 4.16665 7.60832C3.70641 7.60832 3.33331 7.98141 3.33331 8.44165V18.4417C3.33331 18.9019 3.70641 19.275 4.16665 19.275C6.0076 19.275 7.49998 20.7674 7.49998 22.6083C7.49998 23.0686 7.87308 23.4417 8.33331 23.4417H41.6667C42.1269 23.4417 42.5 23.0686 42.5 22.6083C42.5 20.7674 43.9924 19.275 45.8333 19.275C46.2936 19.275 46.6667 18.9019 46.6667 18.4417V8.44165C46.6667 7.98141 46.2936 7.60832 45.8333 7.60832ZM9.09998 21.775C8.74616 19.6745 7.10046 18.0288 4.99998 17.675V9.16665C7.09794 8.81389 8.74295 7.17222 9.09998 5.07498H19.4833C16.6902 6.92773 15.011 10.0566 15.011 13.4083C15.011 16.7601 16.6902 19.8889 19.4833 21.7416L9.09998 21.775ZM25 5.10832C29.6024 5.10832 33.3333 8.83928 33.3333 13.4416C33.3333 18.044 29.6024 21.775 25 21.775C20.3976 21.775 16.6666 18.044 16.6666 13.4416C16.6666 8.83928 20.3976 5.10832 25 5.10832ZM45 17.675C42.8995 18.0288 41.2538 19.6745 40.9 21.775H30.5166C33.3098 19.9222 34.9889 16.7934 34.9889 13.4416C34.9889 10.0899 33.3098 6.96106 30.5166 5.10832H40.9C41.2698 7.19261 42.912 8.81817 45 9.16665V17.675Z" fill="white"/>
<path d="M25 17.6083C24.0795 17.6083 23.3334 16.8621 23.3334 15.9416C23.3334 15.4814 22.9603 15.1083 22.5 15.1083C22.0398 15.1083 21.6667 15.4814 21.6667 15.9416C21.6678 17.4607 22.6959 18.7869 24.1667 19.1666V20.125C24.1667 20.5852 24.5398 20.9583 25 20.9583C25.4603 20.9583 25.8334 20.5852 25.8334 20.125V19.1666C27.4238 18.7197 28.447 17.1752 28.2382 15.5364C28.0294 13.8976 26.6518 12.6589 25 12.625C24.0795 12.625 23.3334 11.8788 23.3334 10.9583C23.3334 10.0378 24.0795 9.29165 25 9.29165C25.9205 9.29165 26.6667 10.0378 26.6667 10.9583C26.6667 11.4186 27.0398 11.7916 27.5 11.7916C27.9603 11.7916 28.3334 11.4186 28.3334 10.9583C28.3284 9.44235 27.3012 8.12064 25.8334 7.74165V6.77498C25.8334 6.31475 25.4603 5.94165 25 5.94165C24.5398 5.94165 24.1667 6.31475 24.1667 6.77498V7.72498C22.5617 8.16069 21.5234 9.71279 21.7333 11.3626C21.9432 13.0124 23.337 14.255 25 14.275C25.9205 14.275 26.6667 15.0212 26.6667 15.9416C26.6667 16.8621 25.9205 17.6083 25 17.6083Z" fill="white"/>
<path d="M15.4167 35.9417C16.107 35.9417 16.6667 35.382 16.6667 34.6917V29.6917C16.6667 29.0013 16.107 28.4417 15.4167 28.4417H7.91669C7.22633 28.4417 6.66669 29.0013 6.66669 29.6917V34.6917C6.66669 35.382 7.22633 35.9417 7.91669 35.9417H15.4167ZM8.33335 30.1083H15V34.275H8.33335V30.1083Z" fill="white"/>
<path d="M28.75 39.275C29.4403 39.275 30 38.7153 30 38.025V29.6917C30 29.0013 29.4403 28.4417 28.75 28.4417H21.25C20.5596 28.4417 20 29.0013 20 29.6917V38.025C20 38.7153 20.5596 39.275 21.25 39.275H28.75ZM21.6667 30.1083H28.3333V37.6083H21.6667V30.1083Z" fill="white"/>
<path d="M42.0833 28.4417H34.5833C33.893 28.4417 33.3333 29.0013 33.3333 29.6917V40.9417H32.5917C32.1033 40.9471 31.6628 41.2365 31.464 41.6826C31.2651 42.1287 31.3443 42.6498 31.6667 43.0167L37.4083 49.475C37.6455 49.7412 37.9851 49.8935 38.3417 49.8935C38.6982 49.8935 39.0378 49.7412 39.275 49.475L45 43.0167C45.3233 42.6486 45.4019 42.1256 45.2009 41.6789C45 41.2321 44.5565 40.9439 44.0667 40.9417H43.3333V29.6917C43.3333 29.0013 42.7737 28.4417 42.0833 28.4417ZM38.3333 48.0167L33.525 42.6083H33.75C34.4403 42.6083 35 42.0487 35 41.3583V30.1083H41.6667V41.3583C41.6667 42.0487 42.2263 42.6083 42.9167 42.6083H43.1417L38.3333 48.0167Z" fill="white"/>
</svg>
