<svg width="50" height="50" viewBox="0 0 50 50" fill="none" xmlns="http://www.w3.org/2000/svg">
<g clip-path="url(#clip0)">
<path d="M12.4999 50.0004C15.7377 49.9743 18.9516 49.4435 22.0258 48.427C25.3437 47.354 28.4947 45.8207 31.3866 43.872C33.8673 42.2232 36.1307 40.2686 38.1233 38.0545C38.2119 37.9536 38.2753 37.8331 38.3083 37.7029C38.9976 34.9405 39.5262 32.1405 39.8916 29.317C40.4643 29.9701 40.7966 30.7992 40.8333 31.667C40.8333 31.97 40.9977 32.249 41.2626 32.3959C41.5276 32.5428 41.8514 32.5343 42.1083 32.3737C42.3983 32.192 49.1316 27.8029 46.6983 14.2854C48.7142 10.0769 49.8382 5.49722 49.9999 0.833698C50.0001 0.513245 49.8164 0.221111 49.5276 0.0822983C49.2388 -0.0565186 48.8959 -0.0174179 48.6458 0.182865L44.4791 3.5162C44.3368 3.63017 44.2358 3.78766 44.1916 3.96453C43.604 6.14514 42.8145 8.26625 41.8333 10.3004C41.276 10.214 40.713 10.1697 40.1491 10.1679C37.4475 10.265 34.7779 10.7852 32.2374 11.7095C31.8495 11.8384 31.6123 12.2297 31.6775 12.6333C31.7427 13.0369 32.0911 13.3336 32.4999 13.3337C33.6122 13.4268 34.6084 14.0588 35.1666 15.0254C32.5959 14.2122 29.8366 14.2148 27.2674 15.0329C27.1761 15.0589 27.0898 15.1003 27.0124 15.1554C23.1518 17.9764 19.4975 21.0696 16.0774 24.4112C15.8392 24.6495 15.7679 25.0079 15.8969 25.3192C16.0258 25.6306 16.3296 25.8336 16.6666 25.8337C18.3027 25.892 19.9066 26.3049 21.3674 27.0437C19.0116 26.8287 15.7841 26.9104 13.6674 28.5004C11.0999 30.4262 7.95994 33.8462 4.33411 38.667C2.61876 41.0577 1.18457 43.638 0.0599403 46.357C-0.080349 46.7069 0.0317421 47.1074 0.333275 47.3337C0.478275 47.4429 3.98661 50.0004 12.4999 50.0004V50.0004ZM45.7358 4.64537L48.2183 2.6587C47.8428 6.52735 46.7812 10.2982 45.0833 13.7945C42.1916 19.5837 30.3933 33.2562 19.7949 38.2129C25.5708 34.092 36.2949 25.1029 43.2458 11.2062C44.278 9.10146 45.1117 6.905 45.7358 4.64537ZM5.66661 39.667C6.87994 38.0537 8.02994 36.617 9.12077 35.3337C11.5679 34.5886 14.1087 34.1958 16.6666 34.167C17.1268 34.167 17.4999 33.7939 17.4999 33.3337C17.4999 32.8735 17.1268 32.5004 16.6666 32.5004C14.798 32.5127 12.9356 32.718 11.1091 33.1129C12.2024 31.9235 13.3923 30.8267 14.6666 29.8337C17.6391 27.6029 23.9016 29.127 23.9649 29.142C24.307 29.2273 24.6658 29.088 24.8607 28.7942C25.0557 28.5005 25.0447 28.1158 24.8333 27.8337C23.2412 25.9246 20.9906 24.6824 18.5266 24.3529C21.483 21.5836 24.6022 18.9935 27.8674 16.5962C33.1024 15.1529 36.0458 17.2462 36.1666 17.3337C36.4435 17.5415 36.82 17.5565 37.1125 17.3713C37.405 17.1862 37.5526 16.8395 37.4833 16.5004C37.2394 14.9386 36.396 13.5335 35.1324 12.5837C37.0385 12.0232 39.0244 11.7832 41.0091 11.8737C35.5912 21.7661 28.0083 30.3065 18.8266 36.857C18.1148 37.3469 17.908 38.3066 18.3549 39.0462C18.7837 39.8059 19.73 40.1003 20.5141 39.7179C30.6808 34.9612 41.1849 23.2029 45.3608 16.647C46.2824 24.5304 43.7299 28.4937 42.2249 30.0837C41.6973 28.7615 40.7951 27.6221 39.6291 26.8054C39.3731 26.6346 39.0439 26.6188 38.7727 26.7642C38.5016 26.9096 38.3326 27.1927 38.3333 27.5004C38.3333 30.3779 37.0124 35.9762 36.7399 37.1004C36.0077 37.9094 35.235 38.681 34.4249 39.412C34.7961 37.9705 34.9892 36.4889 34.9999 35.0004C34.9999 34.5401 34.6268 34.167 34.1666 34.167C33.7064 34.167 33.3333 34.5401 33.3333 35.0004C33.2974 37.1769 32.8683 39.329 32.0666 41.3529C29.905 42.9826 27.5666 44.3635 25.0958 45.4695C25.398 44.8499 25.637 44.2013 25.8091 43.5337C25.9196 43.0868 25.6468 42.635 25.1999 42.5245C24.753 42.4141 24.3012 42.6868 24.1908 43.1337C23.8506 44.3293 23.3123 45.4594 22.5983 46.477C19.3628 47.6678 15.9474 48.2957 12.4999 48.3337C6.43577 48.3337 3.10994 46.9654 1.88577 46.3237C2.90746 43.9775 4.17481 41.7462 5.66661 39.667Z" fill="white"/>
</g>
<defs>
<clipPath id="clip0">
<rect width="50" height="50" fill="white"/>
</clipPath>
</defs>
</svg>
