<svg width="50" height="52" viewBox="0 0 50 52" fill="none" xmlns="http://www.w3.org/2000/svg">
<g clip-path="url(#clip0)">
<path d="M36.7188 9.76123H13.2812C12.4723 9.76123 11.8164 10.4205 11.8164 11.2337V23.21C11.8164 24.0232 12.4723 24.6825 13.2812 24.6825H36.7188C37.5277 24.6825 38.1836 24.0232 38.1836 23.21V11.2337C38.1836 10.4205 37.5277 9.76123 36.7188 9.76123ZM35.2539 21.7375H14.7461V12.7062H35.2539V21.7375Z" fill="#C62929"/>
<path d="M16.2109 27.6274C15.402 27.6274 14.7461 28.2867 14.7461 29.0999V34.9899C14.7461 35.8031 15.402 36.4624 16.2109 36.4624C17.0199 36.4624 17.6758 35.8031 17.6758 34.9899V29.0999C17.6758 28.2867 17.0199 27.6274 16.2109 27.6274Z" fill="#C62929"/>
<path d="M25 27.6274C24.191 27.6274 23.5352 28.2867 23.5352 29.0999V34.9899C23.5352 35.8031 24.191 36.4624 25 36.4624C25.809 36.4624 26.4648 35.8031 26.4648 34.9899V29.0999C26.4648 28.2867 25.809 27.6274 25 27.6274Z" fill="#C62929"/>
<path d="M33.7891 27.6274C32.9801 27.6274 32.3242 28.2867 32.3242 29.0999V34.9899C32.3242 35.8031 32.9801 36.4624 33.7891 36.4624C34.598 36.4624 35.2539 35.8031 35.2539 34.9899V29.0999C35.2539 28.2867 34.598 27.6274 33.7891 27.6274Z" fill="#C62929"/>
<path d="M45.5078 15.8475H44.043V5.34374C44.043 4.72863 43.6626 4.17831 43.0892 3.96372C42.7577 3.83974 34.8586 0.92627 25 0.92627C15.1414 0.92627 7.24228 3.83974 6.91084 3.96372C6.3374 4.17831 5.95703 4.72863 5.95703 5.34374V15.8475H4.49219C3.6832 15.8475 3.02734 16.5068 3.02734 17.32C3.02734 18.1332 3.6832 18.7925 4.49219 18.7925H5.95703V32.0449C5.95703 42.6 14.4997 51.1873 25 51.1873C35.5003 51.1873 44.043 42.6 44.043 32.0449V18.7925H45.5078C46.3168 18.7925 46.9727 18.1332 46.9727 17.32C46.9727 16.5068 46.3168 15.8475 45.5078 15.8475ZM41.1133 32.0449C41.1133 40.9761 33.8849 48.2423 25 48.2423C16.1151 48.2423 8.88672 40.9761 8.88672 32.0449V6.40236C11.2271 5.6562 17.5998 3.87125 25 3.87125C32.4002 3.87125 38.7729 5.6562 41.1133 6.40236V32.0449Z" fill="#C62929"/>
</g>
<defs>
<clipPath id="clip0">
<rect width="50" height="50.261" fill="white" transform="translate(0 0.92627)"/>
</clipPath>
</defs>
</svg>
