<svg width="50" height="50" viewBox="0 0 50 50" fill="none" xmlns="http://www.w3.org/2000/svg">
<g clip-path="url(#clip0)">
<path d="M31.9487 0.270115C31.552 -0.0900382 30.9478 -0.0900382 30.551 0.270115C30.0977 0.6789 19.7221 10.1618 14.9039 21.1526C14.3846 20.9703 13.7867 20.8337 13.0138 20.8337C11.1899 20.8337 10.2113 21.5142 9.42493 22.0615C8.73832 22.5396 8.19614 22.917 7.02525 22.917C5.85641 22.917 5.31423 22.5395 4.62859 22.0625C3.84325 21.5152 2.86464 20.8337 1.04181 20.8337C0.466035 20.8337 0.00012207 21.2996 0.00012207 21.8754C0.00012207 22.4511 0.466035 22.9171 1.04181 22.9171C2.21065 22.9171 2.75283 23.2945 3.43847 23.7715C4.22381 24.3188 5.20241 25.0003 7.02525 25.0003C8.84916 25.0003 9.82874 24.3188 10.6151 23.7715C11.3017 23.2945 11.8439 22.9171 13.0138 22.9171C14.1856 22.9171 14.7289 23.2945 15.4165 23.7725C16.2028 24.3198 17.1824 25.0003 19.0074 25.0003C20.8313 25.0003 21.8108 24.3198 22.5982 23.7725C23.2849 23.2944 23.8281 22.9171 25 22.9171C25.5757 22.9171 26.0417 22.4511 26.0417 21.8754C26.0417 21.2996 25.5757 20.8337 25 20.8337C23.1751 20.8337 22.1954 21.5142 21.4081 22.0615C20.7215 22.5396 20.1782 22.917 19.0075 22.917C17.9129 22.917 17.3646 22.5831 16.7378 22.15C20.6558 13.1011 28.8139 4.81948 31.25 2.47341C34.494 5.59936 47.9165 19.2569 47.9165 31.2502C47.9165 40.4399 40.4398 47.9167 31.25 47.9167C27.1019 47.9167 23.1769 46.3716 20.1388 43.6435C21.2659 43.4347 21.9937 42.9426 22.5983 42.5222C23.285 42.0441 23.8282 41.6668 25.0001 41.6668C25.5758 41.6668 26.0418 41.2009 26.0418 40.6251C26.0418 40.0493 25.5758 39.5834 25.0001 39.5834C23.1752 39.5834 22.1955 40.264 21.4082 40.8112C20.7216 41.2893 20.1783 41.6667 19.0076 41.6667C17.8357 41.6667 17.2924 41.2892 16.6058 40.8112C15.8184 40.264 14.8388 39.5834 13.014 39.5834C11.1901 39.5834 10.2114 40.264 9.42513 40.8112C8.73851 41.2893 8.19633 41.6667 7.02544 41.6667C5.85661 41.6667 5.31443 41.2892 4.62879 40.8122C3.84344 40.2649 2.86484 39.5834 1.04201 39.5834C0.466231 39.5834 0.000317381 40.0493 0.000317381 40.6251C0.000317381 41.2009 0.466231 41.6668 1.04201 41.6668C2.21084 41.6668 2.75302 42.0442 3.43866 42.5213C4.22401 43.0685 5.20261 43.7501 7.02544 43.7501C8.84935 43.7501 9.82893 43.0685 10.6153 42.5213C11.3019 42.0442 11.844 41.6668 13.014 41.6668C14.1858 41.6668 14.7291 42.0442 15.4167 42.5222C15.841 42.8175 16.336 43.1428 16.9753 43.388C20.5495 47.5867 25.7306 50 31.25 50C41.5883 50 49.9998 41.5885 49.9998 31.2502C49.9997 16.7617 32.6852 0.936417 31.9487 0.270115Z" fill="white"/>
<path d="M1.04181 35.4169C2.21065 35.4169 2.75283 35.7943 3.43847 36.2714C4.22381 36.8186 5.20242 37.5002 7.02525 37.5002C7.60102 37.5002 8.06694 37.0342 8.06694 36.4585C8.06694 35.8827 7.60102 35.4168 7.02525 35.4168C5.85641 35.4168 5.31423 35.0393 4.62859 34.5623C3.84325 34.015 2.86465 33.3335 1.04181 33.3335C0.466035 33.3335 0.00012207 33.7994 0.00012207 34.3752C0.00012207 34.951 0.466035 35.4169 1.04181 35.4169Z" fill="white"/>
<path d="M13.0137 33.3336C12.438 33.3336 11.972 33.7995 11.972 34.3752C11.972 34.951 12.438 35.4169 13.0137 35.4169C14.1856 35.4169 14.7289 35.7944 15.4155 36.2724C16.2029 36.8197 17.1824 37.5002 19.0073 37.5002C20.8312 37.5002 21.8108 36.8197 22.5982 36.2724C23.2848 35.7943 23.8281 35.4169 24.9999 35.4169C26.1911 35.4169 26.7974 35.8045 27.5634 36.2949C28.4474 36.8594 29.4494 37.5003 31.2499 37.5003C31.8257 37.5003 32.2916 37.0344 32.2916 36.4586C32.2916 35.8828 31.8257 35.4169 31.2499 35.4169C30.0587 35.4169 29.4524 35.0293 28.6864 34.539C27.8025 33.9745 26.8004 33.3336 24.9999 33.3336C23.1751 33.3336 22.1954 34.0141 21.4081 34.5614C20.7215 35.0395 20.1782 35.4168 19.0074 35.4168C17.8356 35.4168 17.2923 35.0394 16.6047 34.5614C15.8183 34.014 14.8387 33.3336 13.0137 33.3336Z" fill="white"/>
<path d="M13.0138 27.0836C11.1899 27.0836 10.2113 27.7642 9.42493 28.3114C8.73832 28.7896 8.19614 29.1669 7.02525 29.1669C5.85641 29.1669 5.31423 28.7895 4.62859 28.3124C3.84325 27.7652 2.86465 27.0836 1.04181 27.0836C0.466035 27.0836 0.00012207 27.5495 0.00012207 28.1253C0.00012207 28.7011 0.466035 29.167 1.04181 29.167C2.21065 29.167 2.75283 29.5444 3.43847 30.0215C4.22381 30.5687 5.20242 31.2503 7.02525 31.2503C8.84916 31.2503 9.82874 30.5687 10.6151 30.0215C11.3017 29.5444 11.8439 29.167 13.0138 29.167C13.5895 29.167 14.0555 28.7011 14.0555 28.1253C14.0555 27.5494 13.5895 27.0836 13.0138 27.0836Z" fill="white"/>
<path d="M22.5982 30.0223C23.2848 29.5442 23.828 29.1669 24.9999 29.1669C26.1687 29.1669 26.7109 29.5443 27.3966 30.0214C28.1819 30.5686 29.1605 31.2502 30.9833 31.2502C32.8072 31.2502 33.7868 30.5686 34.5731 30.0214C35.2598 29.5443 35.8019 29.1669 36.9718 29.1669C37.5476 29.1669 38.0135 28.701 38.0135 28.1252C38.0135 27.5494 37.5476 27.0835 36.9718 27.0835C35.1479 27.0835 34.1693 27.7641 33.383 28.3113C32.6964 28.7894 32.1542 29.1668 30.9833 29.1668C29.8145 29.1668 29.2723 28.7893 28.5867 28.3123C27.8013 27.765 26.8227 27.0835 24.9999 27.0835C23.175 27.0835 22.1953 27.7641 21.408 28.3113C20.7214 28.7894 20.1782 29.1668 19.0074 29.1668C18.4316 29.1668 17.9657 29.6327 17.9657 30.2085C17.9657 30.7842 18.4316 31.2502 19.0074 31.2502C20.8312 31.2502 21.8108 30.5696 22.5982 30.0223Z" fill="white"/>
</g>
<defs>
<clipPath id="clip0">
<rect width="50" height="50" fill="white"/>
</clipPath>
</defs>
</svg>
