<svg width="35" height="35" viewBox="0 0 35 35" fill="none" xmlns="http://www.w3.org/2000/svg">
<path d="M20.8329 0H14.1663C7.18374 0 1.50293 5.67948 1.50293 12.6607V18.6661C1.50293 23.865 4.69759 28.5374 9.50125 30.4403V34.3335C9.50125 34.5974 9.65655 34.836 9.89784 34.9427C9.98449 34.9813 10.0765 35 10.1678 35C10.3297 35 10.4904 34.9407 10.615 34.8274L14.4802 31.3268H20.8329C27.8154 31.3268 33.4962 25.6473 33.4962 18.6661V12.6607C33.4962 5.67948 27.8154 0 20.8329 0ZM32.1632 18.6661C32.1632 24.9121 27.0809 29.9937 20.8329 29.9937H14.2229C14.0576 29.9937 13.8983 30.055 13.7757 30.1663L10.8343 32.8305V29.9784C10.8343 29.6958 10.6563 29.4438 10.3897 29.3505C5.87201 27.7528 2.83598 23.4591 2.83598 18.6661V12.6607C2.83598 6.41466 7.91892 1.33305 14.1663 1.33305H20.8329C27.0809 1.33305 32.1632 6.41466 32.1632 12.6607V18.6661Z" fill="#C62929"/>
<path d="M26.3089 20.3244L22.2124 17.6636C21.7645 17.3724 21.2313 17.2737 20.7094 17.3817C20.1869 17.4917 19.7376 17.8003 19.4464 18.2502L19.2537 18.5461C17.4808 17.9602 15.5258 17.2117 14.3554 13.8238L14.84 13.4025C15.6718 12.6794 15.7591 11.4143 15.036 10.5811L11.8313 6.89457C11.59 6.61663 11.1688 6.58796 10.8908 6.82858L8.87857 8.57755C7.11361 10.1119 7.9381 12.3814 8.20938 13.1273C8.22138 13.1606 8.23604 13.1926 8.25337 13.2239C8.32336 13.3492 9.99434 16.3313 12.6931 19.08C15.4025 21.8401 20.2942 24.3889 20.4442 24.4629C21.0027 24.8255 21.6312 24.9994 22.2531 24.9994C23.3449 24.9994 24.4153 24.4642 25.0539 23.4831L26.5055 21.2476C26.7055 20.9376 26.6175 20.525 26.3089 20.3244ZM23.9354 22.7566C23.3349 23.6817 22.0938 23.9443 21.114 23.3125C21.0654 23.2871 16.2057 20.7563 13.6442 18.1469C11.2501 15.7081 9.66041 12.9986 9.44379 12.6207C8.9159 11.1403 9.00921 10.2305 9.75306 9.584L11.2627 8.27228L14.0302 11.4556C14.2761 11.7382 14.2474 12.1515 13.9662 12.3961L13.1483 13.1066C12.9491 13.2799 12.8704 13.5538 12.9484 13.8058C14.3428 18.3368 17.0542 19.2267 19.0338 19.8765L19.3224 19.9718C19.611 20.0691 19.9269 19.9578 20.0922 19.7032L20.5648 18.9754C20.6621 18.8247 20.8114 18.7228 20.9847 18.6861C21.1587 18.6488 21.336 18.6834 21.4866 18.7814L25.0245 21.0789L23.9354 22.7566Z" fill="#C62929"/>
<path d="M19.0213 10.8291C18.6667 10.7271 18.2981 10.933 18.1975 11.2876C18.0968 11.6416 18.3021 12.0102 18.656 12.1108C19.6492 12.3934 20.4403 13.1859 20.7203 14.1797C20.8029 14.473 21.0702 14.6656 21.3615 14.6656C21.4214 14.6656 21.4821 14.6576 21.5428 14.6409C21.8967 14.541 22.1033 14.173 22.0033 13.8184C21.5987 12.3827 20.4556 11.237 19.0213 10.8291Z" fill="#C62929"/>
<path d="M24.094 14.8096C24.154 14.8096 24.2147 14.8016 24.2753 14.7849C24.6299 14.6849 24.8359 14.3163 24.7359 13.9624C23.9494 11.1743 21.7305 8.95079 18.9444 8.15762C18.5905 8.05564 18.2219 8.26293 18.1213 8.61686C18.0206 8.97079 18.2259 9.33938 18.5799 9.44002C20.924 10.1065 22.791 11.9788 23.4528 14.3243C23.5361 14.6176 23.8028 14.8096 24.094 14.8096Z" fill="#C62929"/>
<path d="M18.657 5.05361C18.3024 4.95163 17.9338 5.15759 17.8332 5.51285C17.7326 5.86677 17.9378 6.23536 18.2918 6.33601C22.2636 7.46577 25.4276 10.6371 26.5487 14.6116C26.6314 14.9049 26.8986 15.0975 27.1899 15.0975C27.2499 15.0975 27.3105 15.0895 27.3712 15.0728C27.7251 14.9729 27.9318 14.6043 27.8318 14.2504C26.586 9.83328 23.0708 6.31001 18.657 5.05361Z" fill="#C62929"/>
</svg>
