<svg width="35" height="35" viewBox="0 0 35 35" fill="none" xmlns="http://www.w3.org/2000/svg">
<g clip-path="url(#clip0)">
<path d="M26.3365 8.33431L11.9421 17.1998C11.1275 17.7027 10.7421 18.6959 11.0045 19.6145L12.5609 25.0833C12.6939 25.5495 13.1088 25.8595 13.5862 25.8595C13.6128 25.8595 13.6397 25.8585 13.6666 25.8565C14.177 25.8195 14.5808 25.4393 14.6487 24.9327L15.0534 21.934C15.108 21.5305 15.3024 21.1553 15.6004 20.8778L27.4788 9.83617C27.8378 9.50333 27.8852 8.9583 27.5894 8.56845C27.2931 8.17825 26.7548 8.07735 26.3365 8.33431ZM14.6506 19.8569C14.1168 20.3537 13.7691 21.0251 13.6715 21.7474L13.4752 23.2019L12.3454 19.2322C12.2536 18.9106 12.3888 18.5629 12.6739 18.3869L23.2189 11.8923L14.6506 19.8569Z" fill="#C62929"/>
<path d="M34.4306 2.5554C33.9809 2.17423 33.3603 2.0693 32.8106 2.28162L1.03088 14.5413C0.401494 14.7841 -0.0031939 15.3767 1.89913e-05 16.051C0.00330024 16.726 0.413935 17.3154 1.04701 17.5526L8.47016 20.3231L11.3658 29.6354C11.5248 30.1473 11.9261 30.5451 12.4392 30.6994C12.9521 30.8537 13.5059 30.7434 13.9199 30.4048L18.2361 26.8861C18.4434 26.7172 18.7394 26.7088 18.9558 26.866L26.7408 32.518C27.0208 32.7216 27.3514 32.8264 27.6857 32.8264C27.8816 32.8264 28.0787 32.7904 28.2679 32.7173C28.7797 32.5194 29.1518 32.0807 29.2632 31.544L34.9664 4.11078C35.0862 3.53315 34.8809 2.93719 34.4306 2.5554ZM33.6011 3.82744L27.898 31.2606C27.8774 31.3597 27.806 31.4009 27.7653 31.4167C27.7243 31.4326 27.6433 31.4502 27.5604 31.3899L19.7752 25.7376C19.4271 25.4849 19.0179 25.3595 18.6095 25.3595C18.1639 25.3595 17.719 25.5088 17.3553 25.8051L13.0381 29.3246C12.9613 29.3875 12.8815 29.3763 12.8409 29.364C12.8 29.3517 12.7271 29.3169 12.6974 29.2214L9.70021 19.5824C9.63616 19.3764 9.4803 19.2116 9.27823 19.1362L1.53551 16.2464C1.41957 16.203 1.39489 16.1126 1.39455 16.0443C1.39421 15.9766 1.418 15.8866 1.53284 15.8423L33.3126 3.58264C33.3128 3.58257 33.313 3.5825 33.3132 3.58244C33.4164 3.54258 33.4928 3.58838 33.5291 3.61914C33.5656 3.65025 33.6237 3.71861 33.6011 3.82744Z" fill="#C62929"/>
<path d="M29.2217 17.2363C28.8454 17.1545 28.4742 17.3934 28.3925 17.7698L28.2865 18.2578C28.2048 18.6342 28.4437 19.0054 28.82 19.0871C28.8698 19.0979 28.9195 19.1031 28.9686 19.1031C29.2896 19.1031 29.5784 18.8801 29.6493 18.5537L29.7553 18.0656C29.8369 17.6893 29.598 17.318 29.2217 17.2363Z" fill="#C62929"/>
<path d="M28.5252 20.4478C28.1484 20.3661 27.7774 20.605 27.6958 20.9813L26.0922 28.3676C26.0105 28.7439 26.2493 29.1152 26.6256 29.1969C26.6755 29.2077 26.7252 29.2129 26.7742 29.2129C27.0952 29.2129 27.384 28.9899 27.4549 28.6635L29.0586 21.2771C29.1403 20.9008 28.9014 20.5295 28.5252 20.4478Z" fill="#C62929"/>
</g>
<defs>
<clipPath id="clip0">
<rect width="35" height="35" fill="white"/>
</clipPath>
</defs>
</svg>
