<svg width="35" height="35" viewBox="0 0 35 35" fill="none" xmlns="http://www.w3.org/2000/svg">
<path d="M23.1744 23.0175L23.0096 23.2761L23.3127 23.3226C25.0741 23.5933 27.437 24.1296 29.3539 25.0351C31.2868 25.9482 32.6809 27.1936 32.6809 28.8477C32.6809 29.7918 32.2192 30.6344 31.3833 31.3761C30.545 32.1199 29.3412 32.7511 27.8932 33.2612C24.9984 34.281 21.1771 34.8 17.5 34.8C13.567 34.8 9.86354 34.2474 7.0715 33.2503C5.07204 32.5362 3.88398 31.7283 3.197 30.9564C2.51368 30.1886 2.31914 29.4489 2.31914 28.8477C2.31914 27.194 3.71484 25.9483 5.64869 25.035C7.56655 24.1292 9.92943 23.5928 11.6872 23.3227L11.9902 23.2761L11.8254 23.0175L8.52149 17.8332L8.52178 17.833L8.51495 17.8235C7.13943 15.9196 6.4207 13.6508 6.4207 11.3477C6.4207 5.22461 11.4019 0.2 17.5 0.2C23.6181 0.2 28.5793 5.23437 28.5793 11.3477C28.5793 13.6525 27.8755 15.8631 26.5435 17.7418L26.5431 17.7423C26.5299 17.761 26.5249 17.7673 26.5199 17.7737C26.4833 17.8209 26.4529 17.873 23.1744 23.0175ZM25.2031 16.778L25.2032 16.7781L25.2071 16.7726C26.3333 15.1779 26.9285 13.302 26.9285 11.3477C26.9285 6.11226 22.7004 1.85078 17.5 1.85078C12.2888 1.85078 8.07148 6.11053 8.07148 11.3477C8.07148 13.299 8.67804 15.2403 9.86865 16.8783C9.87868 16.8921 9.88823 16.9061 9.89736 16.9204L17.3313 28.5852L17.5 28.8499L17.6687 28.5852C19.6555 25.4676 21.1143 23.1781 22.1864 21.4954C23.2621 19.8071 23.9486 18.7297 24.3886 18.0398C25.1635 16.8247 25.1723 16.8146 25.1922 16.7915C25.1949 16.7883 25.1979 16.7849 25.2031 16.778ZM13.0372 24.9188L12.9693 24.8122L12.8438 24.8278C9.8317 25.2025 7.63334 25.8717 6.18172 26.6017C5.45638 26.9664 4.91068 27.3497 4.54332 27.7247C4.17988 28.0958 3.96992 28.4812 3.96992 28.8477C3.96992 29.3796 4.36728 29.9042 4.9983 30.3785C5.64006 30.8609 6.57091 31.3278 7.74446 31.7363C10.0937 32.5541 13.449 33.1492 17.5 33.1492C21.5747 33.1492 24.9302 32.5504 27.2736 31.7307C28.4443 31.3212 29.3707 30.8538 30.0087 30.3721C30.636 29.8984 31.0301 29.3756 31.0301 28.8477C31.0301 28.4812 30.8201 28.0958 30.4567 27.7247C30.0893 27.3497 29.5436 26.9664 28.8182 26.6017C27.3666 25.8717 25.1682 25.2025 22.156 24.8278L22.0305 24.8122L21.9626 24.9188L18.1959 30.8294L18.1959 30.8294C18.0445 31.0671 17.782 31.2111 17.4999 31.2111C17.2179 31.2111 16.9555 31.0672 16.8039 30.8294L16.6353 30.9369L16.8039 30.8294L13.0372 24.9188Z" fill="#C62929" stroke="white" stroke-width="0.4"/>
<path d="M12.573 11.3477C12.573 8.63111 14.7835 6.4207 17.5 6.4207C20.2165 6.4207 22.427 8.63111 22.427 11.3477C22.427 14.0642 20.2165 16.2746 17.5 16.2746C14.7835 16.2746 12.573 14.0642 12.573 11.3477ZM14.2238 11.3477C14.2238 13.1543 15.6933 14.6238 17.5 14.6238C19.3067 14.6238 20.7762 13.1543 20.7762 11.3477C20.7762 9.541 19.3067 8.07148 17.5 8.07148C15.6933 8.07148 14.2238 9.541 14.2238 11.3477Z" fill="#C62929" stroke="white" stroke-width="0.4"/>
</svg>
