<svg width="66" height="66" viewBox="0 0 66 66" fill="none" xmlns="http://www.w3.org/2000/svg">
<rect y="56" width="66" height="10" fill="#C62929"/>
<path d="M40.0137 13.5437C41.5335 13.5437 42.7698 12.3074 42.7698 10.7876C42.7698 9.26784 41.5335 8.03149 40.0137 8.03149C38.4939 8.03149 37.2576 9.26784 37.2576 10.7876C37.2576 12.3074 38.4939 13.5437 40.0137 13.5437ZM40.0137 9.50015C40.7236 9.50015 41.3011 10.0777 41.3011 10.7876C41.3011 11.4975 40.7236 12.0751 40.0137 12.0751C39.3038 12.0751 38.7262 11.4975 38.7262 10.7876C38.7262 10.0777 39.3038 9.50015 40.0137 9.50015Z" fill="#C62929"/>
<path d="M55.7024 11.4857L33.3132 0.0789641C33.3075 0.0759123 33.3018 0.0743865 33.2965 0.0717162C33.2812 0.0644682 33.2663 0.0579833 33.2511 0.0522612C33.237 0.0465392 33.2232 0.0411986 33.2091 0.036621C33.1935 0.0312804 33.1778 0.0270843 33.1618 0.0228881C33.1477 0.0194549 33.1332 0.0156402 33.1191 0.0129699C33.1027 0.00991814 33.0867 0.00762938 33.0706 0.00572204C33.0561 0.00381469 33.0416 0.00190734 33.0271 0.00114441C33.0107 0 32.9943 0 32.9783 0C32.9634 0 32.9489 0 32.9341 0.00114441C32.918 0.00190734 32.9024 0.00381469 32.8864 0.0061035C32.8715 0.00801084 32.8566 0.00991814 32.8418 0.0125885C32.8265 0.0156402 32.8112 0.0194549 32.7956 0.0236511C32.7807 0.0274658 32.7658 0.0312804 32.751 0.0362396C32.7365 0.0411986 32.722 0.0465392 32.7075 0.0526427C32.6926 0.0583647 32.6777 0.0644682 32.6632 0.0717162C32.6579 0.0743865 32.6518 0.0759123 32.6464 0.0789641L10.2569 11.4857C10.0108 11.6108 9.85596 11.8637 9.85596 12.1399V37.8589C9.85596 37.8921 9.85863 37.9253 9.86282 37.9577C9.86435 37.9688 9.8674 37.9794 9.86931 37.9901C9.87312 38.0115 9.87694 38.0325 9.88266 38.0531C9.88609 38.0656 9.89105 38.0779 9.89487 38.0901C9.90097 38.1084 9.90707 38.1267 9.91432 38.1442C9.91966 38.1568 9.92615 38.169 9.93225 38.1816C9.94064 38.198 9.94865 38.2144 9.95781 38.2304C9.96506 38.2426 9.97307 38.2541 9.9807 38.2659C9.991 38.2808 10.0009 38.2957 10.012 38.3098C10.0208 38.3212 10.0303 38.3323 10.0398 38.343C10.0517 38.3563 10.0639 38.3693 10.0764 38.3819C10.0871 38.3922 10.0978 38.4021 10.1089 38.4116C10.1226 38.4235 10.1363 38.4345 10.1508 38.4456C10.1627 38.4544 10.1749 38.4628 10.1871 38.4711C10.1939 38.4753 10.2 38.4807 10.2069 38.4849C10.2149 38.4898 10.2241 38.4937 10.2325 38.4986C10.2409 38.5032 10.2485 38.5089 10.2573 38.5131L32.643 49.9179C32.6926 49.9438 32.7445 49.9633 32.7979 49.977C32.7983 49.9774 32.7986 49.977 32.799 49.9774C32.7998 49.9774 32.8002 49.9778 32.8006 49.9778C32.8486 49.99 32.8974 49.9968 32.9467 49.9991H32.9482H32.9497C32.9501 49.9995 32.9505 49.9995 32.9509 49.9995C32.9608 49.9999 32.9703 49.9999 32.9798 49.9999C33.055 49.9999 33.1298 49.9885 33.2022 49.9656C33.203 49.9652 33.203 49.9652 33.2038 49.9652C33.2041 49.9648 33.2045 49.9648 33.2049 49.9648C33.2431 49.9526 33.2801 49.937 33.3163 49.9183L43.4497 44.7557C43.8113 44.5715 42.4133 45.0465 42.229 44.6853C42.0451 44.3236 42.8371 43.4196 42.4762 43.6035L38.4429 45.6584L34.5843 43.6721L38.6942 41.5565L42.5662 43.5577L42.2915 43.6977C41.9302 43.8815 41.7864 44.3236 41.9707 44.6853C42.1546 45.0465 42.5974 45.1903 42.9583 45.0061L55.7024 38.5131C55.7112 38.5089 55.7188 38.5032 55.7272 38.4986C55.7356 38.4937 55.7448 38.4902 55.7532 38.4849C55.76 38.4807 55.7657 38.4757 55.7726 38.4711C55.7852 38.4631 55.797 38.4544 55.8089 38.4456C55.8233 38.4349 55.8371 38.4235 55.8508 38.4116C55.8619 38.4021 55.8726 38.3922 55.8829 38.3823C55.8958 38.3697 55.908 38.3563 55.9195 38.343C55.929 38.3323 55.9386 38.3212 55.9473 38.3102C55.9584 38.2957 55.9687 38.2812 55.9786 38.2659C55.9866 38.2545 55.9946 38.2426 56.0019 38.2304C56.011 38.2144 56.019 38.1984 56.0271 38.1816C56.0332 38.1694 56.0396 38.1572 56.045 38.1442C56.0526 38.1267 56.0583 38.1087 56.0644 38.0904C56.0686 38.0779 56.0732 38.0656 56.077 38.0531C56.0824 38.0325 56.0862 38.0115 56.09 37.9905C56.0923 37.9794 56.095 37.9688 56.0965 37.9577C56.1011 37.9253 56.1033 37.8921 56.1033 37.8589V12.1399C56.1033 11.8637 55.9485 11.6108 55.7024 11.4857ZM38.9842 33.8466L34.5854 31.5841L37.9939 29.8309L42.4056 32.0785L38.9842 33.8466ZM44.0165 32.899L48.1806 35.0208L44.7249 36.7995L40.5875 34.6713L44.0165 32.899ZM23.8242 31.9408L27.9654 29.8309L31.3742 31.5841L26.9755 33.8466L23.5541 32.0785L23.8242 31.9408ZM21.9432 32.899L25.3722 34.6713L21.2344 36.7995L17.7791 35.0208L21.9432 32.899ZM26.974 35.4991L31.3803 37.7765L27.2643 39.9036L22.8393 37.6258L26.974 35.4991ZM28.5773 34.6748L32.9798 32.41L37.3824 34.6748L32.9798 36.9498L28.5773 34.6748ZM32.9798 30.7582L29.5787 29.0088L31.6325 27.9628L32.9798 27.2762L34.2791 27.9384L36.3806 29.0088L32.9798 30.7582ZM32.2455 1.93138V15.72L32.1406 15.6036C32.1364 15.599 32.1322 15.5941 32.1276 15.5895C31.5139 14.9429 30.6521 14.6003 29.7602 14.6511C28.8699 14.7018 28.0513 15.139 27.5142 15.8512L25.4603 18.5737L22.8984 16.1396C22.3155 15.5853 21.5217 15.2988 20.7183 15.3534C19.9157 15.4083 19.1672 15.7997 18.6648 16.4276L15.1805 20.7817C14.9268 21.0983 14.9783 21.5602 15.2949 21.8139C15.6116 22.0672 16.0735 22.0161 16.3272 21.6995L19.8115 17.3454C20.0614 17.033 20.4188 16.8461 20.8182 16.819C21.218 16.7915 21.5968 16.9284 21.8867 17.2043L25.0502 20.2102C25.0506 20.2106 25.0514 20.211 25.0518 20.2118L27.7778 22.8023C27.92 22.9373 28.102 23.0041 28.2836 23.0041C28.4777 23.0041 28.6719 22.9278 28.8161 22.7756C29.0953 22.4819 29.0835 22.0169 28.7898 21.7376L26.5319 19.5922L28.6868 16.7354C28.9634 16.3688 29.3849 16.1438 29.8434 16.1174C30.2996 16.093 30.7406 16.2655 31.0565 16.5943L32.2455 17.9138V26.0021L16.2498 34.1514L11.325 36.6607V27.9499L16.1548 21.9238C17.8754 19.746 15.9831 21.7377 15.6665 21.4844C15.3503 21.2307 15.5361 20.3377 15.2824 20.6543L11.325 25.5992V12.59L32.2455 1.93138ZM12.2081 37.8589L16.1662 35.8424L19.6296 37.625L15.7081 39.6419L12.2081 37.8589ZM17.3213 40.4639L21.2344 38.4513L25.6629 40.7313L21.7822 42.7367L17.3213 40.4639ZM23.3935 43.5573L27.2654 41.5565L31.3754 43.6721L27.5172 45.6584L23.3935 43.5573ZM36.8296 46.4801L32.9798 48.4416L29.1297 46.4801L32.9798 44.498L36.8296 46.4801ZM32.9798 42.8462L28.8668 40.7287L32.9798 38.6031L37.0928 40.7287L32.9798 42.8462ZM34.5793 37.7765L38.9857 35.4991L43.1204 37.6258L38.6954 39.9036L34.5793 37.7765ZM44.1771 42.7367L40.2964 40.7313L44.7253 38.4513L48.638 40.4639L44.1771 42.7367ZM50.2512 39.6419L46.3301 37.625L49.7935 35.8424L53.7516 37.8589L50.2512 39.6419ZM54.6347 28.2676L52.1311 25.5123C51.8587 25.212 51.3941 25.1899 51.0939 25.4627C50.7937 25.7354 50.7716 26.1997 51.0443 26.4999L54.6347 30.4519V36.6607L50.0845 34.3425L33.7142 26.0021V19.5438L37.752 24.0249C37.897 24.1859 38.0969 24.2675 38.2975 24.2675C38.473 24.2675 38.6489 24.205 38.7892 24.0787C39.0902 23.8071 39.1146 23.3428 38.843 23.0415L37.229 21.2505L40.1469 17.6597C40.486 17.2424 40.9892 16.9944 41.5267 16.9796C42.0619 16.9635 42.5803 17.1848 42.9423 17.583L51.311 26.7935C51.4556 26.9533 51.5998 26.3184 51.7993 26.3184C51.9756 26.3184 51.805 26.1528 51.9458 26.0254C52.246 25.7526 52.5115 25.931 52.2388 25.6308L44.0291 16.5954C43.3794 15.8798 42.4517 15.4838 41.4862 15.5117C40.5203 15.538 39.6166 15.9836 39.0071 16.7335L36.2342 20.1461L33.7142 17.35V1.93138L54.6347 12.59V28.2676Z" fill="#C62929"/>
</svg>
