<svg width="66" height="66" viewBox="0 0 66 66" fill="none" xmlns="http://www.w3.org/2000/svg">
<rect y="56" width="66" height="10" fill="#C62929"/>
<path d="M56.913 21.7391H55.8261V1.08696C55.8261 0.485628 55.3405 0 54.7391 0C54.1378 0 53.6522 0.485628 53.6522 1.08696V4.34783H49.3043V1.08696C49.3043 0.485628 48.8187 0 48.2174 0C47.6161 0 47.1304 0.485628 47.1304 1.08696V4.34783H42.7826V1.08696C42.7826 0.485628 42.297 0 41.6957 0C41.0943 0 40.6087 0.485628 40.6087 1.08696V4.34783H36.2609V1.08696C36.2609 0.485628 35.7752 0 35.1739 0H9.08696C8.48563 0 8 0.485628 8 1.08696V48.913C8 49.5144 8.48563 50 9.08696 50H56.913C57.5144 50 58 49.5144 58 48.913V22.8261C58 22.2248 57.5144 21.7391 56.913 21.7391ZM49.3043 21.7391V15.2174H53.6522V21.7391H49.3043ZM42.7826 21.7391V15.2174H47.1304V21.7391H42.7826ZM36.2609 21.7391V15.2174H40.6087V21.7391H36.2609ZM53.6522 6.52174V13.0435H49.3043V6.52174H53.6522ZM47.1304 6.52174V13.0435H42.7826V6.52174H47.1304ZM40.6087 6.52174V13.0435H36.2609V6.52174H40.6087ZM34.087 2.17391V22.8261C34.087 23.4274 34.5726 23.913 35.1739 23.913H55.8261V39.1304H10.1739V2.17391H34.087ZM10.1739 47.8261V41.3043H55.8261V47.8261H10.1739Z" fill="#C62929"/>
</svg>
