<svg width="66" height="66" viewBox="0 0 66 66" fill="none" xmlns="http://www.w3.org/2000/svg">
<rect y="56" width="66" height="10" fill="#C62929"/>
<path d="M57.9999 4.39261C57.9999 3.21883 57.5429 2.11524 56.7128 1.28517C54.9992 -0.428389 52.2107 -0.428389 50.4975 1.28517L48.2957 3.48739C46.2571 2.58827 43.974 2.25219 41.755 2.54249C39.0729 2.89306 36.6422 4.09163 34.7253 6.00851L27.82 12.9139C26.5909 14.1426 25.6803 15.5708 25.086 17.0948C23.5128 17.7078 22.1121 18.6222 20.9142 19.8196L14.0085 26.7253C12.0916 28.6422 10.8931 31.0729 10.5425 33.755C10.2522 35.9744 10.5883 38.2571 11.4874 40.2957L9.28517 42.4975C7.57161 44.2111 7.57161 46.9992 9.28517 48.7128C10.1152 49.5429 11.2188 49.9999 12.3926 49.9999C13.5668 49.9999 14.6704 49.5429 15.5001 48.7128L17.7011 46.5117C19.261 47.1995 20.9635 47.5573 22.6717 47.5573C23.1962 47.5573 23.7215 47.5238 24.2429 47.4555C26.925 47.1049 29.3558 45.9063 31.2723 43.9895L38.178 37.0837C39.4067 35.855 40.3177 34.4272 40.912 32.9032C42.4852 32.2902 43.8863 31.3758 45.0837 30.1784L51.9895 23.2726C53.9063 21.3558 55.1049 18.925 55.4555 16.2429C55.7458 14.0236 55.4097 11.7408 54.5106 9.70228L56.7128 7.50044C57.5429 6.67036 57.9999 5.56677 57.9999 4.39261ZM38.178 19.8196C37.351 18.9926 36.4255 18.3013 35.4139 17.7501L40.3684 12.7956C40.3524 12.9486 40.344 13.1035 40.344 13.2591C40.344 14.4333 40.801 15.5368 41.6311 16.3669C42.4611 17.197 43.5647 17.654 44.7385 17.654C44.8945 17.654 45.0494 17.6452 45.2024 17.6296L40.2501 22.5818C39.7073 21.5904 39.0168 20.6584 38.178 19.8196ZM24.3669 33.6311C23.5368 32.801 22.4333 32.3436 21.2591 32.3436C21.1031 32.3436 20.9486 32.3524 20.7956 32.3684L25.7478 27.4162C26.2907 28.4076 26.9811 29.3395 27.8196 30.178C28.647 31.0054 29.5721 31.6966 30.5841 32.2478L25.6265 37.2054C25.7616 35.9302 25.3423 34.6065 24.3669 33.6311ZM29.8913 14.9856L36.7971 8.07989C39.2324 5.64459 42.809 4.80231 46.021 5.7617L43.4732 8.30954C41.7436 8.27101 40.0987 8.92179 38.8688 10.1516L31.9631 17.0574C31.9059 17.1146 31.8559 17.176 31.8101 17.2397C31.8059 17.2443 31.8017 17.2481 31.7976 17.2527C29.479 19.7662 29.5518 23.6236 31.9627 26.0349C31.9814 26.0536 32.1699 26.2996 32.1851 26.3183C33.0495 27.3872 33.1781 28.8196 32.6013 29.9812C31.59 29.5242 30.6814 28.8966 29.8913 28.1066C26.2739 24.4892 26.2739 18.6031 29.8913 14.9856ZM16.0799 28.7971L22.9856 21.8913C23.385 21.492 23.8149 21.1345 24.2723 20.819C24.2006 22.0279 24.307 23.2452 24.5924 24.4281L18.1516 30.8688C16.9214 32.0991 16.2706 33.7447 16.3095 35.4732L13.7617 38.021C12.8023 34.8086 13.6446 31.2324 16.0799 28.7971ZM13.4287 46.641C12.8576 47.2121 11.9284 47.2125 11.3569 46.641C10.7855 46.07 10.7855 45.1403 11.3569 44.5693L20.2234 35.7028C20.5004 35.4259 20.8681 35.2737 21.2595 35.2737C21.6505 35.2737 22.0186 35.4259 22.2952 35.7028C22.8662 36.2739 22.8662 37.2031 22.2952 37.7746L13.4287 46.641ZM36.1066 35.0124L29.2009 41.9181C26.7652 44.3534 23.1893 45.1957 19.9766 44.2363L22.5248 41.6884C24.2494 41.7273 25.8989 41.0762 27.1291 39.8463L34.0349 32.9406C36.3119 30.6636 36.5091 27.0591 34.5056 24.5288C34.4919 24.5109 34.189 24.1172 34.0349 23.9631C32.9694 22.898 32.7554 21.3058 33.407 20.0206C34.414 20.4772 35.3189 21.104 36.1066 21.8913C39.7237 25.5088 39.7237 31.3949 36.1066 35.0124ZM49.9177 21.2009L43.012 28.1066C42.6126 28.506 42.183 28.8635 41.7257 29.1789C41.797 27.9701 41.6909 26.7528 41.4052 25.5699L47.8463 19.1291C49.0766 17.8989 49.7273 16.2529 49.6881 14.5248L52.2363 11.977C53.1957 15.1889 52.3534 18.7656 49.9177 21.2009ZM54.641 5.42868L45.7746 14.2952C45.2031 14.8662 44.2743 14.8666 43.7028 14.2952C43.4259 14.0186 43.2737 13.6505 43.2737 13.2595C43.2737 12.8681 43.4259 12.5004 43.7028 12.2234L52.5693 3.35693C52.855 3.07159 53.23 2.92854 53.6054 2.92854C53.9803 2.92854 54.3553 3.07159 54.641 3.35693C55.2121 3.92798 55.2121 4.85762 54.641 5.42868Z" fill="#C62929"/>
</svg>
