<svg width="66" height="66" viewBox="0 0 66 66" fill="none" xmlns="http://www.w3.org/2000/svg">
<path d="M58.9083 23.5708C58.8875 23.5208 58.8666 23.475 58.8375 23.4271C58.7875 23.3438 58.7229 23.2729 58.65 23.2063C58.6208 23.1792 58.6083 23.1417 58.575 23.1187C58.5605 23.1083 58.5396 23.1083 58.525 23.0979C58.5062 23.0854 58.4958 23.0667 58.475 23.0542L53.7979 20.3813C54.4229 19.7792 54.8334 18.9646 54.8334 18.0438C54.8334 16.8 54.1396 15.6792 53.0251 15.1187L45.3918 11.3021L46.2772 9.0875L46.8772 8.7875C47.1877 8.975 47.546 9.07705 47.9189 9.07705C48.1085 9.07705 48.3022 9.05205 48.4939 8.99785L56.5231 6.70205C57.9813 6.2833 59 4.9333 59 3.4167C59 1.5333 57.4667 0 55.5833 0H54.625C53.85 0 53.0917 0.266699 52.4896 0.747949L46.6479 5.4209C46.1646 5.8084 45.9271 6.3667 45.9062 6.94385L44.9916 7.4001C44.7624 7.51465 44.5833 7.7084 44.4896 7.9459L43.5208 10.3667L40.6104 8.9125C38.3874 7.8 35.5374 8.40205 33.9521 10.3042L25.0771 20.9542L9.775 25.0354C9.7167 25.0521 9.67295 25.0875 9.61875 25.1125C9.5875 25.1271 9.55 25.1208 9.51875 25.1395C9.5 25.15 9.4917 25.1729 9.475 25.1833C9.34375 25.2708 9.2292 25.3771 9.15 25.5104C9.1417 25.5249 9.1375 25.5396 9.1292 25.5541C9.06045 25.6833 9.025 25.8271 9.0167 25.9771C9.0167 26 9 26.0187 9 26.0416V40.625C9 40.9979 9.2 41.3438 9.525 41.5292L24.1083 49.8625C24.2688 49.9542 24.4479 50 24.625 50C24.7271 50 24.8333 49.9855 24.9354 49.952L58.2687 39.5354C58.7042 39.3999 59 38.9978 59 38.5416V23.9583C59 23.9229 58.9792 23.8938 58.9771 23.8583C58.9667 23.7583 58.9458 23.6646 58.9083 23.5708ZM53.7937 2.375C54.0271 2.1875 54.323 2.0833 54.625 2.0833H55.5854C56.3209 2.0833 56.9187 2.68125 56.9187 3.4166C56.9187 4.0083 56.5208 4.53535 55.952 4.69785L48.475 6.83535C48.4729 6.83115 48.4729 6.8291 48.4729 6.8249C48.45 6.77695 48.4084 6.74785 48.3792 6.70615L53.7937 2.375ZM35.5542 11.6375C36.2021 10.8625 37.1521 10.4167 38.1625 10.4167C38.6854 10.4167 39.2104 10.5417 39.6854 10.7729L42.7459 12.3021L42.5354 12.8271L32.4209 18.8979C31.9292 19.1938 31.7688 19.8334 32.0646 20.3271C32.2605 20.6542 32.6042 20.8334 32.9584 20.8334C33.1417 20.8334 33.3271 20.7854 33.4938 20.6834L43.9105 14.4334C44.1063 14.3167 44.2563 14.1396 44.3418 13.9271L44.6168 13.2396L52.098 16.9792C52.5022 17.1834 52.7543 17.5896 52.7543 18.05C52.7543 18.5958 52.3835 19.0688 51.8543 19.2021L51.348 19.3291C51.346 19.3291 51.3418 19.3312 51.3397 19.3312L23.3043 26.3395L35.5542 11.6375ZM23.5833 47.1625L11.0833 40.0208V27.8375L23.5833 34.9792V47.1625ZM24.7479 33.2458L12.7604 26.3958L22.7688 23.7271L19.6583 27.4583C19.3708 27.8062 19.3375 28.2979 19.5771 28.6791C19.7688 28.9874 20.1062 29.1666 20.4583 29.1666C20.5416 29.1666 20.6271 29.1562 20.7125 29.1333L24.2125 28.2583L27.2146 30.0604C27.3833 30.1604 27.5688 30.2083 27.75 30.2083C28.1021 30.2083 28.4479 30.0291 28.6437 29.7041C28.9396 29.2104 28.7812 28.5708 28.2875 28.2749L27.0688 27.5437L31.0729 26.5437L33.4646 27.977C33.6334 28.077 33.8188 28.1249 34.0001 28.1249C34.3521 28.1249 34.698 27.9457 34.8938 27.6207C35.1896 27.127 35.0313 26.4874 34.5376 26.1915L33.9313 25.829L37.9376 24.827L39.7126 25.8937C39.8834 25.9937 40.0688 26.0416 40.2501 26.0416C40.6021 26.0416 40.948 25.8624 41.1438 25.5374C41.4376 25.0457 41.2813 24.4104 40.7938 24.1124L44.8001 23.1104L45.9646 23.8083C46.1334 23.9104 46.3188 23.9583 46.5001 23.9583C46.8521 23.9583 47.198 23.7791 47.3938 23.4541C47.5834 23.1374 47.5688 22.7666 47.4146 22.4583L51.4626 21.4458L55.3668 23.6771L24.7479 33.2458ZM56.9167 37.775L25.6667 47.5417V35.1396L56.9167 25.375V37.775Z" fill="#C62929"/>
<rect y="56" width="66" height="10" fill="#C62929"/>
</svg>
