<svg width="66" height="66" viewBox="0 0 66 66" fill="none" xmlns="http://www.w3.org/2000/svg">
<rect y="56" width="66" height="10" fill="#C62929"/>
<g clip-path="url(#clip0)">
<path d="M15.2913 8.31836C13.5654 8.31836 12.1663 9.71749 12.1663 11.4434V19.7767H14.2496V11.4434C14.2496 10.8681 14.716 10.4017 15.2913 10.4017H40.2914V8.31836H15.2913Z" fill="#C62929"/>
<path d="M15.2913 39.5682C14.716 39.5682 14.2496 39.1018 14.2496 38.5265V28.1098H12.1663V38.5265C12.1663 40.2524 13.5654 41.6516 15.2913 41.6516H25.708V39.5682H15.2913Z" fill="#C62929"/>
<path d="M41.0281 42.2547L15.73 16.9567C15.3233 16.55 14.6639 16.55 14.2571 16.9567L8.30498 22.9088C7.89834 23.3156 7.89834 23.9749 8.30498 24.3818L33.603 49.6797C33.7983 49.8751 34.0633 49.9849 34.3395 49.9849C34.6157 49.9848 34.8806 49.875 35.0759 49.6797L41.028 43.7277C41.4347 43.3208 41.4347 42.6614 41.0281 42.2547ZM34.3395 47.4704L10.5144 23.6453L14.9936 19.166L38.8187 42.9912L34.3395 47.4704Z" fill="#C62929"/>
<path d="M53.8333 39.5682H38.2083V41.6515H49.6666V46.8599C49.6666 47.4352 50.133 47.9016 50.7083 47.9016H53.8333C56.1345 47.9016 58 46.0361 58 43.7349C58 41.4337 56.1345 39.5682 53.8333 39.5682ZM53.8333 45.8183H51.75V41.6515H53.8333C54.9839 41.6515 55.9166 42.5843 55.9166 43.7349C55.9166 44.8855 54.9839 45.8183 53.8333 45.8183Z" fill="#C62929"/>
<path d="M53.8333 8.31836H48.625V10.4017H53.8333C54.9839 10.4017 55.9166 11.3344 55.9166 12.485V43.7351H57.9999V12.485C58 10.1838 56.1345 8.31836 53.8333 8.31836Z" fill="#C62929"/>
<path d="M27.0554 29.4567L23.9302 32.582L25.4033 34.0551L28.5285 30.9298L27.0554 29.4567Z" fill="#C62929"/>
<path d="M22.8887 25.2902L19.7634 28.4155L21.2365 29.8886L24.3618 26.7633L22.8887 25.2902Z" fill="#C62929"/>
<path d="M31.22 33.6233L28.0947 36.7486L29.5678 38.2217L32.6931 35.0964L31.22 33.6233Z" fill="#C62929"/>
<path d="M35.3887 37.7923L32.2634 40.9176L33.7365 42.3907L36.8618 39.2654L35.3887 37.7923Z" fill="#C62929"/>
<path d="M18.7195 21.1233L15.5942 24.2486L17.0673 25.7217L20.1926 22.5964L18.7195 21.1233Z" fill="#C62929"/>
<path d="M52.9313 2.32649L51.4916 0.88693C50.2735 -0.275868 48.3566 -0.275868 47.1385 0.88693L31.2989 16.7265C30.8922 17.1333 30.8922 17.7927 31.2989 18.1995L35.6187 22.5193C35.8135 22.7154 36.0788 22.8253 36.3551 22.8245C36.6314 22.8244 36.8963 22.7147 37.0916 22.5193L52.9313 6.67963C52.9318 6.67914 52.9322 6.67865 52.9327 6.67816C54.134 5.47611 54.1333 3.52776 52.9313 2.32649ZM51.4594 5.2057L36.3551 20.3099L33.5083 17.463L48.6125 2.35979C49.0059 1.98391 49.6254 1.98391 50.0188 2.35979L51.4594 3.79837C51.4595 3.79856 51.4597 3.79866 51.4599 3.79886C51.8482 4.18743 51.848 4.81732 51.4594 5.2057Z" fill="#C62929"/>
<path d="M36.0206 20.7952L31.5248 22.2963L33.0258 17.7932L31.0466 17.1338L28.8862 23.614C28.8508 23.7202 28.8328 23.8315 28.8328 23.9434C28.8329 24.5187 29.2994 24.985 29.8747 24.9848C29.9849 24.9852 30.0946 24.9683 30.1997 24.9348L36.6799 22.7743L36.0206 20.7952Z" fill="#C62929"/>
<path d="M45.7307 3.76615L44.2576 5.23926L48.5775 9.55921L50.0506 8.0861L45.7307 3.76615Z" fill="#C62929"/>
<path d="M45.4998 22.9015H29.8748V24.9848H45.4998V22.9015Z" fill="#C62929"/>
</g>
<defs>
<clipPath id="clip0">
<rect width="50" height="50" fill="white" transform="translate(8)"/>
</clipPath>
</defs>
</svg>
