<svg width="183" height="66" viewBox="0 0 183 66" fill="none" xmlns="http://www.w3.org/2000/svg">
<g clip-path="url(#clip0)">
<path d="M3.24424 48.3436C2.08931 48.0682 0.991197 47.5895 0 46.9294L1.62212 43.2424C2.4646 43.7926 3.38063 44.2178 4.34229 44.5051C5.32783 44.8177 6.35405 44.9795 7.38688 44.9849C9.28351 44.9849 10.2318 44.5051 10.2318 43.5454C10.2287 43.2931 10.1464 43.0483 9.99693 42.8463C9.84742 42.6444 9.63839 42.4956 9.39997 42.4217C8.56182 42.0921 7.69594 41.84 6.8129 41.6683C5.69528 41.4377 4.59464 41.1298 3.51875 40.7465C2.63991 40.415 1.85855 39.8632 1.24778 39.1429C0.577731 38.3159 0.239254 37.2643 0.299468 36.1967C0.286869 35.1566 0.59191 34.1379 1.17292 33.2799C1.82823 32.354 2.73379 31.6394 3.78079 31.2217C5.13371 30.68 6.58133 30.4223 8.03573 30.4641C9.17809 30.4635 10.3168 30.5948 11.4297 30.8556C12.4633 31.0847 13.4564 31.4722 14.3745 32.0046L12.8522 35.7421C11.3765 34.8848 9.7119 34.416 8.01077 34.3784C7.2708 34.3175 6.52849 34.4631 5.86458 34.7993C5.6618 34.9133 5.49257 35.0798 5.37419 35.2817C5.25581 35.4835 5.19251 35.7136 5.19078 35.9483C5.19099 36.1926 5.26869 36.4304 5.41245 36.6266C5.55622 36.8229 5.75844 36.9672 5.98936 37.0385C6.82198 37.3624 7.68247 37.6075 8.5598 37.7708C9.68929 37.9971 10.8013 38.3052 11.8872 38.6926C12.752 39.0196 13.5256 39.554 14.1416 40.2499C14.816 41.0635 15.1595 42.1062 15.1023 43.1666C15.1124 44.1946 14.8072 45.2004 14.2289 46.0455C13.5658 46.969 12.6571 47.6828 11.6086 48.1037C10.2615 48.6518 8.81745 48.914 7.36608 48.8739C5.9753 48.8775 4.58989 48.6992 3.24424 48.3436Z" fill="#1A1A1A"/>
<path d="M29.0734 45.0859H21.6865L20.3139 48.5204H15.2729L22.9842 30.8429H27.8672L35.6035 48.5204H30.4459L29.0734 45.0859ZM27.626 41.3989L25.3716 35.7421L23.1256 41.3989H27.626Z" fill="black"/>
<path d="M39.8293 34.8077H34.4638V30.8429H50.111V34.8077H44.7705V48.5204H39.8293V34.8077Z" fill="#1A1A1A"/>
<path d="M53.6921 46.719C52.253 45.2879 51.5334 43.2592 51.5334 40.6329V30.8429H56.4747V40.4898C56.4747 43.3182 57.5838 44.7323 59.8021 44.7323C62.0204 44.7323 63.1184 43.3182 63.0962 40.4898V30.8429H67.9626V40.6413C67.9626 43.2676 67.2431 45.2963 65.8039 46.7274C64.3648 48.1584 62.3476 48.8739 59.7522 48.8739C57.1513 48.8739 55.1312 48.1556 53.6921 46.719Z" fill="#1A1A1A"/>
<path d="M78.9348 43.8232H76.2396V48.5204H71.2984V30.8429H79.2842C80.6969 30.8102 82.1004 31.0813 83.4019 31.6384C84.2019 32.0204 84.9143 32.5672 85.4935 33.2438C86.0727 33.9203 86.5059 34.7118 86.7655 35.5676C87.0251 36.4233 87.1052 37.3244 87.0009 38.2133C86.8965 39.1022 86.61 39.9593 86.1595 40.7297C85.5431 41.7039 84.6642 42.4793 83.6265 42.9646L87.3948 48.5204H82.1042L78.9348 43.8232ZM81.2807 35.4643C80.622 34.9636 79.8063 34.7213 78.9847 34.7825H76.2396V39.9594H78.9847C79.8044 40.02 80.6185 39.7827 81.2807 39.2902C81.5432 39.0519 81.7491 38.7566 81.883 38.4265C82.017 38.0963 82.0755 37.7398 82.0543 37.3836C82.0747 37.0256 82.0159 36.6675 81.882 36.3354C81.7482 36.0033 81.5427 35.7057 81.2807 35.4643Z" fill="#1A1A1A"/>
<path d="M106.386 30.8429V48.5204H102.318L94.607 39.1008V48.5204H89.7656V30.8429H93.8333L101.545 40.2625V30.8429H106.386Z" fill="#1A1A1A"/>
<path d="M132.914 40.957C133.485 41.7417 133.778 42.6979 133.746 43.6717C133.773 44.3804 133.617 45.084 133.293 45.7129C132.969 46.3418 132.489 46.8743 131.899 47.2577C130.668 48.0995 128.888 48.5204 126.559 48.5204H117.142V30.8429H126.076C128.294 30.8429 129.991 31.2638 131.167 32.1056C131.717 32.4709 132.165 32.9716 132.471 33.5606C132.776 34.1496 132.929 34.8076 132.914 35.4727C132.926 36.2695 132.714 37.0533 132.303 37.7329C131.88 38.4115 131.28 38.958 130.568 39.3113C131.494 39.6121 132.311 40.1849 132.914 40.957ZM122.033 34.4542V37.8802H125.427C127.091 37.8802 127.923 37.3078 127.923 36.163C127.923 35.0182 127.091 34.457 125.427 34.4794L122.033 34.4542ZM128.771 43.1161C128.771 41.9208 127.906 41.3231 126.176 41.3231H122.017V44.9091H126.176C127.906 44.9091 128.771 44.3115 128.771 43.1161Z" fill="#1A1A1A"/>
<path d="M150.358 44.6566V48.5204H136.333V30.8429H150.034V34.7067H141.224V37.6866H148.985V41.4241H141.224V44.6566H150.358Z" fill="#1A1A1A"/>
<path d="M155.141 48.3436C153.986 48.0682 152.888 47.5895 151.897 46.9294L153.519 43.2424C154.362 43.7926 155.278 44.2178 156.239 44.5051C157.225 44.8177 158.251 44.9795 159.284 44.9849C161.18 44.9849 162.129 44.5051 162.129 43.5454C162.127 43.2957 162.048 43.0529 161.902 42.8512C161.757 42.6496 161.552 42.4993 161.318 42.4217C160.467 42.0899 159.589 41.8377 158.693 41.6683C157.576 41.4377 156.475 41.1298 155.399 40.7465C154.52 40.415 153.739 39.8632 153.128 39.1429C152.458 38.3159 152.12 37.2643 152.18 36.1967C152.167 35.1566 152.472 34.1379 153.053 33.2799C153.709 32.354 154.614 31.6394 155.661 31.2217C157.014 30.68 158.462 30.4223 159.916 30.4641C161.058 30.4635 162.197 30.5948 163.31 30.8556C164.344 31.0847 165.337 31.4722 166.255 32.0046L164.732 35.7169C163.257 34.8596 161.592 34.3907 159.891 34.3532C159.151 34.2922 158.409 34.4378 157.745 34.7741C157.542 34.8881 157.373 35.0545 157.254 35.2564C157.136 35.4583 157.073 35.6883 157.071 35.9231C157.066 36.1717 157.141 36.4152 157.285 36.6165C157.429 36.8179 157.635 36.966 157.87 37.0385C158.702 37.3624 159.563 37.6075 160.44 37.7708C161.563 37.9981 162.668 38.3062 163.747 38.6926C164.618 39.0196 165.398 39.5571 166.018 40.2583C166.692 41.0719 167.036 42.1146 166.979 43.175C166.989 44.203 166.683 45.2088 166.105 46.0539C165.442 46.9774 164.533 47.6912 163.485 48.1121C162.138 48.6602 160.694 48.9224 159.242 48.8823C157.858 48.8813 156.48 48.7003 155.141 48.3436Z" fill="#1A1A1A"/>
<path d="M172.718 34.8077H167.353V30.8429H183.008V34.8077H177.659V48.5204H172.718V34.8077Z" fill="#1A1A1A"/>
<path d="M113.432 10.5223C113.432 10.2655 113.432 10.0088 113.432 9.75204C102.577 13.1462 92.59 18.909 84.1755 26.634H91.9201C94.4955 24.631 97.1994 22.8031 100.014 21.1624C104.45 18.5563 109.156 16.4519 114.047 14.8869C113.639 13.4689 113.431 11.9993 113.432 10.5223ZM145.279 15.4804C144.883 14.7902 144.425 14.138 143.911 13.5317C143.51 15.5872 142.701 17.5388 141.532 19.2684C141.926 20.3588 142.122 21.5124 142.11 22.6734C142.11 25.1609 141.32 27.943 139.856 30.8429C138.847 32.8024 137.663 34.6648 136.32 36.4071C135.19 37.8981 133.974 39.3217 132.681 40.6707C129.903 43.5648 126.866 46.1926 123.61 48.5204C121.771 49.8462 119.825 51.113 117.787 52.3084C108.981 57.4517 99.7354 60.5073 91.7454 60.9114C84.4583 61.2776 79.0305 59.2952 76.8469 55.4693C76.3672 54.6222 76.0391 53.696 75.8777 52.7335H70.8076C71.0194 54.5869 71.6025 56.377 72.5212 57.9946C75.4868 63.1968 81.6716 65.9916 89.9902 65.9916C90.6349 65.9916 91.2962 65.9916 91.97 65.9411C100.734 65.4991 110.782 62.2077 120.253 56.6814C126.155 53.2863 131.559 49.0731 136.308 44.1641C138.235 42.1545 139.997 39.9896 141.578 37.6908C142.254 36.6975 142.873 35.7042 143.433 34.7109C144.141 33.4665 144.766 32.1757 145.304 30.8471C147.617 25.1903 147.754 19.8156 145.279 15.4804Z" fill="#C62929"/>
<path d="M139.219 10.5223C139.219 13.313 138.124 15.9894 136.174 17.9627C134.224 19.936 131.579 21.0446 128.821 21.0446C126.063 21.0446 123.419 19.936 121.469 17.9627C119.519 15.9894 118.423 13.313 118.423 10.5223C118.421 7.78849 119.47 5.16118 121.349 3.19664C123.228 1.23211 125.788 0.0845924 128.488 -0.00293163C131.189 -0.0904557 133.816 0.888884 135.815 2.72772C137.815 4.56657 139.028 7.12053 139.199 9.84886C139.211 10.0719 139.219 10.295 139.219 10.5223Z" fill="#1A1A1A"/>
</g>
<defs>
<clipPath id="clip0">
<rect width="183" height="66" fill="white"/>
</clipPath>
</defs>
</svg>
