<svg width="50" height="50" viewBox="0 0 50 50" fill="none" xmlns="http://www.w3.org/2000/svg">
<g clip-path="url(#clip0)">
<path d="M38.0195 46.8751H5.72912C2.56874 46.8751 0 44.3064 0 41.146V8.85558C0 5.6952 2.56874 3.12646 5.72912 3.12646H31.7697C32.6322 3.12646 33.3322 3.82644 33.3322 4.68892C33.3322 5.55139 32.6322 6.25137 31.7697 6.25137H5.72912C4.29369 6.25137 3.1249 7.42015 3.1249 8.85558V41.146C3.1249 42.5814 4.29369 43.7502 5.72912 43.7502H38.0195C39.4549 43.7502 40.6237 42.5814 40.6237 41.146V23.4383C40.6237 22.5759 41.3237 21.8759 42.1862 21.8759C43.0487 21.8759 43.7486 22.5759 43.7486 23.4383V41.146C43.7486 44.3064 41.1799 46.8751 38.0195 46.8751Z" fill="#C62929"/>
<path d="M25.5194 29.1675C25.1196 29.1675 24.7195 29.0153 24.4155 28.7089L15.0408 19.3342C14.4304 18.7239 14.4304 17.7344 15.0408 17.1241C15.6511 16.5137 16.6406 16.5137 17.2509 17.1241L25.5217 25.3945L47.3312 3.58499C47.9419 2.97427 48.9314 2.97427 49.5417 3.58499C50.1521 4.19532 50.1521 5.18482 49.5417 5.79516L26.6256 28.7112C26.3193 29.0153 25.9196 29.1675 25.5194 29.1675Z" fill="#C62929"/>
</g>
<defs>
<clipPath id="clip0">
<rect width="50" height="50" fill="white"/>
</clipPath>
</defs>
</svg>
