<svg width="50" height="50" viewBox="0 0 50 50" fill="none" xmlns="http://www.w3.org/2000/svg">
<path d="M48.4375 47.6562H46.0938V1.56244C46.0936 1.4357 46.0627 1.31089 46.0036 1.19876C45.9446 1.08663 45.8591 0.990532 45.7547 0.918751C45.6502 0.846971 45.5299 0.801656 45.404 0.786708C45.2782 0.77176 45.1506 0.787628 45.0322 0.832944L24.7197 8.64544C24.5723 8.7022 24.4455 8.80228 24.3561 8.9325C24.2667 9.06272 24.2188 9.21697 24.2188 9.37494V21.3388L4.40723 28.9579C4.25981 29.0147 4.13304 29.1148 4.04361 29.245C3.95418 29.3752 3.90629 29.5295 3.90625 29.6874V47.6562H1.5625C1.3553 47.6562 1.15659 47.7385 1.01007 47.885C0.86356 48.0315 0.78125 48.2302 0.78125 48.4374C0.78125 48.6446 0.86356 48.8434 1.01007 48.9899C1.15659 49.1364 1.3553 49.2187 1.5625 49.2187H48.4375C48.6447 49.2187 48.8434 49.1364 48.9899 48.9899C49.1364 48.8434 49.2188 48.6446 49.2188 48.4374C49.2188 48.2302 49.1364 48.0315 48.9899 47.885C48.8434 47.7385 48.6447 47.6562 48.4375 47.6562ZM24.2188 47.6562H5.46875V30.2236L24.2188 23.0126V47.6562ZM34.375 47.6562H31.25V39.8437H34.375V47.6562ZM39.0625 47.6562H35.9375V39.8437H39.0625V47.6562ZM44.5312 47.6562H40.625V39.0624C40.625 38.8552 40.5427 38.6565 40.3962 38.51C40.2497 38.3635 40.0509 38.2812 39.8438 38.2812H30.4688C30.2615 38.2812 30.0628 38.3635 29.9163 38.51C29.7698 38.6565 29.6875 38.8552 29.6875 39.0624V47.6562H25.7812V9.91107L44.5312 2.70013V47.6562Z" fill="white"/>
<path d="M20.3125 32.0312H8.59375C8.38655 32.0312 8.18784 32.1136 8.04132 32.2601C7.89481 32.4066 7.8125 32.6053 7.8125 32.8125V37.5C7.8125 37.7072 7.89481 37.9059 8.04132 38.0524C8.18784 38.1989 8.38655 38.2812 8.59375 38.2812H20.3125C20.5197 38.2812 20.7184 38.1989 20.8649 38.0524C21.0114 37.9059 21.0938 37.7072 21.0938 37.5V32.8125C21.0938 32.6053 21.0114 32.4066 20.8649 32.2601C20.7184 32.1136 20.5197 32.0312 20.3125 32.0312ZM19.5312 36.7188H9.375V33.5938H19.5312V36.7188Z" fill="white"/>
<path d="M20.3125 39.0625H15.625C15.4178 39.0625 15.2191 39.1448 15.0726 39.2913C14.9261 39.4378 14.8438 39.6365 14.8438 39.8438V44.5312C14.8438 44.7385 14.9261 44.9372 15.0726 45.0837C15.2191 45.2302 15.4178 45.3125 15.625 45.3125H20.3125C20.5197 45.3125 20.7184 45.2302 20.8649 45.0837C21.0114 44.9372 21.0938 44.7385 21.0938 44.5312V39.8438C21.0938 39.6365 21.0114 39.4378 20.8649 39.2913C20.7184 39.1448 20.5197 39.0625 20.3125 39.0625ZM19.5312 43.75H16.4062V40.625H19.5312V43.75Z" fill="white"/>
<path d="M13.2812 39.0625H8.59375C8.38655 39.0625 8.18784 39.1448 8.04132 39.2913C7.89481 39.4378 7.8125 39.6365 7.8125 39.8438V44.5312C7.8125 44.7385 7.89481 44.9372 8.04132 45.0837C8.18784 45.2302 8.38655 45.3125 8.59375 45.3125H13.2812C13.4885 45.3125 13.6872 45.2302 13.8337 45.0837C13.9802 44.9372 14.0625 44.7385 14.0625 44.5312V39.8438C14.0625 39.6365 13.9802 39.4378 13.8337 39.2913C13.6872 39.1448 13.4885 39.0625 13.2812 39.0625ZM12.5 43.75H9.375V40.625H12.5V43.75Z" fill="white"/>
<path d="M41.4062 22.6562H36.7188C36.5115 22.6562 36.3128 22.7386 36.1663 22.8851C36.0198 23.0316 35.9375 23.2303 35.9375 23.4375V28.125C35.9375 28.3322 36.0198 28.5309 36.1663 28.6774C36.3128 28.8239 36.5115 28.9062 36.7188 28.9062H41.4062C41.6135 28.9062 41.8122 28.8239 41.9587 28.6774C42.1052 28.5309 42.1875 28.3322 42.1875 28.125V23.4375C42.1875 23.2303 42.1052 23.0316 41.9587 22.8851C41.8122 22.7386 41.6135 22.6562 41.4062 22.6562ZM40.625 27.3438H37.5V24.2188H40.625V27.3438Z" fill="white"/>
<path d="M33.5938 22.6562H28.9062C28.699 22.6562 28.5003 22.7386 28.3538 22.8851C28.2073 23.0316 28.125 23.2303 28.125 23.4375V28.125C28.125 28.3322 28.2073 28.5309 28.3538 28.6774C28.5003 28.8239 28.699 28.9062 28.9062 28.9062H33.5938C33.801 28.9062 33.9997 28.8239 34.1462 28.6774C34.2927 28.5309 34.375 28.3322 34.375 28.125V23.4375C34.375 23.2303 34.2927 23.0316 34.1462 22.8851C33.9997 22.7386 33.801 22.6562 33.5938 22.6562ZM32.8125 27.3438H29.6875V24.2188H32.8125V27.3438Z" fill="white"/>
<path d="M41.4062 29.6875H36.7188C36.5115 29.6875 36.3128 29.7698 36.1663 29.9163C36.0198 30.0628 35.9375 30.2615 35.9375 30.4688V35.1562C35.9375 35.3635 36.0198 35.5622 36.1663 35.7087C36.3128 35.8552 36.5115 35.9375 36.7188 35.9375H41.4062C41.6135 35.9375 41.8122 35.8552 41.9587 35.7087C42.1052 35.5622 42.1875 35.3635 42.1875 35.1562V30.4688C42.1875 30.2615 42.1052 30.0628 41.9587 29.9163C41.8122 29.7698 41.6135 29.6875 41.4062 29.6875ZM40.625 34.375H37.5V31.25H40.625V34.375Z" fill="white"/>
<path d="M33.5938 29.6875H28.9062C28.699 29.6875 28.5003 29.7698 28.3538 29.9163C28.2073 30.0628 28.125 30.2615 28.125 30.4688V35.1562C28.125 35.3635 28.2073 35.5622 28.3538 35.7087C28.5003 35.8552 28.699 35.9375 28.9062 35.9375H33.5938C33.801 35.9375 33.9997 35.8552 34.1462 35.7087C34.2927 35.5622 34.375 35.3635 34.375 35.1562V30.4688C34.375 30.2615 34.2927 30.0628 34.1462 29.9163C33.9997 29.7698 33.801 29.6875 33.5938 29.6875ZM32.8125 34.375H29.6875V31.25H32.8125V34.375Z" fill="white"/>
<path d="M41.4062 14.8438H36.7188C36.5115 14.8438 36.3128 14.9261 36.1663 15.0726C36.0198 15.2191 35.9375 15.4178 35.9375 15.625V20.3125C35.9375 20.5197 36.0198 20.7184 36.1663 20.8649C36.3128 21.0114 36.5115 21.0938 36.7188 21.0938H41.4062C41.6135 21.0938 41.8122 21.0114 41.9587 20.8649C42.1052 20.7184 42.1875 20.5197 42.1875 20.3125V15.625C42.1875 15.4178 42.1052 15.2191 41.9587 15.0726C41.8122 14.9261 41.6135 14.8438 41.4062 14.8438ZM40.625 19.5312H37.5V16.4062H40.625V19.5312Z" fill="white"/>
<path d="M33.5938 14.8438H28.9062C28.699 14.8438 28.5003 14.9261 28.3538 15.0726C28.2073 15.2191 28.125 15.4178 28.125 15.625V20.3125C28.125 20.5197 28.2073 20.7184 28.3538 20.8649C28.5003 21.0114 28.699 21.0938 28.9062 21.0938H33.5938C33.801 21.0938 33.9997 21.0114 34.1462 20.8649C34.2927 20.7184 34.375 20.5197 34.375 20.3125V15.625C34.375 15.4178 34.2927 15.2191 34.1462 15.0726C33.9997 14.9261 33.801 14.8438 33.5938 14.8438ZM32.8125 19.5312H29.6875V16.4062H32.8125V19.5312Z" fill="white"/>
</svg>
