<svg width="50" height="50" viewBox="0 0 50 50" fill="none" xmlns="http://www.w3.org/2000/svg">
<g clip-path="url(#clip0)">
<path d="M7.5 33.3333C3.77238 33.3333 0 34.4783 0 36.6666V46.6666C0 48.8549 3.77238 49.9999 7.5 49.9999C11.2276 49.9999 15 48.8549 15 46.6666V36.6666C15 34.4783 11.2276 33.3333 7.5 33.3333ZM7.5 34.9999C11.2891 34.9999 13.3333 36.1832 13.3333 36.6666C13.3333 37.15 11.2891 38.3333 7.5 38.3333C3.71094 38.3333 1.66667 37.15 1.66667 36.6666C1.66667 36.1832 3.71094 34.9999 7.5 34.9999ZM7.5 48.3332C3.71094 48.3332 1.66667 47.15 1.66667 46.6666V45.5C3.49731 46.3272 5.49235 46.726 7.5 46.6666C9.50765 46.726 11.5027 46.3272 13.3333 45.5V46.6666C13.3333 47.15 11.2891 48.3332 7.5 48.3332ZM7.5 44.9999C3.71094 44.9999 1.66667 43.8166 1.66667 43.3333V42.1667C3.49731 42.9939 5.49235 43.3927 7.5 43.3333C9.50765 43.3927 11.5027 42.9939 13.3333 42.1667V43.3333C13.3333 43.8166 11.2891 44.9999 7.5 44.9999ZM7.5 41.6666C3.71094 41.6666 1.66667 40.4833 1.66667 39.9999V38.8333C3.49731 39.6606 5.49235 40.0593 7.5 39.9999C9.50765 40.0593 11.5027 39.6606 13.3333 38.8333V39.9999C13.3333 40.4833 11.2891 41.6666 7.5 41.6666Z" fill="#C62929"/>
<path d="M25 26.6667C21.2724 26.6667 17.5 27.8118 17.5 30.0001V46.6667C17.5 48.8551 21.2724 50.0001 25 50.0001C28.7276 50.0001 32.5 48.8551 32.5 46.6667V30.0001C32.5 27.8118 28.7276 26.6667 25 26.6667ZM25 28.3334C28.7891 28.3334 30.8333 29.5167 30.8333 30.0001C30.8333 30.4835 28.7891 31.6667 25 31.6667C21.2109 31.6667 19.1667 30.4835 19.1667 30.0001C19.1667 29.5167 21.2109 28.3334 25 28.3334ZM25 48.3334C21.2109 48.3334 19.1667 47.1501 19.1667 46.6667V45.5002C20.9973 46.3274 22.9924 46.7262 25 46.6667C27.0076 46.7262 29.0027 46.3274 30.8333 45.5002V46.6667C30.8333 47.1501 28.7891 48.3334 25 48.3334ZM25 45.0001C21.2109 45.0001 19.1667 43.8168 19.1667 43.3334V42.1668C20.9973 42.9941 22.9924 43.3928 25 43.3334C27.0076 43.3928 29.0027 42.9941 30.8333 42.1668V43.3334C30.8333 43.8168 28.7891 45.0001 25 45.0001ZM25 41.6667C21.2109 41.6667 19.1667 40.4835 19.1667 40.0001V38.8335C20.9973 39.6607 22.9924 40.0595 25 40.0001C27.0076 40.0595 29.0027 39.6607 30.8333 38.8335V40.0001C30.8333 40.4835 28.7891 41.6667 25 41.6667ZM25 38.3334C21.2109 38.3334 19.1667 37.1501 19.1667 36.6667V35.5002C20.9973 36.3274 22.9924 36.7262 25 36.6667C27.0076 36.7262 29.0027 36.3274 30.8333 35.5002V36.6667C30.8333 37.1501 28.7891 38.3334 25 38.3334ZM25 35.0001C21.2109 35.0001 19.1667 33.8168 19.1667 33.3334V32.1668C20.9973 32.9941 22.9924 33.3928 25 33.3334C27.0076 33.3928 29.0027 32.9941 30.8333 32.1668V33.3334C30.8333 33.8168 28.7891 35.0001 25 35.0001Z" fill="#C62929"/>
<path d="M42.5 16.6667C38.7724 16.6667 35 17.8118 35 20.0001V46.6667C35 48.8551 38.7724 50.0001 42.5 50.0001C46.2276 50.0001 50 48.8551 50 46.6667V20.0001C50 17.8118 46.2276 16.6667 42.5 16.6667ZM42.5 18.3334C46.2891 18.3334 48.3333 19.5167 48.3333 20.0001C48.3333 20.4835 46.2891 21.6667 42.5 21.6667C38.7109 21.6667 36.6667 20.4835 36.6667 20.0001C36.6667 19.5167 38.7109 18.3334 42.5 18.3334ZM42.5 48.3334C38.7109 48.3334 36.6667 47.1501 36.6667 46.6667V45.5002C38.4973 46.3274 40.4924 46.7262 42.5 46.6667C44.5076 46.7262 46.5027 46.3274 48.3333 45.5002V46.6667C48.3333 47.1501 46.2891 48.3334 42.5 48.3334ZM42.5 45.0001C38.7109 45.0001 36.6667 43.8168 36.6667 43.3334V42.1668C38.4973 42.9941 40.4924 43.3928 42.5 43.3334C44.5076 43.3928 46.5027 42.9941 48.3333 42.1668V43.3334C48.3333 43.8168 46.2891 45.0001 42.5 45.0001ZM42.5 41.6667C38.7109 41.6667 36.6667 40.4835 36.6667 40.0001V38.8335C38.4973 39.6607 40.4924 40.0595 42.5 40.0001C44.5076 40.0595 46.5027 39.6607 48.3333 38.8335V40.0001C48.3333 40.4835 46.2891 41.6667 42.5 41.6667ZM42.5 38.3334C38.7109 38.3334 36.6667 37.1501 36.6667 36.6667V35.5002C38.4973 36.3274 40.4924 36.7262 42.5 36.6667C44.5076 36.7262 46.5027 36.3274 48.3333 35.5002V36.6667C48.3333 37.1501 46.2891 38.3334 42.5 38.3334ZM42.5 35.0001C38.7109 35.0001 36.6667 33.8168 36.6667 33.3334V32.1668C38.4973 32.9941 40.4924 33.3928 42.5 33.3334C44.5076 33.3928 46.5027 32.9941 48.3333 32.1668V33.3334C48.3333 33.8168 46.2891 35.0001 42.5 35.0001ZM42.5 31.6667C38.7109 31.6667 36.6667 30.4835 36.6667 30.0001V28.8335C38.4973 29.6607 40.4924 30.0595 42.5 30.0001C44.5076 30.0595 46.5027 29.6607 48.3333 28.8335V30.0001C48.3333 30.4835 46.2891 31.6667 42.5 31.6667ZM42.5 28.3334C38.7109 28.3334 36.6667 27.1501 36.6667 26.6667V25.5002C38.4973 26.3274 40.4924 26.7262 42.5 26.6667C44.5076 26.7262 46.5027 26.3274 48.3333 25.5002V26.6667C48.3333 27.1501 46.2891 28.3334 42.5 28.3334ZM42.5 25.0001C38.7109 25.0001 36.6667 23.8168 36.6667 23.3334V22.1668C38.4973 22.9941 40.4924 23.3928 42.5 23.3334C44.5076 23.3928 46.5027 22.9941 48.3333 22.1668V23.3334C48.3333 23.8168 46.2891 25.0001 42.5 25.0001Z" fill="#C62929"/>
<path d="M40.8333 0V1.66667H47.1549L31.3215 17.5H13.8533L0.283936 29.3726L1.38257 30.6274L14.4799 19.1667H32.0116L48.3333 2.84505V9.16667H49.9999V0H40.8333Z" fill="#C62929"/>
</g>
<defs>
<clipPath id="clip0">
<rect width="50" height="50" fill="white"/>
</clipPath>
</defs>
</svg>
