<svg width="50" height="50" viewBox="0 0 50 50" fill="none" xmlns="http://www.w3.org/2000/svg">
<g clip-path="url(#clip0)">
<path d="M7.82218 13.4983H7.87553C9.88204 13.4962 11.5078 11.8704 11.51 9.86391V8.65372C11.5078 6.64764 9.88204 5.02187 7.87553 5.01929H7.82218C5.81567 5.02187 4.1899 6.64764 4.18774 8.65372V9.86348C4.18946 11.87 5.81567 13.4962 7.82218 13.4983ZM5.72963 8.65415C5.73092 7.49903 6.66663 6.56289 7.82218 6.5616H7.87553C9.03065 6.56289 9.96679 7.49903 9.96808 8.65415V9.86391C9.96679 11.019 9.03065 11.9552 7.87553 11.9565H7.82218C6.66663 11.9552 5.73092 11.019 5.72963 9.86391V8.65415Z" fill="#C62929"/>
<path d="M12.1256 14.6582H10.6044C10.4082 14.6586 10.2198 14.7335 10.077 14.8677L7.95947 16.8544L5.92715 14.8763C5.78303 14.7365 5.59029 14.6582 5.38938 14.6582H3.77436C2.71432 14.6582 1.70332 15.1039 0.988307 15.886C0.273294 16.6686 -0.0799102 17.7157 0.0155969 18.7715V27.6192C0.0155969 28.9249 1.07392 29.9832 2.37961 29.9841H2.40758C2.72421 29.9807 3.03698 29.9118 3.32608 29.7819L3.7322 45.7815C3.76705 46.7658 4.37709 47.6379 5.29 48.0078C6.20291 48.3774 7.2479 48.1765 7.95818 47.4937C8.66932 48.1773 9.71646 48.3783 10.6302 48.0061C11.544 47.634 12.1528 46.7589 12.1846 45.7733L12.5903 29.7948C13.3212 30.1067 14.1597 30.0306 14.8227 29.5926C15.4856 29.1542 15.8848 28.413 15.8848 27.6179V18.7719C15.9799 17.7162 15.6271 16.669 14.9121 15.8865C14.1967 15.1039 13.1857 14.6582 12.1256 14.6582ZM9.68634 46.6484C9.15761 46.6479 8.72912 46.2194 8.72869 45.6911V29.664H7.18681V45.6911C7.18638 46.2113 6.77079 46.6359 6.25067 46.6475C5.73054 46.6591 5.29646 46.2534 5.27279 45.7337L4.81376 27.651H11.1026L10.6431 45.7251C10.6264 46.241 10.2022 46.6501 9.68634 46.6484ZM14.3464 18.657C14.3438 18.6828 14.3425 18.7091 14.3425 18.7349V27.6179C14.3374 28.0696 13.9695 28.4336 13.5174 28.4336C13.0657 28.4336 12.6978 28.0696 12.6927 27.6179V25.7349L12.7017 25.3769H12.6927V21.672H11.1508V25.7168L11.1409 26.1092H4.77504L4.75568 25.3382H4.74621V21.6724H3.20433V27.5749C3.21466 28.0378 2.85285 28.4233 2.39037 28.4426C2.17053 28.4452 1.95887 28.3596 1.80227 28.2052C1.6461 28.0503 1.55791 27.8399 1.55791 27.6196V18.7353C1.55791 18.7091 1.55662 18.6833 1.55404 18.6575C1.49037 18.0293 1.69558 17.4038 2.11891 16.9357C2.54223 16.4677 3.14367 16.2005 3.77479 16.2005H5.07662L7.41181 18.4729C7.41525 18.4763 7.41912 18.4785 7.423 18.4819C7.44623 18.5039 7.47032 18.5241 7.49613 18.543C7.49785 18.5443 7.49957 18.546 7.50172 18.5473C7.52969 18.5671 7.55894 18.5852 7.58906 18.6011C7.59508 18.6041 7.6011 18.6071 7.60756 18.6101C7.63552 18.6243 7.66434 18.6364 7.6936 18.6471C7.69618 18.648 7.69876 18.6493 7.70177 18.6501C7.73318 18.6605 7.76501 18.6691 7.79771 18.6755C7.80545 18.6768 7.8132 18.6781 7.82051 18.6794C7.84934 18.6846 7.87859 18.6876 7.90785 18.6893C7.91215 18.6893 7.91645 18.6902 7.92118 18.6906C7.95388 18.6914 7.98657 18.6906 8.01927 18.6876C8.02701 18.6867 8.03476 18.6859 8.0425 18.685C8.07477 18.6811 8.10703 18.6755 8.13844 18.6678L8.14188 18.6669C8.17587 18.6579 8.20942 18.6467 8.24212 18.6329C8.2447 18.6321 8.24728 18.6316 8.24986 18.6304C8.25288 18.6295 8.25546 18.6273 8.25804 18.6265C8.32128 18.5985 8.38065 18.5628 8.43443 18.5194C8.44131 18.5133 8.44819 18.5077 8.45508 18.5017C8.46196 18.4957 8.47056 18.4892 8.47788 18.4824L10.9099 16.2005H12.1265C12.7572 16.2005 13.3586 16.4677 13.782 16.9357C14.2049 17.4038 14.4101 18.0293 14.3464 18.657Z" fill="#C62929"/>
<path d="M41.923 13.4983H41.9768C43.9828 13.4962 45.6086 11.8704 45.6112 9.86391V8.65372C45.6086 6.64764 43.9828 5.02187 41.9768 5.01929H41.923C39.9165 5.02187 38.2907 6.64764 38.2886 8.65372V9.86348C38.2907 11.87 39.9165 13.4962 41.923 13.4983ZM39.8305 8.65415C39.8317 7.49903 40.7679 6.56289 41.923 6.5616H41.9768C43.1319 6.56289 44.068 7.49903 44.0693 8.65415V9.86391C44.068 11.019 43.1319 11.9552 41.9768 11.9565H41.923C40.7679 11.9552 39.8317 11.019 39.8305 9.86391V8.65415Z" fill="#C62929"/>
<path d="M46.227 14.6582H44.7053C44.5091 14.6586 44.3207 14.7335 44.1779 14.8677L42.0604 16.854L40.028 14.8763C39.8839 14.7365 39.6912 14.6582 39.4903 14.6582H37.8753C36.8152 14.6582 35.8042 15.1039 35.0888 15.886C34.3738 16.6686 34.021 17.7157 34.1161 18.7715V27.6192C34.1165 28.9249 35.1748 29.9832 36.4805 29.9841H36.5081C36.8247 29.9802 37.1375 29.9114 37.4261 29.7819L37.8322 45.7811C37.8671 46.7654 38.4771 47.6374 39.39 48.0074C40.303 48.3774 41.3479 48.1761 42.0582 47.4937C42.7698 48.1773 43.8165 48.3778 44.7303 48.0057C45.644 47.634 46.2532 46.7589 46.2846 45.7729L46.6903 29.7948C47.4212 30.1063 48.2597 30.0301 48.9227 29.5922C49.5856 29.1538 49.9849 28.4125 49.9849 27.6179V18.7719C50.0804 17.7162 49.7272 16.669 49.0126 15.8869C48.2976 15.1043 47.2866 14.6586 46.227 14.6582ZM43.7872 46.6484C43.2585 46.6479 42.83 46.2195 42.8296 45.6912V29.664H41.2877V45.6912C41.289 46.2121 40.873 46.6385 40.352 46.6501C39.831 46.6617 39.3965 46.2543 39.3741 45.7337L38.9147 27.6511H45.2035L44.744 45.7251C44.7273 46.241 44.3035 46.6501 43.7872 46.6484ZM48.4473 18.657C48.4447 18.6828 48.4434 18.7091 48.4434 18.7349V27.6179C48.4434 28.0735 48.0743 28.4426 47.6187 28.4426C47.1631 28.4426 46.794 28.0735 46.794 27.6179V25.7349L46.803 25.3769H46.794V21.672H45.2521V25.7164L45.2422 26.1087H38.8755L38.8561 25.3378H38.8467V21.672H37.3048V27.5749C37.3151 28.0378 36.9533 28.4233 36.4908 28.4426C36.271 28.4452 36.0593 28.3596 35.9032 28.2052C35.7466 28.0503 35.6584 27.8395 35.6584 27.6196V18.7353C35.6584 18.7091 35.6571 18.6833 35.6545 18.6575C35.5908 18.0293 35.7961 17.4038 36.2194 16.9357C36.6423 16.4677 37.2441 16.2005 37.8753 16.2005H39.1767L41.5131 18.4729C41.5162 18.4759 41.5205 18.4785 41.5239 18.4815C41.5471 18.5039 41.5716 18.5241 41.5975 18.543C41.5992 18.5443 41.6009 18.546 41.6026 18.5473C41.631 18.5671 41.6603 18.5852 41.6908 18.6011C41.6968 18.6041 41.7029 18.6071 41.7089 18.6101C41.7368 18.6243 41.7661 18.6364 41.7958 18.6471L41.8031 18.6497C41.8345 18.6605 41.8668 18.6691 41.8995 18.6755C41.9068 18.6768 41.9145 18.6781 41.9223 18.6794C41.9511 18.6841 41.9803 18.6876 42.0096 18.6893C42.0139 18.6893 42.0182 18.6902 42.0229 18.6906C42.0556 18.6914 42.0883 18.6906 42.1206 18.6871C42.1288 18.6867 42.1365 18.6859 42.1443 18.6846C42.1765 18.6811 42.2084 18.6751 42.2398 18.6674C42.2411 18.6674 42.2423 18.6674 42.2432 18.6669C42.2776 18.6579 42.3108 18.6467 42.3434 18.6329C42.346 18.6321 42.349 18.6316 42.3516 18.6304C42.3542 18.6295 42.3568 18.6273 42.3594 18.6261C42.4226 18.5985 42.482 18.5628 42.5358 18.5194C42.5426 18.5133 42.5495 18.5082 42.5564 18.5017C42.5633 18.4953 42.5719 18.4892 42.5792 18.4824L45.0112 16.2005H46.2278C46.859 16.2005 47.4604 16.4677 47.8833 16.9357C48.3066 17.4038 48.5114 18.0293 48.4477 18.657H48.4473Z" fill="#C62929"/>
<path d="M24.8725 13.4983H24.9263C26.9323 13.4962 28.5585 11.8704 28.5607 9.86391V8.65372C28.5585 6.64764 26.9323 5.02187 24.9263 5.01929H24.8725C22.8664 5.02187 21.2406 6.64764 21.238 8.65372V9.86348C21.2402 11.87 22.866 13.4962 24.8725 13.4983ZM22.7799 8.65415C22.7812 7.49903 23.7174 6.56289 24.8725 6.5616H24.9263C26.0814 6.56289 27.0175 7.49903 27.0188 8.65415V9.86391C27.0175 11.019 26.0814 11.9552 24.9263 11.9565H24.8725C23.7174 11.9552 22.7812 11.019 22.7799 9.86391V8.65372V8.65415Z" fill="#C62929"/>
<path d="M29.1769 14.6582H27.6549C27.4587 14.6586 27.2702 14.7335 27.1274 14.8677L25.0099 16.8544L22.9776 14.8763C22.8339 14.7365 22.6407 14.6582 22.4402 14.6582H20.8252C19.7652 14.6582 18.7542 15.1039 18.0392 15.886C17.3237 16.6686 16.9709 17.7157 17.066 18.7715V27.6192C17.0665 28.9249 18.1248 29.9832 19.4305 29.9841H19.458C19.7746 29.9802 20.0874 29.9114 20.3761 29.7819L20.7826 45.7811C20.817 46.7658 21.4275 47.6379 22.3404 48.0074C23.2533 48.3774 24.2983 48.1761 25.0086 47.4937C25.7198 48.1773 26.7669 48.3778 27.6807 48.0061C28.594 47.634 29.2032 46.7589 29.235 45.7729L29.6403 29.7948C30.3716 30.1063 31.2101 30.0301 31.8731 29.5922C32.5361 29.1542 32.9349 28.4125 32.9349 27.6179V18.7719C33.0304 17.7162 32.6776 16.669 31.9626 15.8865C31.2476 15.1043 30.2366 14.6586 29.1769 14.6582ZM26.7368 46.6484C26.2085 46.6479 25.78 46.2194 25.7796 45.6911V29.664H24.2377V45.6911C24.2372 46.2113 23.8217 46.6359 23.3015 46.6475C22.7814 46.6591 22.3473 46.2534 22.3237 45.7337L21.8646 27.651H28.153L27.6936 45.7251C27.6772 46.241 27.253 46.6501 26.7368 46.6484ZM31.3973 18.657C31.3943 18.6828 31.393 18.7091 31.393 18.7349V27.6179C31.393 28.0735 31.0239 28.4426 30.5683 28.4426C30.1127 28.4426 29.7435 28.0735 29.7435 27.6179V25.7349L29.7526 25.3769H29.7435V21.672H28.2017V25.7164L28.1918 26.1087H21.8255L21.8057 25.3378H21.7966V21.672H20.2548V27.5749C20.2651 28.0378 19.9028 28.4233 19.4408 28.4426C19.221 28.4452 19.0089 28.3596 18.8527 28.2052C18.6961 28.0503 18.6083 27.8395 18.6079 27.6196V18.7353C18.6079 18.7091 18.6066 18.6833 18.604 18.6575C18.5404 18.0293 18.746 17.4038 19.1689 16.9357C19.5922 16.4672 20.1941 16.2001 20.8252 16.2005H22.127L24.4631 18.4729C24.4665 18.4759 24.4704 18.4785 24.4743 18.4815C24.4971 18.5034 24.5216 18.5241 24.5474 18.543C24.5491 18.5443 24.5509 18.546 24.553 18.5473C24.581 18.5671 24.6102 18.5852 24.6404 18.6007C24.6464 18.6041 24.6524 18.6071 24.6589 18.6101C24.6868 18.6243 24.7156 18.6364 24.7449 18.6467C24.7475 18.648 24.7501 18.6493 24.7531 18.6501C24.7845 18.6605 24.8163 18.6691 24.849 18.6755C24.8567 18.6768 24.8641 18.6781 24.8718 18.6794C24.9006 18.6846 24.9299 18.6876 24.9591 18.6893C24.9634 18.6893 24.9682 18.6902 24.9725 18.6906C25.0052 18.6914 25.0379 18.6906 25.0706 18.6871C25.0783 18.6867 25.0861 18.6859 25.0938 18.6846C25.1265 18.6811 25.1583 18.6751 25.1897 18.6674L25.1932 18.6669C25.2272 18.6579 25.2607 18.6467 25.2934 18.6329C25.296 18.6321 25.2986 18.6316 25.3012 18.6304C25.3037 18.6295 25.3068 18.6273 25.3093 18.6261C25.3726 18.5985 25.4319 18.5628 25.4857 18.5194C25.4926 18.5133 25.4995 18.5082 25.5064 18.5017C25.5133 18.4953 25.5219 18.4892 25.5287 18.4824L27.9607 16.2005H29.1774C29.8085 16.2005 30.4099 16.4677 30.8333 16.9357C31.2562 17.4038 31.4614 18.0293 31.3973 18.657Z" fill="#C62929"/>
<path d="M20.1362 6.71553V5.50577C20.134 3.49926 18.5083 1.87349 16.5017 1.87134H16.4484C14.4419 1.87349 12.8161 3.49926 12.814 5.50577V6.71553C12.8161 8.72161 14.4419 10.3474 16.4484 10.35H16.5017C18.5083 10.3478 20.134 8.72161 20.1362 6.71553ZM18.5943 6.71553C18.593 7.87065 17.6573 8.80679 16.5017 8.80808H16.4484C15.2933 8.80679 14.3571 7.87065 14.3558 6.71553V5.50577C14.3571 4.35065 15.2933 3.41451 16.4484 3.41322H16.5017C17.6573 3.41451 18.593 4.35065 18.5943 5.50577V6.71553Z" fill="#C62929"/>
<path d="M37.1867 6.71553V5.50577C37.1845 3.49926 35.5587 1.87349 33.5522 1.87134H33.4985C31.4924 1.87349 29.8666 3.49926 29.864 5.50577V6.71553C29.8666 8.72161 31.4924 10.3474 33.4985 10.35H33.5522C35.5587 10.3478 37.1845 8.72161 37.1867 6.71553ZM35.6448 6.71553C35.6435 7.87065 34.7073 8.80679 33.5522 8.80808H33.4985C32.3433 8.80679 31.4072 7.87065 31.4059 6.71553V5.50577C31.4072 4.35065 32.3433 3.41451 33.4985 3.41322H33.5522C34.7073 3.41451 35.6435 4.35065 35.6448 5.50577V6.71553Z" fill="#C62929"/>
</g>
<defs>
<clipPath id="clip0">
<rect width="50" height="50" fill="white"/>
</clipPath>
</defs>
</svg>
