<svg width="50" height="50" fill="none" xmlns="http://www.w3.org/2000/svg"><path d="M25 29.978a12.07 12.07 0 10-12.07-12.07A12.083 12.083 0 0025 29.978zm0-22.77a10.704 10.704 0 11-10.703 10.703A10.713 10.713 0 0125 7.208z" fill="#C62929"/><path d="M20.933 19.737l-1.51 4.527a.683.683 0 001.029.784L25 22.016l4.549 3.032a.684.684 0 001.027-.784l-1.509-4.527 2.987-2.987a.684.684 0 00-.484-1.166h-4.435l-1.487-4.461a.684.684 0 00-1.296 0l-1.487 4.46H18.43a.683.683 0 00-.483 1.167l2.986 2.987zm2.426-2.786a.684.684 0 00.649-.47l.992-2.98.994 2.983a.683.683 0 00.649.469h3.279l-2.118 2.118a.683.683 0 00-.165.7l1.012 3.037-3.272-2.183a.684.684 0 00-.758 0l-3.27 2.18 1.012-3.038a.683.683 0 00-.165-.7L20.08 16.95h3.28z" fill="#C62929"/><path d="M41.627 42.788L35.29 29.91a2.174 2.174 0 001.752-2.13v-1.288a.801.801 0 01.497-.743l1.192-.494a2.17 2.17 0 001.174-2.837l-.49-1.188a.802.802 0 01.174-.876l.908-.908a2.174 2.174 0 000-3.07l-.912-.913a.802.802 0 01-.175-.876l.494-1.193a2.17 2.17 0 00-1.177-2.836l-1.187-.491a.802.802 0 01-.496-.742V8.039a2.174 2.174 0 00-2.172-2.171H33.58a.801.801 0 01-.742-.496l-.493-1.192a2.171 2.171 0 00-2.839-1.172l-1.185.49a.804.804 0 01-.877-.175l-.908-.907a2.174 2.174 0 00-3.07 0l-.913.912a.801.801 0 01-.876.175l-1.193-.495a2.172 2.172 0 00-2.836 1.176l-.49 1.187a.801.801 0 01-.743.497H15.13a2.174 2.174 0 00-2.171 2.171v1.29a.801.801 0 01-.496.742l-1.193.494a2.17 2.17 0 00-1.172 2.837l.492 1.186a.801.801 0 01-.174.876l-.908.908a2.174 2.174 0 000 3.07l.912.913a.802.802 0 01.175.877l-.494 1.192a2.171 2.171 0 001.177 2.836l1.183.493a.803.803 0 01.496.742v1.284a2.174 2.174 0 001.753 2.13L8.371 42.787a.684.684 0 00.834.95l6.094-2.074 2.073 6.094a.683.683 0 00.603.462h.044a.684.684 0 00.614-.382L25 34.904l6.367 12.934a.684.684 0 00.613.382h.045a.684.684 0 00.603-.462l2.073-6.094 6.094 2.073a.685.685 0 00.834-.948h-.002zM14.326 27.78v-1.284a2.165 2.165 0 00-1.341-2.006L11.799 24a.803.803 0 01-.436-1.051l.494-1.191a2.165 2.165 0 00-.471-2.366l-.913-.916a.804.804 0 010-1.137l.907-.907a2.164 2.164 0 00.47-2.367l-.49-1.184a.802.802 0 01.434-1.051l1.192-.494a2.166 2.166 0 001.34-2.006V8.04a.805.805 0 01.804-.803h1.284a2.165 2.165 0 002.006-1.341l.49-1.186a.803.803 0 011.05-.437l1.194.493a2.166 2.166 0 002.365-.47l.912-.912a.824.824 0 011.138 0l.907.907a2.164 2.164 0 002.367.471l1.186-.492a.803.803 0 011.05.435l.495 1.192a2.165 2.165 0 002.005 1.34h1.291a.805.805 0 01.804.804v1.283a2.165 2.165 0 001.341 2.004l1.188.492a.804.804 0 01.436 1.05l-.496 1.192a2.165 2.165 0 00.471 2.366l.913.913a.805.805 0 010 1.137l-.907.907a2.165 2.165 0 00-.47 2.367l.492 1.186a.804.804 0 01-.435 1.05l-1.192.495a2.167 2.167 0 00-1.34 2.006v1.289a.805.805 0 01-.803.804h-1.286a2.165 2.165 0 00-2.006 1.34l-.49 1.187a.804.804 0 01-1.05.437l-1.194-.491a2.166 2.166 0 00-2.365.468l-.912.913a.824.824 0 01-1.138 0l-.907-.908a2.164 2.164 0 00-2.367-.468l-1.186.491a.802.802 0 01-1.05-.434l-.495-1.195a2.164 2.164 0 00-2.005-1.34h-1.29a.805.805 0 01-.805-.802zm3.81 17.974l-1.762-5.178a.682.682 0 00-.868-.427l-5.178 1.762 5.887-11.96h.206a.802.802 0 01.742.496l.493 1.194a2.171 2.171 0 002.837 1.171l1.187-.49a.803.803 0 01.877.174l.907.907c.164.16.352.291.557.39l-5.885 11.96zm16.356-5.605a.683.683 0 00-.867.427l-1.762 5.178-5.886-11.96c.205-.099.393-.23.557-.39l.913-.912a.8.8 0 01.875-.175l1.193.494a2.171 2.171 0 002.837-1.177l.49-1.185a.801.801 0 01.742-.497h.199l5.887 11.96-5.178-1.763z" fill="#C62929"/></svg>