<svg width="50" height="50" fill="none" xmlns="http://www.w3.org/2000/svg"><g clip-path="url(#clip0)"><path d="M49.179 23.845a2.907 2.907 0 00-1.382-.806c.31-.492.465-1.064.443-1.66-.055-1.558-1.392-2.824-2.98-2.824h-5.801l-.006-8.692a3.422 3.422 0 00-3.418-3.418 3.422 3.422 0 00-3.418 3.418v2.3c0 .59-.125 1.16-.354 1.68-4.301-.161-7.751-3.709-7.751-8.049V4.736c0-.673-.548-1.22-1.221-1.22H10.693c-.673 0-1.22.547-1.22 1.22v.83c0 4.443-3.614 8.057-8.057 8.057h-.195c-.674 0-1.221.548-1.221 1.22v14.65c0 9.369 7.623 16.991 16.992 16.991a16.982 16.982 0 0015.428-9.863h10.21c.667 0 1.319-.275 1.788-.753a2.398 2.398 0 00.493-2.665h.349c1.588 0 2.925-1.267 2.98-2.824a2.907 2.907 0 00-.45-1.672c1.228-.33 2.162-1.426 2.208-2.722a2.908 2.908 0 00-.82-2.14zM16.992 45.02c-8.562 0-15.527-6.966-15.527-15.528V15.088c5.228-.027 9.473-4.288 9.473-9.522V4.98h12.109v.814c0 4.809 3.583 8.796 8.22 9.432a4.36 4.36 0 01-.572.44l-4.001 2.545a2.19 2.19 0 01-1.18.344h-.9a2.2 2.2 0 00-2.104-1.563h-4.102a2.2 2.2 0 00-2.071 1.465h-3.593c-1.05 0-1.904.854-1.904 1.904V32.96c0 1.05.854 1.904 1.904 1.904h3.467v7.206c-6.58-.38-11.816-5.854-11.816-12.528V17.405c5.03-.366 9.04-4.472 9.252-9.544h2.564v6.446a.732.732 0 101.465 0V7.129a.732.732 0 00-.733-.733h-4.02a.732.732 0 00-.732.733v.31c0 4.702-3.826 8.528-8.529 8.528a.732.732 0 00-.732.732v12.842c0 7.727 6.286 14.014 14.013 14.014a.732.732 0 00.733-.733v-6.569c.171.048.35.075.537.075h4.297c.718 0 1.356-.346 1.757-.88l.781.443c.844.478 1.801.73 2.77.73h2.972a15.518 15.518 0 01-13.798 8.398zm-.781-11.622h-3.467a.44.44 0 01-.44-.439V20.361a.44.44 0 01.44-.44h3.467v13.477zm30.807-6.054h-5.71a.732.732 0 100 1.465h4.005a1.461 1.461 0 011.464 1.519c-.028.777-.709 1.41-1.517 1.41h-2.584c-.017 0-.033.002-.049.003l-.049-.003h-1.27a.732.732 0 100 1.465h1.27l.049-.002.049.002c.528 0 .966.43.976.958a.946.946 0 01-.279.681c-.196.2-.466.314-.742.314H27.817a4.156 4.156 0 01-2.046-.54l-1.064-.603v-1.656a.733.733 0 00-1.465 0v1.774a.733.733 0 01-.732.732h-4.297a.538.538 0 01-.537-.537V19.19c0-.404.328-.732.732-.732h4.102c.404 0 .732.328.732.732v9.75a.732.732 0 101.465 0v-8.92h.807a3.65 3.65 0 001.966-.572l4.002-2.546a5.588 5.588 0 002.6-4.737v-2.3c0-1.078.876-1.954 1.953-1.954s1.953.876 1.953 1.954l.006 8.936c0 .672.548 1.22 1.22 1.22h6.046c.808 0 1.489.632 1.516 1.41a1.45 1.45 0 01-.41 1.071 1.454 1.454 0 01-1.053.448h-4.004a.732.732 0 100 1.465h5.761c.401 0 .776.16 1.055.448.278.288.423.669.409 1.071-.027.778-.708 1.41-1.516 1.41z" fill="#C62929"/></g><defs><clipPath id="clip0"><path fill="#fff" d="M0 0h50v50H0z"/></clipPath></defs></svg>