<svg width="50" height="50" fill="none" xmlns="http://www.w3.org/2000/svg"><path d="M28.906 22.656a.977.977 0 10.001 1.954.977.977 0 000-1.954zM25 16.797a.977.977 0 100 1.954.977.977 0 000-1.954zM13.281 42.188a.977.977 0 10.001 1.953.977.977 0 000-1.953z" fill="#C62929"/><path d="M44.377 39.812L31.836 17.518V5.692a2.935 2.935 0 001.953-2.762A2.933 2.933 0 0030.86 0H19.141a2.933 2.933 0 00-2.93 2.93c0 1.273.816 2.359 1.953 2.762v11.826L5.624 39.812a6.772 6.772 0 00.056 6.803A6.77 6.77 0 0011.581 50h26.838a6.77 6.77 0 005.9-3.385 6.772 6.772 0 00.058-6.803zm-24.385-21.56a.976.976 0 00.125-.479V5.86h.977a.977.977 0 000-1.953H19.14a.978.978 0 010-1.953h11.718a.978.978 0 010 1.953h-1.953a.977.977 0 000 1.953h.977v11.914c0 .168.043.333.125.48l5.756 10.232c-3.515-.284-7.018.427-10.236 2.093-4.138 2.141-8.743 2.518-13.086 1.096l7.55-13.422zM42.633 45.63a4.836 4.836 0 01-4.214 2.418H11.58a4.836 4.836 0 01-4.214-2.418 4.837 4.837 0 01-.041-4.86l4.141-7.362a18.714 18.714 0 007.134 1.033 18.959 18.959 0 007.825-2.127c3.3-1.71 6.93-2.299 10.525-1.717l5.723 10.174a4.837 4.837 0 01-.04 4.86z" fill="#C62929"/><path d="M21.094 22.656a2.933 2.933 0 00-2.93 2.93 2.933 2.933 0 002.93 2.93 2.933 2.933 0 002.93-2.93 2.933 2.933 0 00-2.93-2.93zm0 3.907a.978.978 0 010-1.954.978.978 0 010 1.953zm15.625 15.625H17.187a.977.977 0 000 1.953H36.72a.977.977 0 000-1.953z" fill="#C62929"/></svg>