<svg width="50" height="50" fill="none" xmlns="http://www.w3.org/2000/svg"><g clip-path="url(#clip0)"><path d="M12.5 50a31.143 31.143 0 009.526-1.573 37.278 37.278 0 009.36-4.555 35.5 35.5 0 006.737-5.818.849.849 0 00.185-.351 73.714 73.714 0 001.584-8.386c.572.653.905 1.482.941 2.35a.833.833 0 001.275.707c.29-.182 7.024-4.571 4.59-18.089A33.853 33.853 0 0050 .834a.833.833 0 00-1.354-.651l-4.167 3.333a.833.833 0 00-.287.449 36.355 36.355 0 01-2.359 6.335 11.3 11.3 0 00-1.684-.132 25.856 25.856 0 00-7.912 1.542.833.833 0 00.263 1.624 3.408 3.408 0 012.667 1.691 13.06 13.06 0 00-7.9.008.833.833 0 00-.255.122 100.45 100.45 0 00-10.935 9.256.833.833 0 00.59 1.423c1.636.058 3.24.47 4.7 1.21-2.355-.215-5.583-.134-7.7 1.456-2.567 1.926-5.707 5.346-9.333 10.167a38.305 38.305 0 00-4.274 7.69c-.14.35-.028.75.273.977C.478 47.443 3.987 50 12.5 50zM45.736 4.645l2.482-1.986a32.73 32.73 0 01-3.135 11.136c-2.891 5.789-14.69 19.461-25.288 24.418 5.776-4.121 16.5-13.11 23.45-27.007a37.687 37.687 0 002.49-6.56zM5.666 39.667a92.967 92.967 0 013.455-4.333 26.948 26.948 0 017.546-1.167.833.833 0 000-1.667 27.144 27.144 0 00-5.558.613 29.266 29.266 0 013.558-3.28c2.972-2.23 9.235-.706 9.298-.691a.833.833 0 00.868-1.308 9.925 9.925 0 00-6.306-3.481 101.73 101.73 0 019.34-7.757c5.235-1.443 8.179.65 8.3.738a.833.833 0 001.316-.834 6.072 6.072 0 00-2.35-3.916c1.905-.56 3.891-.8 5.876-.71a74.866 74.866 0 01-22.182 24.983 1.633 1.633 0 00-.472 2.19 1.65 1.65 0 002.16.67c10.166-4.756 20.67-16.514 24.846-23.07.921 7.883-1.631 11.847-3.136 13.437a7.31 7.31 0 00-2.596-3.279.833.833 0 00-1.296.695c0 2.878-1.32 8.476-1.593 9.6a32.383 32.383 0 01-2.315 2.312c.371-1.441.564-2.923.575-4.412a.833.833 0 10-1.667 0 18.058 18.058 0 01-1.266 6.353 36.035 36.035 0 01-6.971 4.116c.302-.62.541-1.268.713-1.935a.834.834 0 00-1.618-.4 11.119 11.119 0 01-1.593 3.343A30.2 30.2 0 0112.5 48.334c-6.064 0-9.39-1.369-10.614-2.01a36.235 36.235 0 013.78-6.657z" fill="#fff"/></g><defs><clipPath id="clip0"><path fill="#fff" d="M0 0h50v50H0z"/></clipPath></defs></svg>