<svg width="50" height="50" fill="none" xmlns="http://www.w3.org/2000/svg"><path d="M47.5.108h-45a2.5 2.5 0 00-2.5 2.5v21.667a2.5 2.5 0 002.5 2.5h45a2.5 2.5 0 002.5-2.5V2.608a2.5 2.5 0 00-2.5-2.5zm.833 24.167c0 .46-.373.833-.833.833h-45a.833.833 0 01-.833-.833V2.608c0-.46.373-.833.833-.833h45c.46 0 .833.373.833.833v21.667z" fill="#fff"/><path d="M45.833 7.608A3.333 3.333 0 0142.5 4.275a.833.833 0 00-.833-.833H8.333a.833.833 0 00-.833.833 3.333 3.333 0 01-3.333 3.333.833.833 0 00-.834.834v10c0 .46.373.833.834.833A3.333 3.333 0 017.5 22.608c0 .46.373.834.833.834h33.334c.46 0 .833-.373.833-.834a3.333 3.333 0 013.333-3.333c.46 0 .834-.373.834-.833v-10a.833.833 0 00-.834-.834zM9.1 21.775a5 5 0 00-4.1-4.1V9.167a5 5 0 004.1-4.092h10.383a10 10 0 000 16.667L9.1 21.775zM25 5.108a8.333 8.333 0 110 16.667 8.333 8.333 0 010-16.667zm20 12.567a5 5 0 00-4.1 4.1H30.517a10 10 0 000-16.667H40.9A5 5 0 0045 9.167v8.508z" fill="#fff"/><path d="M25 17.608c-.92 0-1.667-.746-1.667-1.666a.833.833 0 00-1.666 0 3.333 3.333 0 002.5 3.225v.958a.833.833 0 001.666 0v-.958A3.333 3.333 0 0025 12.625a1.667 1.667 0 111.667-1.667.833.833 0 101.666 0 3.333 3.333 0 00-2.5-3.216v-.967a.833.833 0 00-1.666 0v.95a3.333 3.333 0 00.833 6.55 1.667 1.667 0 110 3.333zm-9.583 18.334c.69 0 1.25-.56 1.25-1.25v-5c0-.69-.56-1.25-1.25-1.25h-7.5c-.69 0-1.25.56-1.25 1.25v5c0 .69.56 1.25 1.25 1.25h7.5zm-7.084-5.834H15v4.167H8.333v-4.167zm20.417 9.167c.69 0 1.25-.56 1.25-1.25v-8.333c0-.69-.56-1.25-1.25-1.25h-7.5c-.69 0-1.25.56-1.25 1.25v8.333c0 .69.56 1.25 1.25 1.25h7.5zm-7.083-9.167h6.666v7.5h-6.666v-7.5zm20.416-1.666h-7.5c-.69 0-1.25.56-1.25 1.25v11.25h-.741a1.25 1.25 0 00-.925 2.075l5.741 6.458a1.25 1.25 0 001.867 0L45 43.017a1.25 1.25 0 00-.933-2.075h-.734v-11.25c0-.69-.56-1.25-1.25-1.25zm-3.75 19.575l-4.808-5.409h.225c.69 0 1.25-.56 1.25-1.25v-11.25h6.667v11.25c0 .69.56 1.25 1.25 1.25h.225l-4.809 5.409z" fill="#fff"/></svg>