<svg width="50" height="50" fill="none" xmlns="http://www.w3.org/2000/svg"><g clip-path="url(#clip0)" fill="#C62929"><path d="M50 26.667v-5c0-.92-.746-1.667-1.667-1.667v-.833a2.5 2.5 0 00-2.5-2.5H29.167v-3.1l1.035-.259a.833.833 0 00-.404-1.616l-.631.157v-1.615l1.035-.259a.833.833 0 00-.404-1.617l-.631.158V6.9l1.035-.26a.833.833 0 10-.404-1.616l-.631.158V3.567l1.035-.259a.833.833 0 00-.404-1.616l-.631.157V.833A.833.833 0 0028.333 0h-6.666a.833.833 0 00-.834.833v3.1l-1.035.259a.834.834 0 10.405 1.616l.63-.157v1.615l-1.035.259a.834.834 0 10.405 1.617l.63-.158V10.6l-1.036.26a.833.833 0 10.406 1.616l.63-.157v1.615l-1.036.259a.833.833 0 10.406 1.617l.63-.158v1.016H4.167a2.5 2.5 0 00-2.5 2.5V20C.747 20 0 20.746 0 21.667v5c0 .92.746 1.666 1.667 1.666h12.271a6.638 6.638 0 000 10H1.667C.747 38.333 0 39.08 0 40v5c0 .92.746 1.667 1.667 1.667v.833a2.5 2.5 0 002.5 2.5h41.666a2.5 2.5 0 002.5-2.5v-.833c.92 0 1.667-.747 1.667-1.667v-5c0-.92-.746-1.667-1.667-1.667H36.062a6.638 6.638 0 000-10h12.271c.92 0 1.667-.746 1.667-1.666zm-27.5-25h5v.599l-5 1.25v-1.85zm0 3.567l5-1.25V5.6l-5 1.25V5.234zm0 3.333l5-1.25v1.616l-5 1.25V8.566zm0 3.334l5-1.25v1.615l-5 1.25V11.9zm0 3.333l5-1.25v2.683h-5v-1.433zM3.333 19.167c0-.46.373-.834.834-.834h41.666c.46 0 .834.373.834.834V20H3.333v-.833zM46.667 47.5c0 .46-.373.833-.834.833H4.167a.833.833 0 01-.834-.833v-.833h43.334v.833zm1.666-7.5v5H1.667v-5h46.666zm-11.666-6.667a5.005 5.005 0 01-5 5H18.333a5 5 0 010-10h13.334a5.005 5.005 0 015 5zm-5-6.666h-30v-5h46.666v5H31.667z"/><path d="M4.167 43.333h2.5a.833.833 0 100-1.666h-2.5a.833.833 0 000 1.666zM31.667 30H18.333a3.333 3.333 0 000 6.667.833.833 0 100-1.667 1.667 1.667 0 110-3.333h13.334a1.667 1.667 0 110 3.333.833.833 0 100 1.667 3.333 3.333 0 000-6.667z"/></g><defs><clipPath id="clip0"><path fill="#fff" d="M0 0h50v50H0z"/></clipPath></defs></svg>