<svg width="50" height="52" fill="none" xmlns="http://www.w3.org/2000/svg"><g clip-path="url(#clip0)" fill="#C62929"><path d="M36.719 9.761H13.28a1.47 1.47 0 00-1.465 1.473V23.21a1.47 1.47 0 001.465 1.473h23.44a1.47 1.47 0 001.465-1.473V11.234a1.47 1.47 0 00-1.465-1.473zm-1.465 11.977H14.746v-9.032h20.508v9.032zM16.21 27.627a1.47 1.47 0 00-1.464 1.473v5.89c0 .813.656 1.472 1.465 1.472s1.465-.659 1.465-1.472V29.1a1.47 1.47 0 00-1.465-1.473zm8.79 0a1.47 1.47 0 00-1.465 1.473v5.89c0 .813.656 1.472 1.465 1.472s1.465-.659 1.465-1.472V29.1A1.47 1.47 0 0025 27.627zm8.79 0c-.81 0-1.466.66-1.466 1.473v5.89c0 .813.656 1.472 1.465 1.472s1.465-.659 1.465-1.472V29.1a1.47 1.47 0 00-1.465-1.473z"/><path d="M45.508 15.848h-1.465V5.344c0-.615-.38-1.166-.954-1.38C42.758 3.84 34.86.926 25 .926 15.141.926 7.242 3.84 6.91 3.964a1.472 1.472 0 00-.953 1.38v10.503H4.492a1.47 1.47 0 00-1.465 1.473 1.47 1.47 0 001.465 1.473h1.465v13.252C5.957 42.6 14.5 51.187 25 51.187S44.043 42.6 44.043 32.045V18.792h1.465c.809 0 1.465-.659 1.465-1.472s-.656-1.473-1.465-1.473zm-4.395 16.197c0 8.931-7.228 16.197-16.113 16.197S8.887 40.976 8.887 32.045V6.402c2.34-.746 8.713-2.53 16.113-2.53s13.773 1.784 16.113 2.53v25.643z"/></g><defs><clipPath id="clip0"><path fill="#fff" transform="translate(0 .926)" d="M0 0h50v50.261H0z"/></clipPath></defs></svg>