<svg width="50" height="50" fill="none" xmlns="http://www.w3.org/2000/svg"><g clip-path="url(#clip0)" fill="#fff"><path d="M31.949.27a1.04 1.04 0 00-1.398 0c-.453.409-10.829 9.892-15.647 20.883a5.52 5.52 0 00-1.89-.32c-1.824 0-2.803.681-3.59 1.229-.686.478-1.228.855-2.399.855-1.169 0-1.71-.378-2.396-.855-.786-.547-1.764-1.228-3.587-1.228a1.041 1.041 0 100 2.083c1.169 0 1.71.377 2.396.854.786.548 1.764 1.23 3.587 1.23 1.824 0 2.804-.682 3.59-1.23.687-.477 1.229-.854 2.399-.854 1.172 0 1.715.377 2.402.855.787.548 1.766 1.228 3.591 1.228 1.824 0 2.804-.68 3.591-1.227.687-.479 1.23-.856 2.402-.856a1.041 1.041 0 100-2.083c-1.825 0-2.805.68-3.592 1.227-.687.479-1.23.856-2.4.856-1.095 0-1.643-.334-2.27-.767C20.656 13.101 28.814 4.82 31.25 2.473 34.494 5.6 47.916 19.257 47.916 31.25c0 9.19-7.476 16.667-16.666 16.667a16.594 16.594 0 01-11.111-4.273c1.127-.21 1.855-.701 2.46-1.122.686-.478 1.23-.855 2.401-.855a1.041 1.041 0 100-2.084c-1.825 0-2.805.681-3.592 1.228-.686.478-1.23.856-2.4.856-1.172 0-1.716-.378-2.402-.856-.788-.547-1.767-1.228-3.592-1.228-1.824 0-2.803.681-3.589 1.228-.686.478-1.229.856-2.4.856-1.168 0-1.71-.378-2.396-.855-.786-.547-1.764-1.229-3.587-1.229a1.041 1.041 0 100 2.084c1.169 0 1.711.377 2.397.854.785.547 1.764 1.23 3.586 1.23 1.824 0 2.804-.682 3.59-1.23.687-.477 1.229-.854 2.399-.854 1.172 0 1.715.377 2.403.855.424.296.919.62 1.558.866C20.55 47.587 25.731 50 31.25 50 41.588 50 50 41.589 50 31.25 50 16.762 32.685.936 31.949.27z"/><path d="M1.042 35.417c1.169 0 1.71.377 2.396.854.786.548 1.764 1.23 3.587 1.23a1.041 1.041 0 100-2.084c-1.169 0-1.71-.378-2.396-.855-.786-.547-1.764-1.228-3.587-1.228a1.041 1.041 0 100 2.083zm11.972-2.083a1.041 1.041 0 100 2.083c1.172 0 1.715.377 2.402.855.787.548 1.766 1.228 3.591 1.228 1.824 0 2.804-.68 3.591-1.228.687-.478 1.23-.855 2.402-.855 1.191 0 1.797.387 2.563.878.884.564 1.886 1.205 3.687 1.205a1.041 1.041 0 100-2.083c-1.191 0-1.798-.388-2.564-.878-.884-.565-1.886-1.205-3.686-1.205-1.825 0-2.805.68-3.592 1.227-.687.478-1.23.856-2.4.856-1.172 0-1.716-.378-2.403-.856-.787-.547-1.766-1.227-3.591-1.227zm0-6.25c-1.824 0-2.803.68-3.59 1.227-.686.479-1.228.856-2.399.856-1.169 0-1.71-.378-2.396-.855-.786-.547-1.764-1.228-3.587-1.228a1.041 1.041 0 100 2.083c1.169 0 1.71.377 2.396.854.786.548 1.764 1.23 3.587 1.23 1.824 0 2.804-.682 3.59-1.23.687-.477 1.229-.854 2.399-.854a1.041 1.041 0 100-2.083zm9.584 2.938c.687-.478 1.23-.855 2.402-.855 1.169 0 1.71.377 2.397.854.785.548 1.764 1.23 3.586 1.23 1.824 0 2.804-.682 3.59-1.23.687-.477 1.229-.854 2.399-.854a1.041 1.041 0 100-2.084c-1.824 0-2.803.681-3.589 1.228-.687.478-1.229.856-2.4.856-1.169 0-1.71-.378-2.396-.855-.786-.547-1.764-1.229-3.587-1.229-1.825 0-2.805.681-3.592 1.228-.687.478-1.23.856-2.4.856a1.041 1.041 0 100 2.083c1.823 0 2.803-.68 3.59-1.228z"/></g><defs><clipPath id="clip0"><path fill="#fff" d="M0 0h50v50H0z"/></clipPath></defs></svg>