<svg width="50" height="51" fill="none" xmlns="http://www.w3.org/2000/svg"><path d="M30.272 22.872c2.891-1.858 5.284-4.265 6.92-6.961 1.594-2.627 2.461-5.445 2.585-8.386h.067c.608 0 1.191-.244 1.622-.676.43-.432.672-1.019.673-1.63V2.863a.738.738 0 00-.733-.737H8.594a.73.73 0 00-.733.737v2.356c.001.611.243 1.198.673 1.63.43.433 1.014.676 1.622.676h.066c.124 2.941.991 5.759 2.586 8.386 1.636 2.696 4.03 5.103 6.92 6.96a3.297 3.297 0 010 5.531c-2.891 1.858-5.284 4.265-6.92 6.962-1.595 2.627-2.462 5.444-2.585 8.386a2.389 2.389 0 00-1.671.715 2.414 2.414 0 00-.69 1.689v2.258a.738.738 0 00.732.736h32.812a.73.73 0 00.733-.736v-2.356a2.315 2.315 0 00-.673-1.63 2.291 2.291 0 00-1.622-.677h-.066c-.124-2.941-.991-5.759-2.586-8.385-1.636-2.697-4.03-5.103-6.92-6.961a3.298 3.298 0 010-5.531zM9.326 5.219v-1.62h31.348v1.62a.837.837 0 01-.83.834H10.156a.829.829 0 01-.586-.245.838.838 0 01-.244-.59zm31.348 40.837v1.62H9.326v-1.522c0-.248.098-.485.272-.66a.926.926 0 01.656-.273h29.59a.83.83 0 01.83.835zm-25.408-2.307c.96-1.532 3.343-2.966 6.757-4.034 1.31-.41 2.326-.996 2.977-1.703.65.707 1.667 1.293 2.977 1.703 3.414 1.068 5.796 2.502 6.757 4.034H15.266zm12.037-18.112a4.754 4.754 0 00.578 2.285c.38.7.932 1.293 1.602 1.721 5.385 3.46 8.568 8.57 8.827 14.106h-1.94c-.876-2.182-3.666-4.098-7.958-5.44-1.46-.457-2.476-1.17-2.716-1.907a.736.736 0 00-.696-.507.73.73 0 00-.696.507c-.24.737-1.256 1.45-2.716 1.907-4.292 1.342-7.083 3.258-7.96 5.44H11.69c.26-5.537 3.443-10.645 8.827-14.106a4.747 4.747 0 001.6-1.723 4.778 4.778 0 000-4.566 4.748 4.748 0 00-1.6-1.723c-5.385-3.46-8.568-8.569-8.827-14.106h26.62c-.26 5.537-3.442 10.645-8.826 14.106a4.724 4.724 0 00-1.603 1.721c-.381.7-.58 1.487-.578 2.285z" fill="#C62929"/><path d="M34.992 12.691a.734.734 0 00-.627-.355h-18.73a.73.73 0 00-.627.355.74.74 0 00-.022.723c1.38 2.64 3.601 4.996 6.425 6.811a6.394 6.394 0 011.9 1.885 6.43 6.43 0 01.966 2.5.738.738 0 00.723.62.73.73 0 00.723-.62 6.431 6.431 0 01.966-2.5 6.393 6.393 0 011.9-1.885c2.824-1.815 5.046-4.17 6.425-6.81a.74.74 0 00-.022-.724zM27.8 18.984a7.888 7.888 0 00-2.8 3.13 7.887 7.887 0 00-2.8-3.13c-2.215-1.423-4.023-3.196-5.29-5.176h16.18c-1.267 1.98-3.076 3.753-5.29 5.176zM25 26.471a.73.73 0 00-.732.737v.784a.738.738 0 00.732.736.73.73 0 00.732-.736v-.784a.738.738 0 00-.732-.736zm0 3.927a.73.73 0 00-.732.736v.784a.738.738 0 00.732.737.73.73 0 00.732-.737v-.784a.738.738 0 00-.732-.736z" fill="#C62929"/></svg>