<svg width="35" height="35" fill="none" xmlns="http://www.w3.org/2000/svg"><g clip-path="url(#clip0)" fill="#C62929"><path d="M26.337 8.334L11.942 17.2a2.154 2.154 0 00-.938 2.415l1.557 5.468a1.06 1.06 0 001.106.774 1.06 1.06 0 00.982-.924l.404-2.999c.055-.404.25-.779.547-1.056L27.48 9.836a.944.944 0 00.11-1.268.946.946 0 00-1.252-.234zM14.65 19.857a3.169 3.169 0 00-.98 1.89l-.196 1.455-1.13-3.97a.754.754 0 01.329-.845l10.545-6.495-8.568 7.965z"/><path d="M34.43 2.555a1.608 1.608 0 00-1.62-.273L1.03 14.542A1.598 1.598 0 000 16.05a1.6 1.6 0 001.047 1.502l7.423 2.77 2.896 9.312a1.607 1.607 0 002.554.77l4.316-3.519a.59.59 0 01.72-.02l7.785 5.652a1.605 1.605 0 001.527.2c.512-.199.884-.637.995-1.174L34.966 4.11a1.61 1.61 0 00-.535-1.556zm-.829 1.272l-5.703 27.434a.208.208 0 01-.133.156.21.21 0 01-.205-.027l-7.785-5.652a1.981 1.981 0 00-2.42.067l-4.317 3.52a.209.209 0 01-.197.039.21.21 0 01-.144-.143L9.7 19.582a.697.697 0 00-.422-.446l-7.742-2.89a.203.203 0 01-.141-.202c0-.067.023-.157.138-.202l31.78-12.26c.103-.04.18.006.216.037.037.031.095.1.072.208z"/><path d="M29.222 17.236a.697.697 0 00-.83.534l-.105.488a.697.697 0 001.362.296l.106-.488a.697.697 0 00-.533-.83zm-.697 3.212a.697.697 0 00-.83.533l-1.603 7.387a.697.697 0 001.363.296l1.604-7.387a.697.697 0 00-.534-.83z"/></g><defs><clipPath id="clip0"><path fill="#fff" d="M0 0h35v35H0z"/></clipPath></defs></svg>