<svg width="35" height="35" fill="none" xmlns="http://www.w3.org/2000/svg"><path d="M20.833 0h-6.667C7.184 0 1.503 5.68 1.503 12.66v6.006c0 5.199 3.195 9.871 7.998 11.774v3.893a.666.666 0 001.114.494l3.865-3.5h6.353c6.982 0 12.663-5.68 12.663-12.66V12.66C33.496 5.679 27.816 0 20.833 0zm11.33 18.666c0 6.246-5.082 11.328-11.33 11.328h-6.61a.665.665 0 00-.447.172l-2.942 2.665v-2.853a.665.665 0 00-.444-.628 11.351 11.351 0 01-7.554-10.684v-6.005c0-6.246 5.083-11.328 11.33-11.328h6.667c6.248 0 11.33 5.082 11.33 11.328v6.005z" fill="#C62929"/><path d="M26.309 20.324l-4.097-2.66a1.996 1.996 0 00-2.766.586l-.192.296c-1.773-.586-3.728-1.334-4.899-4.722l.485-.421c.832-.724.92-1.989.196-2.822l-3.205-3.686a.667.667 0 00-.94-.066L8.879 8.578c-1.765 1.534-.94 3.803-.67 4.55a.662.662 0 00.044.096c.07.125 1.741 3.107 4.44 5.856 2.71 2.76 7.601 5.309 7.751 5.383a3.337 3.337 0 004.61-.98l1.451-2.235a.668.668 0 00-.196-.924zm-2.374 2.433c-.6.925-1.841 1.187-2.821.555-.049-.025-4.908-2.556-7.47-5.165-2.394-2.439-3.984-5.148-4.2-5.526-.528-1.48-.435-2.39.31-3.037l1.509-1.312 2.767 3.184a.66.66 0 01-.064.94l-.818.71a.666.666 0 00-.2.7c1.395 4.53 4.106 5.42 6.086 6.07l.288.096a.664.664 0 00.77-.269l.473-.728a.658.658 0 01.922-.194l3.538 2.298-1.09 1.678zM19.021 10.83a.666.666 0 10-.365 1.282 3.016 3.016 0 012.064 2.068.667.667 0 001.283-.362 4.358 4.358 0 00-2.982-2.989z" fill="#C62929"/><path d="M24.094 14.81a.667.667 0 00.642-.847 8.464 8.464 0 00-5.792-5.805.666.666 0 10-.364 1.282 7.121 7.121 0 014.873 4.884c.083.294.35.486.641.486z" fill="#C62929"/><path d="M18.657 5.054a.666.666 0 10-.365 1.282 12.066 12.066 0 018.257 8.276.667.667 0 001.283-.362c-1.246-4.417-4.761-7.94-9.175-9.196z" fill="#C62929"/></svg>