<svg width="35" height="35" fill="none" xmlns="http://www.w3.org/2000/svg"><path d="M23.174 23.017l-.164.26.303.046c1.761.27 4.124.807 6.04 1.712 1.934.913 3.328 2.159 3.328 3.813 0 .944-.462 1.786-1.298 2.528-.838.744-2.042 1.375-3.49 1.885-2.895 1.02-6.716 1.539-10.393 1.539-3.933 0-7.636-.553-10.428-1.55-2-.714-3.188-1.522-3.875-2.294-.683-.767-.878-1.507-.878-2.108 0-1.654 1.396-2.9 3.33-3.813 1.918-.906 4.28-1.442 6.038-1.712l.303-.047-.165-.259-3.304-5.184h0l-.006-.01a11.054 11.054 0 01-2.094-6.475C6.42 5.225 11.4.2 17.5.2c6.118 0 11.08 5.034 11.08 11.148 0 2.304-.704 4.515-2.036 6.394h0l-.024.032c-.037.047-.067.099-3.346 5.243zm2.03-6.239h0l.003-.005a9.355 9.355 0 001.721-5.425c0-5.236-4.228-9.497-9.428-9.497-5.211 0-9.429 4.26-9.429 9.497a9.4 9.4 0 001.826 5.572l7.434 11.665.169.265.169-.265a74638.02 74638.02 0 006.72-10.545c.774-1.215.783-1.225.803-1.248l.011-.014zm-12.167 8.14l-.068-.106-.125.016c-3.012.375-5.21 1.044-6.662 1.774-.726.364-1.271.748-1.639 1.123-.363.37-.573.756-.573 1.123 0 .532.397 1.056 1.028 1.53.642.483 1.573.95 2.746 1.358 2.35.818 5.705 1.413 9.756 1.413 4.075 0 7.43-.599 9.774-1.418 1.17-.41 2.097-.877 2.735-1.359.627-.474 1.021-.996 1.021-1.524 0-.367-.21-.752-.573-1.123-.368-.375-.913-.759-1.639-1.123-1.451-.73-3.65-1.4-6.662-1.774l-.125-.016-.068.107-3.767 5.91h0a.825.825 0 01-1.392 0l-.169.108.169-.108-3.767-5.91z" fill="#C62929" stroke="#fff" stroke-width=".4"/><path d="M12.573 11.348A4.933 4.933 0 0117.5 6.42a4.933 4.933 0 014.927 4.927 4.933 4.933 0 01-4.927 4.927 4.933 4.933 0 01-4.927-4.927zm1.65 0a3.28 3.28 0 003.277 3.276 3.28 3.28 0 003.276-3.276A3.28 3.28 0 0017.5 8.07a3.28 3.28 0 00-3.276 3.277z" fill="#C62929" stroke="#fff" stroke-width=".4"/></svg>