<svg width="66" height="66" fill="none" xmlns="http://www.w3.org/2000/svg"><path fill="#C62929" d="M0 56h66v10H0zm40.014-42.456a2.76 2.76 0 002.756-2.756 2.76 2.76 0 00-2.756-2.757 2.76 2.76 0 00-2.756 2.757 2.76 2.76 0 002.756 2.756zm0-4.044a1.289 1.289 0 010 2.575 1.29 1.29 0 01-1.288-1.287c0-.71.578-1.288 1.288-1.288z"/><path d="M55.702 11.486L33.313.079l-.017-.007a.597.597 0 00-.087-.035.668.668 0 00-.047-.014l-.043-.01a.737.737 0 00-.048-.007L33.027 0h-.049l-.044.001a.502.502 0 00-.048.005l-.044.007a.721.721 0 00-.046.01l-.045.013a.673.673 0 00-.088.036l-.017.007-22.39 11.407a.734.734 0 00-.4.654v25.719c0 .033.003.066.007.099l.006.032a.68.68 0 00.014.063c.003.013.008.025.012.037a.815.815 0 00.02.054l.017.038.026.048c.007.013.015.024.023.036l.031.044a.634.634 0 00.097.102.863.863 0 00.078.06c.007.003.013.009.02.013l.025.014.025.014 22.386 11.405a.72.72 0 00.155.059h.003a.73.73 0 00.146.022h.033c.075 0 .15-.01.222-.033h.002v-.001a.719.719 0 00.112-.047l10.134-5.162c.361-.184-1.037.29-1.221-.07-.184-.362.608-1.266.247-1.083l-4.033 2.055-3.859-1.986 4.11-2.115 3.872 2-.275.14a.734.734 0 10.667 1.31l12.744-6.494c.01-.004.017-.01.025-.014l.026-.014.02-.014a.62.62 0 00.11-.089.64.64 0 00.096-.116.587.587 0 00.048-.084c.006-.013.013-.025.018-.038.008-.017.013-.035.02-.054l.012-.037a.584.584 0 00.013-.063c.002-.01.005-.021.006-.032a.705.705 0 00.007-.1V12.14a.734.734 0 00-.4-.654zm-16.718 22.36l-4.399-2.262 3.409-1.753 4.412 2.247-3.422 1.769zm5.032-.947l4.165 2.122-3.456 1.779-4.138-2.129 3.43-1.772zm-20.192-.958l4.141-2.11 3.41 1.753-4.4 2.263-3.42-1.769.27-.137zm-1.88.958l3.428 1.772-4.138 2.129-3.455-1.78 4.164-2.121zm5.03 2.6l4.406 2.277-4.116 2.128-4.425-2.278 4.135-2.127zm1.603-.824l4.403-2.265 4.402 2.265-4.402 2.275-4.403-2.275zm4.403-3.917l-3.401-1.75 2.053-1.045 1.348-.687 1.3.662 2.1 1.07-3.4 1.75zm-.734-28.827V15.72l-.105-.116-.013-.014a3.02 3.02 0 00-2.368-.939c-.89.05-1.709.488-2.246 1.2l-2.054 2.723-2.562-2.434a2.886 2.886 0 00-2.18-.787 2.889 2.889 0 00-2.053 1.075l-3.484 4.354a.734.734 0 101.146.918l3.484-4.355c.25-.312.608-.499 1.007-.526a1.4 1.4 0 011.069.385l3.163 3.006.002.002 2.726 2.59a.732.732 0 001.038-.026.735.735 0 00-.026-1.038l-2.258-2.146 2.155-2.857a1.558 1.558 0 012.37-.14l1.189 1.319v8.088l-15.996 8.15-4.925 2.509V27.95l4.83-6.026c1.72-2.178-.172-.186-.489-.44-.316-.253-.13-1.146-.384-.83L11.325 25.6V12.59l20.92-10.659zM12.207 37.86l3.958-2.017 3.464 1.783-3.922 2.017-3.5-1.783zm5.113 2.605l3.913-2.013 4.429 2.28-3.88 2.006-4.462-2.273zm6.072 3.093l3.872-2 4.11 2.115-3.858 1.986-4.123-2.1zM36.83 46.48l-3.85 1.962-3.85-1.962 3.85-1.982 3.85 1.982zm-3.85-3.634l-4.113-2.117 4.113-2.126 4.113 2.126-4.113 2.117zm1.6-5.07l4.406-2.277 4.134 2.127-4.425 2.278-4.116-2.128zm9.597 4.96l-3.88-2.005 4.428-2.28 3.913 2.013-4.46 2.273zm6.074-3.094l-3.92-2.017 3.462-1.783 3.959 2.017-3.5 1.783zm4.384-11.374l-2.504-2.756a.734.734 0 10-1.087.988l3.59 3.952v6.209l-4.55-2.319-16.37-8.34v-6.458l4.038 4.48a.732.732 0 001.037.055.735.735 0 00.054-1.038l-1.614-1.79 2.918-3.591a1.842 1.842 0 012.795-.077l8.369 9.21c.145.16.289-.475.488-.475.177 0 .006-.165.147-.293.3-.272.566-.094.293-.394l-8.21-9.036a3.304 3.304 0 00-2.543-1.083 3.308 3.308 0 00-2.479 1.221l-2.773 3.413-2.52-2.796V1.931l20.92 10.659v15.678z" fill="#C62929"/></svg>