<svg width="66" height="66" fill="none" xmlns="http://www.w3.org/2000/svg"><path d="M58.908 23.57a1.023 1.023 0 00-.07-.143.995.995 0 00-.188-.22c-.03-.028-.042-.065-.075-.088-.015-.01-.035-.01-.05-.021-.019-.013-.03-.031-.05-.044l-4.677-2.673c.625-.602 1.035-1.416 1.035-2.337a3.26 3.26 0 00-1.808-2.925l-7.633-3.817.885-2.214.6-.3c.31.187.669.289 1.042.289.19 0 .383-.025.575-.08l8.03-2.295A3.434 3.434 0 0059 3.417 3.421 3.421 0 0055.583 0h-.958c-.775 0-1.533.267-2.135.748L46.648 5.42c-.483.387-.72.946-.742 1.523l-.914.456a1.03 1.03 0 00-.502.546l-.97 2.42-2.91-1.454c-2.223-1.112-5.073-.51-6.658 1.392l-8.875 10.65-15.302 4.081c-.058.017-.102.052-.156.078-.031.014-.069.008-.1.027-.019.01-.027.033-.044.043a1.037 1.037 0 00-.325.327c-.008.015-.013.03-.02.044a.994.994 0 00-.113.423c0 .023-.017.042-.017.065v14.583c0 .373.2.719.525.904l14.583 8.333a1.043 1.043 0 00.827.09L58.27 39.535a1.04 1.04 0 00.731-.993V23.958c0-.035-.02-.064-.023-.1a1.02 1.02 0 00-.069-.287zM53.794 2.376c.233-.188.529-.292.831-.292h.96c.736 0 1.334.598 1.334 1.334 0 .591-.398 1.118-.967 1.28l-7.477 2.138c-.002-.004-.002-.006-.002-.01-.023-.048-.065-.077-.094-.119l5.415-4.331zm-18.24 9.262a3.392 3.392 0 012.608-1.22c.523 0 1.048.125 1.523.356l3.06 1.53-.21.524-10.114 6.07a1.043 1.043 0 00.537 1.936c.184 0 .37-.048.536-.15l10.416-6.25c.196-.116.346-.293.432-.506l.275-.687 7.481 3.74c.404.203.656.61.656 1.07 0 .546-.37 1.019-.9 1.152l-.506.127-.008.002-28.036 7.009 12.25-14.703zm-11.97 35.526l-12.5-7.142V27.837l12.5 7.142v12.184zm1.164-13.917l-11.988-6.85 10.009-2.669-3.11 3.731a1.044 1.044 0 00.8 1.709.98.98 0 00.253-.034l3.5-.875 3.003 1.802a1.043 1.043 0 001.43-.356 1.041 1.041 0 00-.357-1.43l-1.22-.73 4.005-1 2.392 1.433a1.043 1.043 0 001.43-.356 1.041 1.041 0 00-.357-1.43l-.607-.362 4.007-1.002 1.775 1.067a1.043 1.043 0 001.431-.356 1.043 1.043 0 00-.35-1.426L44.8 23.11l1.165.698a1.043 1.043 0 001.43-.354c.188-.317.174-.687.02-.996l4.048-1.012 3.904 2.231-30.62 9.569zm32.169 4.529l-31.25 9.767V35.14l31.25-9.765v12.4zM0 56h66v10H0z" fill="#C62929"/></svg>