<svg width="66" height="66" fill="none" xmlns="http://www.w3.org/2000/svg"><path fill="#C62929" d="M0 56h66v10H0z"/><g clip-path="url(#clip0)" fill="#C62929"><path d="M15.291 8.318a3.125 3.125 0 00-3.125 3.125v8.334h2.084v-8.334a1.04 1.04 0 011.041-1.041h25V8.318h-25zm0 31.25a1.042 1.042 0 01-1.041-1.041V28.11h-2.084v10.416c0 1.726 1.4 3.126 3.125 3.126h10.417v-2.084H15.291z"/><path d="M41.028 42.255L15.73 16.957a1.042 1.042 0 00-1.473 0l-5.952 5.952a1.042 1.042 0 000 1.473L33.603 49.68a1.041 1.041 0 001.473 0l5.952-5.952a1.042 1.042 0 000-1.473zM34.34 47.47L10.514 23.645l4.48-4.479 23.825 23.825-4.48 4.48z"/><path d="M53.833 39.568H38.208v2.084h11.459v5.208c0 .575.466 1.042 1.041 1.042h3.125a4.167 4.167 0 000-8.334zm0 6.25H51.75v-4.166h2.083a2.083 2.083 0 010 4.166z"/><path d="M53.833 8.318h-5.208v2.084h5.208c1.15 0 2.084.932 2.084 2.083v31.25H58v-31.25a4.167 4.167 0 00-4.167-4.167zM27.055 29.457l-3.125 3.125 1.473 1.473 3.126-3.125-1.474-1.473zm-4.166-4.167l-3.126 3.126 1.473 1.473 3.126-3.126-1.473-1.473zm8.331 8.333l-3.125 3.126 1.473 1.473 3.125-3.126-1.473-1.473zm4.169 4.169l-3.126 3.126 1.474 1.473 3.125-3.126-1.473-1.473zM18.72 21.123l-3.126 3.126 1.473 1.473 3.126-3.126-1.474-1.473z"/><path d="M52.931 2.326l-1.44-1.44a3.152 3.152 0 00-4.352 0l-15.84 15.84a1.042 1.042 0 000 1.474l4.32 4.32a1.042 1.042 0 001.473 0l15.84-15.84v-.002a3.077 3.077 0 000-4.352zm-1.472 2.88L36.355 20.31l-2.847-2.847L48.612 2.36a1.018 1.018 0 011.407 0l1.44 1.438a.995.995 0 010 1.408z"/><path d="M36.02 20.795l-4.495 1.501 1.5-4.503-1.978-.66-2.16 6.481a1.042 1.042 0 001.313 1.32l6.48-2.16-.66-1.979zm9.71-17.029L44.259 5.24l4.32 4.32 1.473-1.473-4.32-4.32z"/><path d="M45.5 22.901H29.875v2.084H45.5V22.9z"/></g><defs><clipPath id="clip0"><path fill="#fff" transform="translate(8)" d="M0 0h50v50H0z"/></clipPath></defs></svg>