<svg width="66" height="66" fill="none" xmlns="http://www.w3.org/2000/svg"><path fill="#C62929" d="M0 56h66v10H0zm56.913-34.26h-1.087V1.086a1.086 1.086 0 10-2.173.001v3.26h-4.348v-3.26a1.086 1.086 0 10-2.175 0v3.26h-4.347v-3.26a1.086 1.086 0 10-2.174 0v3.26H36.26v-3.26C36.26.486 35.775 0 35.174 0H9.087C8.486 0 8 .486 8 1.087v47.826C8 49.514 8.486 50 9.087 50h47.826c.601 0 1.087-.486 1.087-1.087V22.826c0-.601-.486-1.087-1.087-1.087zm-7.609 0v-6.523h4.348v6.522h-4.348zm-6.521 0v-6.523h4.347v6.522h-4.347zm-6.522 0v-6.523h4.348v6.522H36.26zM53.652 6.521v6.521h-4.348v-6.52h4.348zm-6.522 0v6.521h-4.347v-6.52h4.347zm-6.521 0v6.521H36.26v-6.52h4.348zm-6.522-4.348v20.652c0 .601.486 1.087 1.087 1.087h20.652V39.13H10.174V2.174h23.913zM10.174 47.826v-6.522h45.652v6.522H10.174z"/></svg>