<svg width="66" height="66" fill="none" xmlns="http://www.w3.org/2000/svg"><path fill="#C62929" d="M0 56h66v10H0zM58 4.393a4.366 4.366 0 00-1.287-3.108 4.4 4.4 0 00-6.215 0l-2.202 2.202a12.327 12.327 0 00-6.541-.945 12.073 12.073 0 00-7.03 3.467l-6.905 6.905a12.132 12.132 0 00-2.734 4.18 12.047 12.047 0 00-4.172 2.726l-6.906 6.905a12.073 12.073 0 00-3.465 7.03c-.29 2.22.045 4.502.944 6.54l-2.202 2.203a4.4 4.4 0 000 6.215A4.366 4.366 0 0012.393 50a4.364 4.364 0 003.107-1.287l2.201-2.201a12.355 12.355 0 006.542.944 12.072 12.072 0 007.03-3.467l6.905-6.905a12.136 12.136 0 002.734-4.18 12.042 12.042 0 004.172-2.726l6.905-6.905a12.074 12.074 0 003.467-7.03c.29-2.22-.046-4.502-.945-6.54L56.713 7.5A4.366 4.366 0 0058 4.393zM38.178 19.82a12.054 12.054 0 00-2.764-2.07l4.954-4.954a4.366 4.366 0 001.263 3.571 4.365 4.365 0 003.571 1.263l-4.952 4.952a12.164 12.164 0 00-2.072-2.762zM24.367 33.63a4.366 4.366 0 00-3.571-1.263l4.952-4.952a12.166 12.166 0 004.836 4.832l-4.957 4.957a4.388 4.388 0 00-1.26-3.574zm5.524-18.645l6.906-6.906c2.435-2.435 6.012-3.278 9.224-2.318L43.473 8.31a6.27 6.27 0 00-4.604 1.842l-6.906 6.905a1.465 1.465 0 00-.153.183l-.012.013a6.324 6.324 0 00.165 8.782c.018.019.207.265.222.283a3.41 3.41 0 01.416 3.663 9.13 9.13 0 01-2.71-1.874c-3.617-3.618-3.617-9.504 0-13.121zM16.08 28.797l6.906-6.906a9.28 9.28 0 011.286-1.072 12.29 12.29 0 00.32 3.61l-6.44 6.44a6.269 6.269 0 00-1.843 4.604l-2.547 2.548c-.96-3.212-.117-6.789 2.318-9.224zm-2.651 17.844a1.466 1.466 0 01-2.072-2.072l8.866-8.866c.277-.277.645-.43 1.037-.43a1.467 1.467 0 011.036 2.5l-8.867 8.868zm22.678-11.629L29.2 41.918c-2.436 2.435-6.012 3.278-9.224 2.318l2.548-2.548a6.276 6.276 0 004.604-1.842l6.906-6.905a6.322 6.322 0 00.47-8.412 8.338 8.338 0 00-.47-.566 3.394 3.394 0 01-.628-3.942 9.138 9.138 0 012.7 1.87c3.617 3.618 3.617 9.504 0 13.121zm13.81-13.811l-6.905 6.906c-.4.399-.829.756-1.286 1.072a12.294 12.294 0 00-.32-3.61l6.44-6.44a6.267 6.267 0 001.842-4.604l2.548-2.548c.96 3.212.117 6.789-2.318 9.224zm4.724-15.772l-8.866 8.866a1.467 1.467 0 01-2.501-1.036c0-.39.152-.759.429-1.036l8.866-8.866a1.464 1.464 0 012.072 0c.571.571.571 1.5 0 2.072z"/></svg>