<svg width="183" height="66" fill="none" xmlns="http://www.w3.org/2000/svg"><g clip-path="url(#clip0)"><path d="M3.244 48.344A10.065 10.065 0 010 46.929l1.622-3.687c.843.55 1.759.976 2.72 1.263.986.313 2.012.474 3.045.48 1.897 0 2.845-.48 2.845-1.44a1.2 1.2 0 00-.235-.699 1.177 1.177 0 00-.597-.424 14.774 14.774 0 00-2.587-.754 24.67 24.67 0 01-3.294-.922 5.544 5.544 0 01-2.271-1.603 4.297 4.297 0 01-.949-2.946 5.093 5.093 0 01.874-2.917 5.855 5.855 0 012.608-2.058c1.353-.542 2.8-.8 4.255-.758 1.142 0 2.28.13 3.394.392 1.033.229 2.026.616 2.944 1.149l-1.522 3.737a10.08 10.08 0 00-4.841-1.364 4.02 4.02 0 00-2.146.421 1.337 1.337 0 00-.674 1.149c0 .245.078.482.221.679.144.196.346.34.577.411.833.324 1.693.57 2.57.733 1.13.226 2.242.534 3.328.922a5.708 5.708 0 012.255 1.557 4.216 4.216 0 01.96 2.917 5.012 5.012 0 01-.873 2.878 5.962 5.962 0 01-2.62 2.059c-1.348.548-2.792.81-4.243.77a15.97 15.97 0 01-4.122-.53z" fill="#1A1A1A"/><path d="M29.073 45.086h-7.387l-1.372 3.434h-5.041l7.711-17.677h4.883l7.736 17.677h-5.157l-1.373-3.434zm-1.447-3.687l-2.254-5.657-2.246 5.657h4.5z" fill="#000"/><path d="M39.83 34.808h-5.366v-3.965H50.11v3.965h-5.34V48.52h-4.942V34.808zm13.862 11.911c-1.439-1.431-2.159-3.46-2.159-6.086v-9.79h4.942v9.647c0 2.828 1.109 4.242 3.327 4.242s3.316-1.414 3.294-4.242v-9.647h4.867v9.798c0 2.627-.72 4.655-2.16 6.086-1.438 1.431-3.455 2.147-6.05 2.147-2.602 0-4.622-.718-6.06-2.155zm25.243-2.896H76.24v4.697h-4.942V30.843h7.986a9.88 9.88 0 014.118.795c.8.382 1.512.93 2.091 1.606a6.453 6.453 0 011.273 2.324 6.504 6.504 0 01-.607 5.162 6.015 6.015 0 01-2.533 2.235l3.769 5.555h-5.29l-3.17-4.697zm2.346-8.359a3.378 3.378 0 00-2.296-.681H76.24v5.176h2.745a3.419 3.419 0 002.296-.669 2.396 2.396 0 00.774-1.907 2.433 2.433 0 00-.774-1.919zm25.105-4.621V48.52h-4.068l-7.711-9.42v9.42h-4.841V30.843h4.067l7.712 9.42v-9.42h4.841zm26.528 10.114a4.37 4.37 0 01.832 2.715 4.116 4.116 0 01-.453 2.04 4.055 4.055 0 01-1.394 1.546c-1.231.841-3.011 1.262-5.34 1.262h-9.417V30.843h8.934c2.218 0 3.915.42 5.091 1.263.55.365.998.866 1.304 1.455.305.589.458 1.247.443 1.912.012.797-.2 1.58-.611 2.26a4.296 4.296 0 01-1.735 1.578 4.9 4.9 0 012.346 1.646zm-10.881-6.503v3.426h3.394c1.664 0 2.496-.572 2.496-1.717s-.832-1.706-2.496-1.684l-3.394-.025zm6.738 8.662c0-1.195-.865-1.793-2.595-1.793h-4.159v3.586h4.159c1.73 0 2.595-.597 2.595-1.793zm21.587 1.541v3.863h-14.025V30.843h13.701v3.864h-8.81v2.98h7.761v3.737h-7.761v3.233h9.134zm4.783 3.687a10.06 10.06 0 01-3.244-1.415l1.622-3.687c.843.55 1.759.976 2.72 1.263a10.25 10.25 0 003.045.48c1.896 0 2.845-.48 2.845-1.44a1.2 1.2 0 00-.227-.694 1.176 1.176 0 00-.584-.43 14.785 14.785 0 00-2.625-.753 24.698 24.698 0 01-3.294-.922 5.545 5.545 0 01-2.271-1.603 4.298 4.298 0 01-.948-2.946 5.09 5.09 0 01.873-2.917 5.859 5.859 0 012.608-2.058c1.353-.542 2.801-.8 4.255-.758 1.142 0 2.281.13 3.394.392a10.32 10.32 0 012.945 1.149l-1.523 3.712a10.075 10.075 0 00-4.841-1.364 4.017 4.017 0 00-2.146.421 1.322 1.322 0 00-.674 1.15 1.14 1.14 0 00.799 1.115c.832.323 1.693.569 2.57.732a23.83 23.83 0 013.307.922 5.714 5.714 0 012.271 1.565 4.22 4.22 0 01.961 2.917 5.015 5.015 0 01-.874 2.879 5.964 5.964 0 01-2.62 2.058 10.49 10.49 0 01-4.243.77 15.973 15.973 0 01-4.101-.538zm17.577-13.536h-5.365v-3.965h15.655v3.965h-5.349V48.52h-4.941V34.808z" fill="#1A1A1A"/><path d="M113.432 10.522v-.77a77.44 77.44 0 00-29.257 16.882h7.745a73.372 73.372 0 018.094-5.472 69.543 69.543 0 0114.033-6.275 15.75 15.75 0 01-.615-4.365zm31.847 4.958a13.078 13.078 0 00-1.368-1.948 15.567 15.567 0 01-2.379 5.736c.394 1.09.59 2.244.578 3.405 0 2.488-.79 5.27-2.254 8.17a36.44 36.44 0 01-3.536 5.564 48.492 48.492 0 01-3.639 4.264 64.87 64.87 0 01-9.071 7.85 73.88 73.88 0 01-5.823 3.787c-8.806 5.144-18.052 8.2-26.042 8.603-7.287.367-12.715-1.616-14.898-5.442a8.357 8.357 0 01-.97-2.736h-5.07a13.835 13.835 0 001.714 5.262c2.966 5.202 9.15 7.997 17.47 7.997.644 0 1.305 0 1.979-.05 8.764-.443 18.812-3.734 28.283-9.26a72.958 72.958 0 0016.055-12.518 51.593 51.593 0 005.27-6.473 41.715 41.715 0 001.855-2.98 32.419 32.419 0 001.871-3.864c2.313-5.657 2.45-11.031-.025-15.367z" fill="#C62929"/><path d="M139.219 10.522c0 2.791-1.095 5.467-3.045 7.44a10.337 10.337 0 01-7.353 3.083 10.335 10.335 0 01-7.352-3.082 10.587 10.587 0 01-3.046-7.44 10.588 10.588 0 012.926-7.326 10.342 10.342 0 017.139-3.2 10.325 10.325 0 017.327 2.73 10.57 10.57 0 013.404 7.795z" fill="#1A1A1A"/></g><defs><clipPath id="clip0"><path fill="#fff" d="M0 0h183v66H0z"/></clipPath></defs></svg>