<svg width="50" height="50" fill="none" xmlns="http://www.w3.org/2000/svg"><g clip-path="url(#clip0)" fill="#C62929"><path d="M38.02 46.875H5.73A5.734 5.734 0 010 41.146V8.856c0-3.16 2.569-5.73 5.73-5.73h26.04a1.563 1.563 0 010 3.125H5.73a2.608 2.608 0 00-2.605 2.605v32.29a2.608 2.608 0 002.604 2.604h32.29a2.608 2.608 0 002.605-2.604V23.438a1.563 1.563 0 013.125 0v17.708c0 3.16-2.57 5.73-5.73 5.73z"/><path d="M25.52 29.168c-.4 0-.8-.153-1.104-.46l-9.375-9.374a1.563 1.563 0 112.21-2.21l8.27 8.27 21.81-21.809a1.563 1.563 0 112.21 2.21L26.627 28.711a1.565 1.565 0 01-1.107.457z"/></g><defs><clipPath id="clip0"><path fill="#fff" d="M0 0h50v50H0z"/></clipPath></defs></svg>