<svg width="50" height="50" fill="none" xmlns="http://www.w3.org/2000/svg"><path d="M48.438 47.656h-2.344V1.562a.783.783 0 00-1.062-.73L24.72 8.646a.782.782 0 00-.501.73V21.34L4.407 28.958a.782.782 0 00-.5.73v17.968H1.561a.781.781 0 100 1.563h46.876a.781.781 0 100-1.563zm-24.22 0H5.469V30.224l18.75-7.211v24.643zm10.157 0H31.25v-7.812h3.125v7.812zm4.688 0h-3.126v-7.812h3.126v7.812zm5.468 0h-3.906v-8.594a.781.781 0 00-.781-.78h-9.375a.781.781 0 00-.782.78v8.594h-3.906V9.911l18.75-7.21v44.955z" fill="#fff"/><path d="M20.313 32.031H8.592a.781.781 0 00-.78.782V37.5a.781.781 0 00.78.781h11.72a.781.781 0 00.78-.781v-4.688a.781.781 0 00-.78-.78zm-.782 4.688H9.375v-3.125h10.156v3.125zm.782 2.344h-4.688a.781.781 0 00-.781.78v4.688a.781.781 0 00.781.782h4.688a.781.781 0 00.78-.782v-4.687a.781.781 0 00-.78-.782zm-.782 4.687h-3.125v-3.125h3.125v3.125zm-6.25-4.687H8.594a.781.781 0 00-.781.78v4.688a.781.781 0 00.78.782h4.688a.781.781 0 00.781-.782v-4.687a.781.781 0 00-.78-.782zM12.5 43.75H9.375v-3.125H12.5v3.125zm28.906-21.094H36.72a.781.781 0 00-.782.782v4.687a.781.781 0 00.782.781h4.687a.781.781 0 00.782-.781v-4.688a.781.781 0 00-.782-.78zm-.781 4.688H37.5v-3.125h3.125v3.125zm-7.031-4.688h-4.688a.781.781 0 00-.781.782v4.687a.781.781 0 00.781.781h4.688a.781.781 0 00.781-.781v-4.688a.781.781 0 00-.781-.78zm-.782 4.688h-3.124v-3.125h3.125v3.125zm8.594 2.344H36.72a.781.781 0 00-.782.78v4.688a.781.781 0 00.782.782h4.687a.781.781 0 00.782-.782V30.47a.781.781 0 00-.782-.782zm-.781 4.687H37.5V31.25h3.125v3.125zm-7.031-4.687h-4.688a.781.781 0 00-.781.78v4.688a.781.781 0 00.781.782h4.688a.781.781 0 00.781-.782V30.47a.781.781 0 00-.781-.782zm-.782 4.687h-3.124V31.25h3.125v3.125zm8.594-19.531H36.72a.781.781 0 00-.782.781v4.688a.781.781 0 00.782.78h4.687a.781.781 0 00.782-.78v-4.688a.781.781 0 00-.782-.781zm-.781 4.687H37.5v-3.125h3.125v3.125zm-7.031-4.687h-4.688a.781.781 0 00-.781.781v4.688a.781.781 0 00.781.78h4.688a.781.781 0 00.781-.78v-4.688a.781.781 0 00-.781-.781zm-.782 4.687h-3.124v-3.125h3.125v3.125z" fill="#fff"/></svg>