<svg width="50" height="50" fill="none" xmlns="http://www.w3.org/2000/svg"><g clip-path="url(#clip0)" fill="#C62929"><path d="M7.822 13.498h.054a3.638 3.638 0 003.634-3.634v-1.21a3.639 3.639 0 00-3.634-3.635h-.054a3.639 3.639 0 00-3.634 3.635v1.21a3.638 3.638 0 003.634 3.634zM5.73 8.654a2.095 2.095 0 012.092-2.092h.054a2.095 2.095 0 012.092 2.092v1.21a2.095 2.095 0 01-2.092 2.092h-.054A2.095 2.095 0 015.73 9.864v-1.21zm6.396 6.004h-1.522a.772.772 0 00-.527.21l-2.118 1.986-2.032-1.978a.772.772 0 00-.538-.218H3.774a3.775 3.775 0 00-3.758 4.114v8.847a2.365 2.365 0 002.364 2.365h.028c.316-.003.629-.072.918-.202l.406 16a2.497 2.497 0 004.226 1.712 2.497 2.497 0 004.227-1.72l.405-15.98a2.365 2.365 0 003.295-2.176v-8.846a3.775 3.775 0 00-3.76-4.114zm-2.44 31.99a.958.958 0 01-.957-.957V29.664H7.187v16.027a.957.957 0 01-1.914.043l-.46-18.083h6.29l-.46 18.074a.954.954 0 01-.957.923zm4.66-27.991a.781.781 0 00-.004.078v8.883a.825.825 0 01-1.65 0v-1.883l.01-.358h-.01v-3.705h-1.541v4.045l-.01.392H4.775l-.02-.77h-.009v-3.667H3.204v5.903a.85.85 0 01-.814.868.824.824 0 01-.832-.823v-8.885a.78.78 0 00-.004-.078 2.231 2.231 0 012.22-2.456h1.303l2.335 2.272.011.009a.751.751 0 00.073.061l.006.004a.79.79 0 00.087.054l.019.01a.785.785 0 00.086.036l.008.003c.031.01.063.02.096.026l.023.003a.731.731 0 00.087.01l.013.002c.033 0 .066 0 .098-.003l.024-.003a.814.814 0 00.095-.017l.004-.001a.754.754 0 00.1-.034c.003 0 .005-.001.008-.003.003 0 .005-.003.008-.003a.789.789 0 00.176-.108l.021-.017.023-.02 2.432-2.281h1.216a2.233 2.233 0 012.22 2.456zm27.577-5.159h.054a3.639 3.639 0 003.634-3.634v-1.21a3.64 3.64 0 00-3.634-3.635h-.054a3.639 3.639 0 00-3.634 3.635v1.21a3.638 3.638 0 003.634 3.634zM39.83 8.654a2.095 2.095 0 012.093-2.092h.054a2.095 2.095 0 012.092 2.092v1.21a2.095 2.095 0 01-2.092 2.092h-.054a2.095 2.095 0 01-2.093-2.092v-1.21zm6.397 6.004h-1.522a.772.772 0 00-.527.21l-2.118 1.986-2.032-1.978a.772.772 0 00-.538-.218h-1.615a3.776 3.776 0 00-3.759 4.114v8.847a2.366 2.366 0 002.364 2.365h.028a2.32 2.32 0 00.918-.202l.406 16a2.498 2.498 0 004.226 1.712 2.497 2.497 0 004.227-1.721l.405-15.978a2.367 2.367 0 003.295-2.177v-8.846a3.774 3.774 0 00-3.758-4.114zm-2.44 31.99a.958.958 0 01-.957-.957V29.664h-1.542v16.027a.957.957 0 01-1.914.043l-.46-18.083h6.29l-.46 18.074a.954.954 0 01-.957.923zm4.66-27.991a.781.781 0 00-.004.078v8.883a.825.825 0 11-1.649 0v-1.883l.009-.358h-.009v-3.705h-1.542v4.044l-.01.393h-6.366l-.02-.771h-.01v-3.666h-1.541v5.903a.85.85 0 01-.814.868.822.822 0 01-.833-.823v-8.885a.773.773 0 00-.004-.078 2.231 2.231 0 012.221-2.456h1.302l2.336 2.272.01.009a.695.695 0 00.074.061l.006.004c.028.02.057.038.088.054l.018.01a.758.758 0 00.087.036l.007.003a.725.725 0 00.207.04h.013a.74.74 0 00.217-.023h.003a.73.73 0 00.1-.034l.009-.003.007-.004a.774.774 0 00.177-.107c.007-.006.014-.01.02-.017l.023-.02 2.432-2.281h1.217a2.231 2.231 0 012.22 2.456zm-23.575-5.159h.054a3.638 3.638 0 003.635-3.634v-1.21a3.639 3.639 0 00-3.635-3.635h-.053a3.64 3.64 0 00-3.635 3.635v1.21a3.639 3.639 0 003.634 3.634zM22.78 8.654a2.095 2.095 0 012.092-2.092h.054a2.095 2.095 0 012.093 2.092v1.21a2.095 2.095 0 01-2.093 2.092h-.053a2.095 2.095 0 01-2.093-2.092v-1.21zm6.397 6.004h-1.522a.772.772 0 00-.528.21l-2.117 1.986-2.032-1.978a.771.771 0 00-.538-.218h-1.615a3.775 3.775 0 00-3.759 4.114v8.847a2.366 2.366 0 002.364 2.365h.028a2.32 2.32 0 00.918-.202l.407 16a2.496 2.496 0 004.226 1.712 2.498 2.498 0 004.226-1.721l.405-15.978a2.368 2.368 0 003.295-2.177v-8.846a3.773 3.773 0 00-3.758-4.114zm-2.44 31.99a.958.958 0 01-.957-.957V29.664h-1.542v16.027a.957.957 0 01-1.914.043l-.46-18.083h6.289l-.46 18.074a.954.954 0 01-.956.923zm4.66-27.991a.678.678 0 00-.004.078v8.883a.825.825 0 11-1.65 0v-1.883l.01-.358h-.01v-3.705h-1.541v4.044l-.01.393h-6.366l-.02-.771h-.01v-3.666h-1.541v5.903a.85.85 0 01-.814.868.823.823 0 01-.833-.823v-8.885a.773.773 0 00-.004-.078 2.233 2.233 0 012.221-2.456h1.302l2.336 2.272.011.009a.72.72 0 00.073.061l.006.004a.727.727 0 00.2.103c.032.01.063.02.096.026.008 0 .015.002.023.003a.731.731 0 00.087.01l.014.002a.748.748 0 00.217-.024h.003a.753.753 0 00.1-.034.011.011 0 00.008-.003c.003 0 .006-.003.008-.004a.772.772 0 00.177-.107c.007-.006.014-.01.02-.017l.023-.02 2.432-2.281h1.216a2.233 2.233 0 012.22 2.456zM20.136 6.716v-1.21a3.638 3.638 0 00-3.634-3.635h-.054a3.638 3.638 0 00-3.634 3.635v1.21a3.639 3.639 0 003.634 3.634h.054a3.639 3.639 0 003.634-3.634zm-1.542 0a2.095 2.095 0 01-2.092 2.092h-.054a2.095 2.095 0 01-2.092-2.092v-1.21a2.095 2.095 0 012.092-2.093h.054a2.095 2.095 0 012.092 2.093v1.21zm18.593 0v-1.21a3.638 3.638 0 00-3.635-3.635H33.5a3.639 3.639 0 00-3.635 3.635v1.21a3.64 3.64 0 003.634 3.634h.054a3.639 3.639 0 003.635-3.634zm-1.542 0a2.095 2.095 0 01-2.093 2.092H33.5a2.095 2.095 0 01-2.093-2.092v-1.21A2.095 2.095 0 0133.5 3.413h.053a2.095 2.095 0 012.093 2.093v1.21z"/></g><defs><clipPath id="clip0"><path fill="#fff" d="M0 0h50v50H0z"/></clipPath></defs></svg>