<svg width="50" height="50" fill="none" xmlns="http://www.w3.org/2000/svg"><g clip-path="url(#clip0)" fill="#C62929"><path d="M7.5 33.333c-3.728 0-7.5 1.145-7.5 3.334v10C0 48.855 3.772 50 7.5 50s7.5-1.145 7.5-3.333v-10c0-2.189-3.772-3.334-7.5-3.334zM7.5 35c3.79 0 5.833 1.183 5.833 1.667 0 .483-2.044 1.666-5.833 1.666-3.79 0-5.833-1.183-5.833-1.666C1.667 36.183 3.71 35 7.5 35zm0 13.333c-3.79 0-5.833-1.183-5.833-1.666V45.5A13.217 13.217 0 007.5 46.667c2.008.059 4.003-.34 5.833-1.167v1.167c0 .483-2.044 1.666-5.833 1.666zM7.5 45c-3.79 0-5.833-1.183-5.833-1.667v-1.166A13.217 13.217 0 007.5 43.333a13.22 13.22 0 005.833-1.166v1.166C13.333 43.817 11.29 45 7.5 45zm0-3.333c-3.79 0-5.833-1.184-5.833-1.667v-1.167A13.216 13.216 0 007.5 40c2.008.06 4.003-.34 5.833-1.167V40c0 .483-2.044 1.667-5.833 1.667zm17.5-15c-3.728 0-7.5 1.145-7.5 3.333v16.667C17.5 48.855 21.272 50 25 50s7.5-1.145 7.5-3.333V30c0-2.188-3.772-3.333-7.5-3.333zm0 1.666c3.79 0 5.833 1.184 5.833 1.667 0 .483-2.044 1.667-5.833 1.667-3.79 0-5.833-1.184-5.833-1.667 0-.483 2.044-1.667 5.833-1.667zm0 20c-3.79 0-5.833-1.183-5.833-1.666V45.5A13.215 13.215 0 0025 46.667c2.008.06 4.003-.34 5.833-1.167v1.167c0 .483-2.044 1.666-5.833 1.666zM25 45c-3.79 0-5.833-1.183-5.833-1.667v-1.166A13.216 13.216 0 0025 43.333c2.008.06 4.003-.339 5.833-1.166v1.166C30.833 43.817 28.79 45 25 45zm0-3.333c-3.79 0-5.833-1.184-5.833-1.667v-1.166A13.217 13.217 0 0025 40a13.22 13.22 0 005.833-1.166V40c0 .483-2.044 1.667-5.833 1.667zm0-3.334c-3.79 0-5.833-1.183-5.833-1.666V35.5A13.215 13.215 0 0025 36.667c2.008.06 4.003-.34 5.833-1.167v1.167c0 .483-2.044 1.666-5.833 1.666zM25 35c-3.79 0-5.833-1.183-5.833-1.667v-1.166A13.216 13.216 0 0025 33.333c2.008.06 4.003-.339 5.833-1.166v1.166C30.833 33.817 28.79 35 25 35zm17.5-18.333c-3.728 0-7.5 1.145-7.5 3.333v26.667C35 48.855 38.772 50 42.5 50s7.5-1.145 7.5-3.333V20c0-2.188-3.772-3.333-7.5-3.333zm0 1.666c3.79 0 5.833 1.184 5.833 1.667 0 .483-2.044 1.667-5.833 1.667-3.79 0-5.833-1.184-5.833-1.667 0-.483 2.044-1.667 5.833-1.667zm0 30c-3.79 0-5.833-1.183-5.833-1.666V45.5a13.215 13.215 0 005.833 1.167c2.008.06 4.003-.34 5.833-1.167v1.167c0 .483-2.044 1.666-5.833 1.666zm0-3.333c-3.79 0-5.833-1.183-5.833-1.667v-1.166a13.216 13.216 0 005.833 1.166c2.008.06 4.003-.339 5.833-1.166v1.166c0 .484-2.044 1.667-5.833 1.667zm0-3.333c-3.79 0-5.833-1.184-5.833-1.667v-1.166A13.217 13.217 0 0042.5 40a13.22 13.22 0 005.833-1.166V40c0 .483-2.044 1.667-5.833 1.667zm0-3.334c-3.79 0-5.833-1.183-5.833-1.666V35.5a13.215 13.215 0 005.833 1.167c2.008.06 4.003-.34 5.833-1.167v1.167c0 .483-2.044 1.666-5.833 1.666zm0-3.333c-3.79 0-5.833-1.183-5.833-1.667v-1.166a13.216 13.216 0 005.833 1.166c2.008.06 4.003-.339 5.833-1.166v1.166c0 .484-2.044 1.667-5.833 1.667zm0-3.333c-3.79 0-5.833-1.184-5.833-1.667v-1.166A13.217 13.217 0 0042.5 30a13.22 13.22 0 005.833-1.166V30c0 .483-2.044 1.667-5.833 1.667zm0-3.334c-3.79 0-5.833-1.183-5.833-1.666V25.5a13.215 13.215 0 005.833 1.167c2.008.06 4.003-.34 5.833-1.167v1.167c0 .483-2.044 1.666-5.833 1.666zm0-3.333c-3.79 0-5.833-1.183-5.833-1.667v-1.166a13.216 13.216 0 005.833 1.166c2.008.06 4.003-.339 5.833-1.166v1.166c0 .484-2.044 1.667-5.833 1.667zM40.833 0v1.667h6.322L31.32 17.5H13.854L.283 29.373l1.1 1.254 13.097-11.46h17.532L48.333 2.845v6.322H50V0h-9.167z"/></g><defs><clipPath id="clip0"><path fill="#fff" d="M0 0h50v50H0z"/></clipPath></defs></svg>